<svg xmlns="http://www.w3.org/2000/svg" xmlns:xlink="http://www.w3.org/1999/xlink" width="500" zoomAndPan="magnify" viewBox="0 0 375 374.999991" height="500" preserveAspectRatio="xMidYMid meet" version="1.0"><defs><clipPath id="c2a865b0a4"><path d="M 124 140 L 251 140 L 251 362.480469 L 124 362.480469 Z M 124 140 " clip-rule="nonzero"/></clipPath><clipPath id="0bf3ce3718"><path d="M 111.433594 48 L 263.683594 48 L 263.683594 175 L 111.433594 175 Z M 111.433594 48 " clip-rule="nonzero"/></clipPath><clipPath id="cd85941f80"><path d="M 160 12.449219 L 215 12.449219 L 215 150 L 160 150 Z M 160 12.449219 " clip-rule="nonzero"/></clipPath></defs><g clip-path="url(#c2a865b0a4)"><path fill="#024e80" d="M 124.253906 140.554688 C 125.535156 161.035156 136.59375 178.957031 152.777344 189.671875 L 140.4375 272.234375 L 136.910156 295.273438 L 151.011719 313.992188 C 163.191406 330.152344 175.371094 346.3125 187.550781 362.472656 C 199.730469 346.3125 211.910156 330.152344 224.089844 313.992188 L 238.191406 295.273438 L 234.664062 272.234375 L 222.320312 189.671875 C 238.507812 178.957031 249.566406 161.03125 250.6875 140.554688 L 230.972656 158.472656 C 228.089844 163.914062 224.398438 168.875 219.753906 173.035156 C 215.265625 177.035156 209.980469 180.078125 204.367188 182.316406 L 206.453125 197.195312 L 220.554688 290.796875 L 195.871094 323.601562 L 187.558594 197.996094 L 179.222656 323.601562 L 154.386719 290.796875 L 168.488281 197.195312 L 170.734375 182.316406 C 164.964844 180.078125 159.835938 177.035156 155.347656 173.035156 C 150.703125 168.875 146.851562 163.914062 144.128906 158.472656 Z M 124.253906 140.554688 " fill-opacity="1" fill-rule="evenodd"/></g><g clip-path="url(#0bf3ce3718)"><path fill="#808185" d="M 223.9375 145.988281 C 222.8125 150.789062 220.566406 155.273438 217.683594 159.109375 C 213.839844 164.390625 208.710938 168.554688 202.621094 171.109375 C 200.539062 172.070312 198.292969 172.867188 195.894531 173.351562 C 193.171875 173.988281 190.441406 174.3125 187.558594 174.3125 C 184.675781 174.3125 181.953125 173.988281 179.222656 173.351562 C 176.816406 172.867188 174.578125 172.070312 172.496094 171.109375 C 166.40625 168.554688 161.277344 164.390625 157.269531 159.109375 C 154.386719 155.273438 152.300781 150.789062 151.019531 145.988281 L 117.363281 93.03125 L 152.140625 124.394531 C 153.585938 120.234375 155.667969 116.554688 158.390625 113.191406 L 111.433594 48.390625 L 171.847656 102.789062 L 171.847656 121.191406 C 171.050781 121.828125 170.402344 122.636719 169.765625 123.433594 C 167.042969 127.113281 165.4375 131.433594 165.273438 136.394531 C 165.273438 136.554688 165.273438 136.714844 165.273438 136.875 C 165.273438 144.078125 168.804688 150.480469 174.085938 154.480469 C 174.25 154.640625 174.570312 154.800781 174.886719 155.117188 C 176.488281 156.238281 178.414062 157.199219 180.339844 157.835938 C 182.582031 158.632812 184.984375 158.957031 187.550781 158.957031 C 189.957031 158.957031 192.355469 158.632812 194.601562 157.835938 C 196.683594 157.199219 198.445312 156.238281 200.207031 155.117188 C 200.53125 154.796875 200.691406 154.632812 201.007812 154.480469 C 206.296875 150.480469 209.65625 144.078125 209.65625 136.875 C 209.65625 136.714844 209.65625 136.554688 209.65625 136.394531 C 209.65625 131.433594 207.898438 127.113281 205.167969 123.433594 C 204.683594 122.636719 204.046875 121.835938 203.246094 121.191406 L 203.246094 102.789062 C 223.4375 84.550781 243.46875 66.46875 263.660156 48.390625 L 216.703125 113.191406 C 219.425781 116.554688 221.507812 120.234375 222.953125 124.394531 C 234.496094 113.832031 246.191406 103.433594 257.730469 93.03125 Z M 223.9375 145.988281 " fill-opacity="1" fill-rule="evenodd"/></g><g clip-path="url(#cd85941f80)"><path fill="#024e80" d="M 195.886719 127.910156 C 198.292969 130.152344 199.730469 133.351562 199.730469 136.871094 C 199.730469 143.585938 194.277344 149.03125 187.550781 149.03125 C 180.824219 149.03125 175.210938 143.585938 175.210938 136.871094 C 175.210938 133.347656 176.808594 130.152344 179.214844 127.910156 L 179.214844 65.347656 C 168.160156 61.824219 160.308594 51.589844 160.308594 39.429688 C 160.316406 24.390625 172.496094 12.230469 187.558594 12.230469 C 202.621094 12.230469 214.800781 24.390625 214.800781 39.429688 C 214.800781 51.589844 206.789062 61.832031 195.894531 65.347656 L 195.894531 127.910156 Z M 187.558594 27.269531 C 194.285156 27.269531 199.738281 32.710938 199.738281 39.429688 C 199.738281 46.308594 194.285156 51.75 187.558594 51.75 C 180.828125 51.75 175.214844 46.308594 175.214844 39.429688 C 175.214844 32.710938 180.824219 27.269531 187.558594 27.269531 Z M 187.558594 27.269531 " fill-opacity="1" fill-rule="evenodd"/></g></svg>