<svg xmlns="http://www.w3.org/2000/svg" xmlns:xlink="http://www.w3.org/1999/xlink" width="500" zoomAndPan="magnify" viewBox="0 0 375 374.999991" height="500" preserveAspectRatio="xMidYMid meet" version="1.0"><rect x="-37.5" width="450" fill="#ffffff" y="-37.499999" height="449.999989" fill-opacity="1"/><rect x="-37.5" width="450" fill="#ffffff" y="-37.499999" height="449.999989" fill-opacity="1"/><rect x="-37.5" width="450" fill="#ffffff" y="-37.499999" height="449.999989" fill-opacity="1"/><path fill="#ffffff" d="M 329.449219 266.257812 C 328.292969 241.515625 305.222656 208.746094 297.617188 198.578125 L 313.480469 180.695312 L 274.914062 129.164062 L 265.390625 132.308594 C 262.554688 133.246094 259.765625 134.414062 257.066406 135.804688 C 256.523438 134.378906 255.9375 132.976562 255.316406 131.597656 C 268.800781 117.488281 276.1875 99.660156 276.1875 81.039062 C 276.1875 61.976562 268.394531 43.613281 254.253906 29.335938 C 254.253906 29.335938 265.167969 43.109375 254.058594 29.140625 C 242.953125 15.167969 217.925781 0.0234375 217.925781 0.0234375 L 231.335938 44.128906 L 231.484375 44.507812 C 235.941406 55.175781 234.578125 75.960938 224.601562 90.941406 C 223.15625 93.113281 221.542969 95.121094 219.792969 96.941406 C 209.296875 92.519531 197.1875 90.28125 183.742188 90.28125 C 172.636719 90.28125 162.460938 91.804688 153.4375 94.808594 C 152.410156 93.582031 151.441406 92.289062 150.542969 90.941406 C 138.929688 73.503906 141.476562 53.664062 144.03125 43.394531 C 147.363281 29.976562 150 24.980469 150.238281 24.546875 L 160.515625 8.476562 C 160.515625 8.476562 148.292969 10.359375 141.011719 14.28125 C 133.730469 18.207031 130.980469 17.726562 120.566406 29.6875 C 110.117188 41.683594 98.957031 61.472656 98.957031 81.035156 C 98.957031 97.382812 104.839844 113.5 115.589844 126.765625 C 114.144531 129.554688 112.878906 132.46875 111.800781 135.484375 C 109.292969 134.234375 106.71875 133.171875 104.097656 132.308594 L 94.574219 129.160156 L 56.007812 180.691406 L 71.789062 198.484375 C 59.054688 215.082031 41.746094 246.257812 40.0625 265.957031 C 37.53125 295.5 69.191406 310.125 70.542969 310.734375 L 84.734375 317.121094 L 95.296875 284.46875 C 97.058594 284.390625 98.933594 284.351562 100.847656 284.351562 C 109.671875 284.351562 119.207031 285.148438 126.363281 286.453125 C 127.53125 288.6875 128.695312 290.847656 129.832031 292.910156 C 130.941406 294.929688 132.035156 296.859375 133.097656 298.679688 L 114.179688 330.347656 L 124.3125 337.863281 C 125.527344 338.765625 154.488281 359.996094 183.742188 359.996094 C 212.714844 359.996094 243.488281 339.035156 244.785156 338.144531 L 255.539062 330.734375 L 236.394531 298.679688 C 237.453125 296.863281 238.546875 294.933594 239.660156 292.910156 C 240.800781 290.84375 241.960938 288.679688 243.125 286.457031 C 250.222656 285.171875 259.757812 284.394531 268.660156 284.394531 C 270.582031 284.394531 272.453125 284.429688 274.203125 284.503906 L 284.757812 317.121094 L 298.992188 310.714844 C 304.3125 308.347656 330.796875 295.074219 329.449219 266.257812 Z M 329.449219 266.257812 " fill-opacity="1" fill-rule="nonzero"/><path fill="#c83a53" d="M 222.636719 140.855469 L 222.5 140.28125 L 223.039062 140.035156 C 227.875 137.839844 232.453125 135.1875 236.652344 132.148438 L 237.289062 131.6875 L 237.847656 132.617188 C 237.953125 132.789062 238.058594 132.964844 238.164062 133.140625 C 239.199219 134.929688 240.167969 136.855469 241.039062 138.859375 C 245.011719 147.988281 245.859375 156.230469 246.039062 159.347656 L 246.054688 159.636719 L 245.871094 159.855469 C 240.027344 166.75 236.601562 173.671875 235.078125 177.1875 L 234.863281 177.6875 L 234.320312 177.613281 C 232.804688 177.40625 230.332031 177.078125 227.160156 176.695312 L 226.527344 176.621094 L 226.527344 175.984375 C 226.519531 171.449219 226.25 159.515625 223.84375 146.628906 C 223.480469 144.671875 223.074219 142.730469 222.636719 140.855469 Z M 247.699219 193.453125 L 247.1875 193.714844 C 240 197.382812 219.0625 205.910156 179.902344 205.910156 C 142.390625 205.910156 126.96875 197.683594 122.078125 194.144531 L 121.523438 193.746094 L 121.09375 194.277344 C 118.894531 197.011719 117.914062 198.984375 118.097656 200.304688 L 118.105469 200.363281 L 118.125 200.421875 C 118.570312 201.820312 123.234375 205.320312 137.695312 208.550781 C 150.835938 211.488281 167.1875 213.101562 183.738281 213.101562 C 200.292969 213.101562 216.921875 211.5 230.5625 208.59375 C 245.804688 205.34375 250.835938 201.804688 251.363281 200.390625 L 251.390625 200.316406 L 251.402344 200.234375 C 251.589844 198.898438 250.496094 196.824219 248.066406 193.894531 Z M 221.617188 176.066406 L 222.421875 176.152344 L 222.414062 175.34375 C 222.355469 170.101562 221.957031 159.609375 219.917969 148.207031 C 219.582031 146.324219 219.207031 144.472656 218.808594 142.699219 L 218.628906 141.890625 L 217.855469 142.179688 C 208.265625 145.769531 198.074219 147.589844 187.574219 147.589844 C 187.320312 147.589844 187.074219 147.585938 186.824219 147.582031 L 185.789062 147.570312 L 185.789062 173.722656 L 186.5 173.734375 C 199.214844 173.886719 212.613281 175.085938 221.617188 176.066406 Z M 84.253906 238.011719 C 79.746094 234.144531 76.402344 229.007812 74.394531 225.378906 L 73.785156 224.28125 L 73.144531 225.363281 C 69.484375 231.546875 66.128906 237.914062 63.445312 243.773438 L 63.328125 244.027344 L 63.414062 244.292969 C 64.007812 246.140625 65.316406 249.898438 67.398438 254.304688 C 70.578125 261.015625 75.679688 269.445312 81.941406 271.484375 L 82.628906 271.707031 L 92.054688 242.570312 L 91.402344 242.332031 C 88.964844 241.4375 86.558594 239.984375 84.253906 238.011719 Z M 134.15625 181.886719 L 134.007812 182.003906 C 130.816406 184.492188 127.574219 187.363281 124.882812 190.085938 L 124.277344 190.703125 L 124.992188 191.1875 C 129.695312 194.382812 144.464844 201.816406 179.902344 201.816406 C 216.085938 201.816406 236.699219 194.078125 243.878906 190.75 L 244.816406 190.3125 L 244.085938 189.585938 C 241.476562 186.988281 238.425781 184.296875 235.496094 182.011719 L 235.34375 181.894531 L 235.15625 181.867188 C 230.402344 181.191406 205.585938 177.808594 183.726562 177.808594 C 161.996094 177.808594 138.773438 181.183594 134.339844 181.859375 Z M 147.0625 176.054688 L 147.871094 175.964844 C 156.175781 175.03125 168.660156 173.882812 180.984375 173.730469 L 181.695312 173.722656 L 181.695312 147.394531 L 181.027344 147.34375 C 170.886719 146.597656 161.175781 144.148438 152.164062 140.0625 L 151.375 139.707031 L 151.167969 140.546875 C 150.589844 142.921875 150.058594 145.421875 149.597656 147.972656 C 147.539062 159.398438 147.128906 169.960938 147.070312 175.242188 Z M 212.460938 115.714844 L 212.804688 116.226562 L 213.363281 115.964844 C 214.46875 115.441406 215.585938 114.867188 216.683594 114.246094 L 217.871094 113.574219 L 216.648438 112.972656 C 214.53125 111.933594 212.257812 110.992188 209.886719 110.183594 L 207.339844 109.3125 L 209.113281 111.335938 C 210.277344 112.671875 211.40625 114.144531 212.460938 115.714844 Z M 162.40625 115.261719 L 161.824219 115.988281 L 162.675781 116.367188 C 168.210938 118.851562 174.34375 120.425781 180.90625 121.039062 L 181.695312 121.113281 L 181.695312 106.292969 L 180.953125 106.3125 C 178.039062 106.390625 175.214844 106.589844 172.5625 106.90625 L 171.570312 107.078125 L 171.707031 107.355469 C 168.289062 109.167969 165.164062 111.824219 162.40625 115.261719 Z M 187.570312 121.351562 C 194.9375 121.351562 201.824219 120.261719 208.046875 118.121094 L 208.960938 117.808594 L 208.398438 117.019531 C 205.289062 112.660156 201.660156 109.382812 197.613281 107.28125 L 197.507812 107.226562 L 197.386719 107.210938 C 193.972656 106.707031 190.320312 106.40625 186.53125 106.304688 L 185.792969 106.285156 L 185.792969 121.324219 L 186.886719 121.339844 C 187.113281 121.347656 187.339844 121.351562 187.570312 121.351562 Z M 157.613281 113.757812 L 158.167969 114.082031 L 158.554688 113.570312 C 159.382812 112.480469 160.226562 111.464844 161.066406 110.558594 L 162.847656 108.625 L 160.332031 109.378906 C 158.769531 109.847656 157.1875 110.398438 155.488281 111.070312 L 154.207031 111.578125 L 155.355469 112.339844 C 156.089844 112.828125 156.851562 113.304688 157.613281 113.757812 Z M 74.1875 271.445312 C 68.328125 266.183594 64.105469 257.582031 61.589844 251.292969 L 60.914062 249.59375 L 60.25 251.300781 C 57.789062 257.664062 56.355469 263.054688 55.988281 267.320312 C 55.703125 270.644531 56.203125 273.9375 57.464844 277.117188 C 60.976562 285.953125 69.511719 291.902344 74.285156 294.664062 L 75.054688 295.109375 L 81.371094 275.59375 L 80.6875 275.371094 C 78.472656 274.652344 76.285156 273.328125 74.1875 271.445312 Z M 89.769531 202.003906 C 86.191406 205.691406 81.367188 212.183594 76.535156 219.816406 L 76.324219 220.152344 L 76.496094 220.511719 C 77.050781 221.671875 77.976562 223.484375 79.242188 225.546875 C 82.078125 230.183594 86.703125 236.175781 92.605469 238.417969 L 93.3125 238.6875 L 97.398438 226.054688 L 97.253906 225.683594 L 97.550781 225.578125 L 101.339844 213.878906 L 90.3125 201.445312 Z M 134.402344 177.167969 L 134.621094 177.675781 L 135.167969 177.59375 C 136.703125 177.371094 139.1875 177.019531 142.324219 176.625 L 142.953125 176.546875 L 142.957031 175.914062 C 142.964844 170.097656 143.347656 158.445312 145.800781 145.765625 C 146.292969 143.230469 146.851562 140.742188 147.464844 138.371094 L 147.605469 137.824219 L 147.109375 137.554688 C 142.410156 135.015625 138.007812 132.019531 134.035156 128.65625 L 133.421875 128.140625 L 132.972656 128.800781 C 131.632812 130.773438 130.414062 132.878906 129.351562 135.058594 C 124.09375 145.816406 123.472656 156.355469 123.410156 159.328125 L 123.40625 159.601562 L 123.582031 159.8125 C 129.433594 166.707031 132.875 173.644531 134.402344 177.167969 Z M 313.5 267.320312 C 313.179688 263.578125 312.035156 258.957031 310.09375 253.585938 L 309.476562 251.871094 L 308.757812 253.542969 C 306.105469 259.703125 301.6875 268.007812 295.707031 272.605469 C 293.539062 274.269531 291.292969 275.34375 289.03125 275.789062 L 288.234375 275.945312 L 294.433594 295.109375 L 295.207031 294.664062 C 299.1875 292.359375 306.484375 287.40625 310.582031 280.128906 C 312.894531 276.015625 313.875 271.707031 313.5 267.320312 Z M 108.554688 164.175781 C 115.535156 170.296875 120.757812 176.910156 124.078125 183.832031 L 124.496094 184.707031 L 125.210938 184.054688 C 126.835938 182.574219 128.585938 181.085938 130.410156 179.625 L 130.839844 179.28125 L 130.617188 178.773438 C 129.910156 177.175781 128.691406 174.640625 126.902344 171.636719 C 122.152344 163.660156 113.800781 153.109375 100.976562 148.164062 L 100.46875 147.96875 L 95.453125 154.671875 L 96.132812 155.082031 C 99.125 156.882812 103.707031 159.921875 108.554688 164.175781 Z M 121.035156 188.128906 C 117.09375 192.296875 114.785156 195.859375 114.164062 198.710938 L 113.738281 200.667969 L 112.820312 198.890625 C 109.484375 192.460938 104.738281 186.214844 98.722656 180.316406 C 93.242188 174.960938 88 171.179688 85.367188 169.410156 L 84.738281 168.984375 L 92.976562 157.976562 L 93.53125 158.308594 C 97.65625 160.769531 105.597656 166.0625 112.453125 173.859375 C 113.460938 175.003906 114.394531 176.148438 115.246094 177.269531 C 116.726562 179.230469 118.050781 181.261719 119.191406 183.3125 C 119.933594 184.652344 120.601562 186.019531 121.175781 187.359375 L 121.355469 187.789062 Z M 112.898438 188.421875 C 112.898438 188.421875 112.847656 187.933594 112.6875 187.078125 C 112.601562 186.652344 112.507812 186.132812 112.371094 185.535156 C 112.214844 184.953125 111.976562 184.320312 111.730469 183.613281 C 111.601562 183.261719 111.464844 182.894531 111.320312 182.519531 C 111.175781 182.230469 111.03125 181.929688 110.882812 181.628906 C 110.84375 181.554688 110.808594 181.484375 110.773438 181.402344 C 110.390625 180.632812 109.988281 179.828125 109.464844 179.058594 C 108.960938 178.265625 108.433594 177.453125 107.800781 176.703125 C 107.496094 176.3125 107.195312 175.925781 106.871094 175.542969 L 105.855469 174.457031 C 105.179688 173.722656 104.445312 173.050781 103.710938 172.410156 C 103.351562 172.082031 102.96875 171.777344 102.585938 171.488281 C 102.207031 171.203125 101.832031 170.914062 101.457031 170.640625 C 100.6875 170.121094 99.953125 169.609375 99.210938 169.195312 C 98.46875 168.769531 97.761719 168.386719 97.085938 168.078125 C 95.753906 167.4375 94.574219 167.039062 93.738281 166.804688 C 92.902344 166.558594 92.40625 166.492188 92.40625 166.492188 C 92.40625 166.492188 93.839844 167.796875 95.984375 169.746094 C 96.519531 170.214844 97.078125 170.742188 97.667969 171.289062 C 98.273438 171.820312 98.871094 172.425781 99.519531 173.003906 C 100.132812 173.628906 100.800781 174.226562 101.433594 174.882812 C 102.070312 175.527344 102.746094 176.15625 103.359375 176.847656 L 104.324219 177.839844 C 104.617188 178.1875 104.925781 178.515625 105.230469 178.855469 C 105.523438 179.199219 105.847656 179.515625 106.128906 179.855469 C 106.390625 180.171875 106.648438 180.476562 106.90625 180.777344 C 106.929688 180.804688 106.957031 180.835938 106.980469 180.863281 C 107.5625 181.503906 108.074219 182.175781 108.570312 182.792969 C 108.828125 183.101562 109.074219 183.40625 109.320312 183.699219 C 109.542969 184.003906 109.765625 184.296875 109.972656 184.578125 C 110.40625 185.148438 110.808594 185.660156 111.164062 186.121094 C 111.488281 186.601562 111.804688 187.011719 112.054688 187.351562 C 112.558594 188.035156 112.898438 188.421875 112.898438 188.421875 Z M 110.261719 202.972656 L 110.472656 203.425781 L 103.710938 210.390625 L 103.171875 209.769531 L 76.617188 179.835938 L 82.269531 172.28125 L 82.839844 172.664062 C 84.925781 174.066406 88.179688 176.414062 91.867188 179.625 C 97.667969 184.664062 105.5625 192.816406 110.261719 202.972656 Z M 104.242188 199.703125 C 104.242188 199.703125 104.171875 199.257812 103.96875 198.511719 C 103.769531 197.761719 103.429688 196.710938 102.917969 195.492188 C 102.40625 194.285156 101.722656 192.910156 100.875 191.503906 C 100.449219 190.804688 99.988281 190.09375 99.476562 189.394531 C 98.980469 188.691406 98.425781 188.007812 97.863281 187.320312 C 97.28125 186.660156 96.691406 185.996094 96.058594 185.390625 C 95.746094 185.089844 95.429688 184.789062 95.097656 184.507812 C 94.78125 184.226562 94.457031 183.945312 94.121094 183.695312 C 93.464844 183.167969 92.789062 182.707031 92.125 182.296875 C 91.464844 181.894531 90.808594 181.554688 90.183594 181.28125 C 89.5625 181.015625 88.980469 180.804688 88.445312 180.667969 C 88.441406 180.667969 88.433594 180.664062 88.425781 180.664062 C 87.898438 180.511719 87.402344 180.4375 87.015625 180.382812 C 86.625 180.308594 86.316406 180.351562 86.105469 180.332031 C 85.898438 180.332031 85.78125 180.332031 85.78125 180.332031 C 85.78125 180.332031 85.875 180.394531 86.050781 180.519531 C 86.207031 180.632812 86.46875 180.792969 86.753906 181.007812 C 86.761719 181.015625 86.777344 181.023438 86.785156 181.03125 C 87.085938 181.253906 87.433594 181.519531 87.828125 181.851562 C 88.027344 182 88.238281 182.175781 88.445312 182.367188 C 88.65625 182.554688 88.886719 182.742188 89.109375 182.960938 C 90.015625 183.792969 91.011719 184.816406 92.046875 185.941406 C 93.082031 187.070312 94.164062 188.300781 95.230469 189.5625 C 97.359375 192.082031 99.5 194.664062 101.21875 196.566406 C 102.078125 197.523438 102.824219 198.308594 103.371094 198.855469 C 103.90625 199.402344 104.242188 199.703125 104.242188 199.703125 Z M 238.875 178.773438 L 238.652344 179.28125 L 239.085938 179.625 C 240.671875 180.898438 243.082031 182.898438 245.53125 185.214844 L 246.269531 185.910156 L 246.683594 184.984375 C 249.800781 178.011719 254.828125 171.339844 261.632812 165.148438 C 266.339844 160.871094 270.917969 157.71875 273.933594 155.828125 L 274.597656 155.414062 L 269.023438 147.964844 L 268.515625 148.164062 C 252.949219 154.167969 244.011719 168.332031 240.066406 176.242188 C 239.628906 177.128906 239.226562 177.980469 238.875 178.773438 Z M 257.621094 200.589844 L 257.175781 201.519531 L 255.492188 199.777344 L 255.460938 199.53125 C 255.1875 196.867188 253.25 193.484375 249.6875 189.472656 L 249.398438 189.152344 L 249.550781 188.738281 C 250.730469 185.652344 252.375 182.5625 254.417969 179.554688 C 261.28125 169.460938 271.207031 162.390625 276.515625 159.070312 L 277.074219 158.726562 L 285.355469 169.792969 L 284.742188 170.214844 C 282.273438 171.9375 279.804688 173.851562 277.394531 175.910156 C 271.25 181.144531 262.835938 189.675781 257.621094 200.589844 Z M 270.941406 172.441406 C 271.53125 171.894531 272.09375 171.367188 272.625 170.898438 C 274.773438 168.949219 276.203125 167.652344 276.203125 167.652344 C 276.203125 167.652344 275.699219 167.71875 274.871094 167.957031 C 274.039062 168.191406 272.855469 168.597656 271.523438 169.238281 C 270.847656 169.546875 270.136719 169.921875 269.402344 170.34375 C 268.660156 170.761719 267.925781 171.273438 267.15625 171.792969 C 266.78125 172.066406 266.40625 172.355469 266.023438 172.648438 C 265.640625 172.9375 265.261719 173.234375 264.902344 173.5625 C 264.167969 174.210938 263.433594 174.875 262.753906 175.609375 L 261.738281 176.703125 C 261.417969 177.078125 261.113281 177.472656 260.8125 177.855469 C 260.34375 178.410156 259.941406 179 259.558594 179.589844 C 259.421875 179.796875 259.277344 180 259.148438 180.207031 C 258.621094 180.980469 258.21875 181.792969 257.835938 182.554688 C 257.652344 182.9375 257.46875 183.3125 257.289062 183.679688 C 257.148438 184.054688 257.011719 184.414062 256.878906 184.765625 C 256.636719 185.472656 256.398438 186.113281 256.238281 186.695312 C 256.101562 187.285156 256.007812 187.804688 255.921875 188.234375 C 255.765625 189.085938 255.714844 189.574219 255.714844 189.574219 C 255.714844 189.574219 256.050781 189.195312 256.554688 188.503906 C 256.808594 188.164062 257.117188 187.753906 257.449219 187.269531 C 257.800781 186.8125 258.203125 186.292969 258.636719 185.730469 C 258.847656 185.449219 259.0625 185.15625 259.292969 184.851562 C 259.53125 184.558594 259.78125 184.261719 260.035156 183.945312 C 260.539062 183.324219 261.042969 182.65625 261.632812 182.015625 C 261.914062 181.691406 262.195312 181.355469 262.472656 181.007812 C 262.761719 180.667969 263.085938 180.351562 263.382812 180.007812 C 263.683594 179.675781 263.992188 179.335938 264.289062 178.992188 L 264.519531 178.753906 L 265.253906 178 C 265.867188 177.316406 266.535156 176.6875 267.175781 176.03125 C 267.808594 175.378906 268.480469 174.789062 269.089844 174.160156 C 269.738281 173.585938 270.335938 172.972656 270.941406 172.441406 Z M 287.824219 173.082031 L 287.253906 173.484375 C 281.40625 177.578125 267.09375 188.769531 260.453125 204.261719 L 260.261719 204.703125 L 265.777344 210.382812 L 292.875 179.835938 Z M 302.21875 257.621094 C 304.003906 254.285156 305.734375 250.367188 307.089844 246.589844 L 307.1875 246.320312 L 307.070312 246.058594 C 304.4375 240.054688 301.042969 233.433594 297.257812 226.914062 L 296.640625 225.851562 L 296.015625 226.90625 C 293.511719 231.128906 289.367188 236.894531 283.851562 240.367188 C 282.050781 241.503906 280.1875 242.332031 278.316406 242.832031 L 277.582031 243.027344 L 286.941406 271.945312 L 287.527344 271.878906 C 293.753906 271.160156 298.953125 263.730469 302.21875 257.621094 Z M 289.300781 229.578125 C 291.402344 226.800781 293.007812 223.988281 293.980469 222.125 L 294.167969 221.761719 L 293.953125 221.410156 C 288.765625 213.050781 283.578125 205.976562 279.71875 202.003906 L 279.179688 201.445312 L 268.152344 213.878906 L 276.3125 239.105469 L 276.960938 238.945312 C 281.230469 237.914062 285.382812 234.761719 289.300781 229.578125 Z M 220.011719 302.417969 L 234.113281 326.035156 L 233.523438 326.410156 C 226.964844 330.539062 204.003906 344.011719 183.742188 344.011719 C 163.5625 344.011719 142.027344 330.585938 135.914062 326.464844 L 135.347656 326.089844 L 149.480469 302.417969 L 150.121094 303.320312 C 156.0625 311.640625 158.601562 311.960938 159.820312 312.109375 C 161.058594 312.269531 162.273438 312.339844 163.554688 312.339844 C 166.796875 312.339844 169.8125 311.851562 173 311.324219 C 176.3125 310.785156 179.742188 310.230469 183.652344 310.230469 C 187.507812 310.230469 191.347656 310.777344 195.054688 311.304688 C 198.785156 311.835938 202.296875 312.339844 205.8125 312.339844 C 207.179688 312.339844 208.441406 312.261719 209.671875 312.109375 C 210.886719 311.960938 213.429688 311.640625 219.367188 303.3125 Z M 198.929688 318.726562 C 187.507812 310.425781 170.554688 318.726562 170.554688 318.726562 L 184.773438 337.640625 Z M 237.339844 211.945312 C 239.953125 211.265625 242.207031 210.589844 244.136719 209.921875 C 243.4375 222.46875 241.53125 249.46875 239.234375 255.703125 C 238.832031 256.789062 238.117188 258.472656 237.179688 260.570312 C 235.792969 263.679688 233.890625 267.695312 231.722656 272.039062 C 231.617188 272.074219 231.5 272.109375 231.394531 272.140625 L 231.507812 272.484375 C 229.558594 276.386719 227.398438 280.539062 225.207031 284.527344 C 213.285156 306.222656 209.222656 307.300781 209.074219 307.328125 C 204.925781 307.847656 200.460938 307.214844 195.738281 306.539062 C 191.867188 305.984375 187.855469 305.414062 183.652344 305.414062 C 179.351562 305.414062 175.730469 306.003906 172.230469 306.574219 C 168.070312 307.25 164.476562 307.832031 160.429688 307.335938 C 160.265625 307.300781 156.203125 306.222656 144.28125 284.527344 C 139.558594 275.933594 134.992188 266.566406 132.308594 260.578125 C 131.371094 258.480469 130.667969 256.789062 130.257812 255.703125 C 127.96875 249.496094 126.066406 222.714844 125.359375 210.09375 C 127.375 210.8125 129.644531 211.503906 132.164062 212.160156 L 132.90625 225.847656 C 132.90625 225.847656 145.238281 235.449219 152.757812 235.765625 C 159.589844 236.054688 172.664062 227.078125 176.285156 217.8125 C 178.761719 217.882812 181.246094 217.917969 183.742188 217.917969 C 186.875 217.917969 190.03125 217.863281 193.175781 217.746094 C 196.761719 227.035156 209.886719 236.054688 216.734375 235.765625 C 224.25 235.449219 236.582031 225.847656 236.582031 225.847656 Z M 160.5625 238.746094 C 160.5625 238.746094 159.976562 238.753906 159.035156 238.820312 C 158.566406 238.855469 158.011719 238.921875 157.394531 239 C 157.234375 239.019531 157.074219 239.042969 156.917969 239.0625 C 156.75 239.085938 156.578125 239.085938 156.398438 239.09375 C 156.054688 239.113281 155.695312 239.144531 155.3125 239.164062 C 154.945312 239.203125 154.5625 239.238281 154.160156 239.273438 C 153.777344 239.332031 153.367188 239.34375 152.941406 239.34375 C 152.527344 239.34375 152.109375 239.382812 151.675781 239.394531 C 151.242188 239.402344 150.820312 239.488281 150.371094 239.445312 C 149.488281 239.394531 148.59375 239.476562 147.679688 239.410156 C 146.773438 239.316406 145.851562 239.382812 144.9375 239.214844 C 144.484375 239.171875 144.023438 239.128906 143.5625 239.085938 C 143.109375 239.015625 142.65625 238.941406 142.199219 238.878906 C 141.292969 238.777344 140.414062 238.546875 139.535156 238.410156 C 139.097656 238.34375 138.6875 238.199219 138.253906 238.121094 C 137.835938 238.027344 137.414062 237.949219 137.015625 237.839844 C 136.210938 237.632812 135.425781 237.453125 134.714844 237.234375 C 133.980469 237.0625 133.324219 236.839844 132.710938 236.679688 C 132.097656 236.5 131.566406 236.34375 131.136719 236.207031 C 130.21875 235.933594 129.695312 235.773438 129.695312 235.773438 C 129.695312 235.773438 129.746094 235.910156 129.875 236.132812 C 130.003906 236.363281 130.191406 236.703125 130.472656 237.097656 C 130.746094 237.503906 131.113281 237.957031 131.558594 238.46875 C 132.019531 238.949219 132.546875 239.519531 133.1875 240.035156 C 133.503906 240.300781 133.835938 240.589844 134.195312 240.851562 C 134.5625 241.117188 134.949219 241.367188 135.347656 241.632812 C 135.734375 241.921875 136.183594 242.125 136.621094 242.367188 C 137.066406 242.605469 137.519531 242.859375 138.011719 243.058594 C 138.492188 243.261719 138.988281 243.449219 139.5 243.644531 C 140.003906 243.851562 140.539062 243.980469 141.078125 244.117188 C 141.617188 244.25 142.15625 244.40625 142.710938 244.507812 C 143.273438 244.578125 143.835938 244.652344 144.398438 244.722656 C 145.527344 244.875 146.664062 244.808594 147.78125 244.78125 C 148.335938 244.789062 148.882812 244.6875 149.421875 244.59375 C 149.960938 244.507812 150.488281 244.421875 151.007812 244.3125 C 151.523438 244.226562 152.023438 244.0625 152.496094 243.894531 C 152.980469 243.730469 153.445312 243.578125 153.894531 243.40625 C 154.800781 243.109375 155.578125 242.605469 156.304688 242.21875 C 157.019531 241.785156 157.679688 241.449219 158.191406 240.980469 C 158.710938 240.554688 159.15625 240.164062 159.503906 239.835938 C 160.199219 239.171875 160.5625 238.746094 160.5625 238.746094 Z M 238.355469 236.207031 C 237.914062 236.335938 237.382812 236.496094 236.769531 236.675781 C 236.160156 236.839844 235.503906 237.054688 234.769531 237.234375 C 234.058594 237.453125 233.273438 237.625 232.464844 237.832031 C 232.070312 237.949219 231.644531 238.027344 231.226562 238.121094 C 230.796875 238.191406 230.386719 238.335938 229.945312 238.410156 C 229.066406 238.546875 228.1875 238.769531 227.28125 238.871094 C 226.828125 238.941406 226.375 239.015625 225.921875 239.085938 C 225.46875 239.128906 225.007812 239.164062 224.546875 239.207031 C 223.632812 239.375 222.710938 239.308594 221.800781 239.410156 C 220.894531 239.476562 219.996094 239.394531 219.109375 239.4375 C 218.664062 239.480469 218.238281 239.402344 217.804688 239.394531 C 217.375 239.375 216.957031 239.34375 216.539062 239.339844 C 216.121094 239.34375 215.710938 239.332031 215.324219 239.273438 C 214.925781 239.238281 214.539062 239.203125 214.171875 239.164062 C 213.789062 239.136719 213.429688 239.113281 213.082031 239.09375 C 212.910156 239.078125 212.730469 239.078125 212.566406 239.066406 C 212.40625 239.042969 212.25 239.019531 212.089844 239 C 211.472656 238.914062 210.917969 238.855469 210.449219 238.820312 C 209.503906 238.746094 208.921875 238.746094 208.921875 238.746094 C 208.921875 238.746094 209.28125 239.164062 209.980469 239.828125 C 210.332031 240.160156 210.773438 240.546875 211.289062 240.980469 C 211.800781 241.441406 212.464844 241.777344 213.175781 242.210938 C 213.90625 242.605469 214.683594 243.109375 215.589844 243.398438 C 216.035156 243.570312 216.503906 243.722656 216.984375 243.886719 C 217.46875 244.054688 217.957031 244.226562 218.476562 244.3125 C 218.996094 244.421875 219.527344 244.5 220.058594 244.59375 C 220.601562 244.6875 221.148438 244.789062 221.707031 244.773438 C 222.816406 244.808594 223.960938 244.875 225.085938 244.714844 C 225.648438 244.644531 226.207031 244.570312 226.769531 244.5 C 227.324219 244.40625 227.863281 244.242188 228.40625 244.117188 C 228.945312 243.980469 229.476562 243.851562 229.980469 243.636719 C 230.492188 243.449219 230.996094 243.261719 231.480469 243.054688 C 231.960938 242.859375 232.414062 242.605469 232.863281 242.367188 C 233.300781 242.125 233.746094 241.921875 234.136719 241.632812 C 234.53125 241.367188 234.921875 241.117188 235.289062 240.851562 C 235.648438 240.589844 235.980469 240.304688 236.296875 240.035156 C 236.9375 239.519531 237.460938 238.949219 237.921875 238.46875 C 238.371094 237.957031 238.738281 237.503906 239.011719 237.097656 C 239.289062 236.703125 239.476562 236.359375 239.609375 236.132812 C 239.738281 235.902344 239.789062 235.773438 239.789062 235.773438 C 239.789062 235.773438 239.269531 235.933594 238.355469 236.207031 Z M 238.355469 236.207031 " fill-opacity="1" fill-rule="nonzero"/><path fill="#eaaa2e" d="M 250.039062 50.464844 C 251.921875 65.277344 248.9375 84.535156 238.503906 100.203125 C 230.617188 112.046875 215.378906 126.164062 187.574219 126.164062 C 159.765625 126.164062 144.527344 112.046875 136.640625 100.203125 C 126.207031 84.535156 123.222656 65.277344 125.109375 50.464844 C 118.960938 59.722656 115.664062 70.261719 115.664062 81.039062 C 115.664062 115.078125 147.921875 142.773438 187.574219 142.773438 C 227.226562 142.773438 259.484375 115.078125 259.484375 81.039062 C 259.484375 70.261719 256.183594 59.722656 250.039062 50.464844 Z M 252.710938 77.492188 C 252.652344 78.113281 252.589844 78.773438 252.523438 79.46875 C 252.234375 82.253906 251.742188 85.644531 250.679688 89.421875 C 249.648438 93.203125 248.128906 97.394531 245.902344 101.710938 C 243.6875 106.023438 240.742188 110.4375 237.066406 114.636719 C 235.199219 116.710938 233.210938 118.789062 230.980469 120.699219 C 229.902344 121.699219 228.707031 122.585938 227.539062 123.523438 C 226.316406 124.390625 225.117188 125.320312 223.820312 126.125 C 221.277344 127.824219 218.539062 129.3125 215.703125 130.667969 C 212.871094 132.050781 209.863281 133.132812 206.792969 134.082031 C 203.71875 135.03125 200.535156 135.679688 197.324219 136.191406 L 194.902344 136.503906 C 194.097656 136.613281 193.261719 136.644531 192.441406 136.71875 C 190.746094 136.882812 189.261719 136.867188 187.574219 136.925781 C 184.308594 136.871094 181.042969 136.667969 177.824219 136.1875 C 174.613281 135.675781 171.429688 135.027344 168.355469 134.078125 C 165.285156 133.132812 162.277344 132.042969 159.449219 130.664062 C 156.609375 129.308594 153.871094 127.820312 151.332031 126.121094 C 150.03125 125.320312 148.832031 124.386719 147.609375 123.523438 C 146.441406 122.585938 145.25 121.695312 144.171875 120.695312 C 141.941406 118.785156 139.949219 116.707031 138.085938 114.636719 C 134.40625 110.433594 131.464844 106.019531 129.25 101.707031 C 127.019531 97.394531 125.5 93.203125 124.46875 89.421875 C 123.40625 85.644531 122.917969 82.253906 122.625 79.46875 C 122.558594 78.773438 122.496094 78.113281 122.4375 77.492188 C 122.394531 76.871094 122.386719 76.28125 122.363281 75.738281 C 122.320312 74.652344 122.289062 73.730469 122.320312 72.984375 C 122.339844 71.492188 122.351562 70.695312 122.351562 70.695312 C 122.351562 70.695312 122.40625 71.492188 122.503906 72.980469 C 122.535156 73.726562 122.640625 74.644531 122.773438 75.710938 C 122.839844 76.246094 122.898438 76.824219 122.984375 77.433594 C 123.085938 78.042969 123.191406 78.691406 123.300781 79.375 C 123.773438 82.105469 124.496094 85.398438 125.726562 89.039062 C 126.949219 92.679688 128.660156 96.671875 130.984375 100.761719 C 133.320312 104.84375 136.347656 108.96875 139.988281 112.90625 C 141.84375 114.839844 143.816406 116.773438 146.007812 118.535156 C 147.070312 119.453125 148.238281 120.269531 149.367188 121.148438 C 150.554688 121.953125 151.710938 122.824219 152.96875 123.5625 C 157.894531 126.691406 163.449219 129.148438 169.300781 130.882812 C 172.226562 131.765625 175.253906 132.359375 178.308594 132.828125 C 181.367188 133.265625 184.46875 133.4375 187.570312 133.46875 C 189.0625 133.414062 190.769531 133.441406 192.242188 133.292969 C 193.007812 133.226562 193.761719 133.207031 194.53125 133.105469 L 196.835938 132.824219 C 199.886719 132.359375 202.914062 131.761719 205.839844 130.878906 C 211.691406 129.136719 217.246094 126.6875 222.171875 123.5625 C 223.429688 122.820312 224.585938 121.949219 225.773438 121.148438 C 226.902344 120.265625 228.066406 119.449219 229.132812 118.53125 C 231.324219 116.769531 233.296875 114.839844 235.152344 112.902344 C 238.792969 108.964844 241.816406 104.839844 244.15625 100.761719 C 246.480469 96.671875 248.1875 92.679688 249.410156 89.039062 C 250.644531 85.398438 251.367188 82.105469 251.839844 79.375 C 251.953125 78.691406 252.058594 78.042969 252.15625 77.433594 C 252.246094 76.824219 252.300781 76.246094 252.371094 75.710938 C 252.503906 74.640625 252.609375 73.726562 252.640625 72.980469 C 252.738281 71.492188 252.792969 70.695312 252.792969 70.695312 C 252.792969 70.695312 252.804688 71.492188 252.828125 72.988281 C 252.859375 73.738281 252.828125 74.65625 252.78125 75.742188 C 252.757812 76.285156 252.753906 76.871094 252.710938 77.492188 Z M 252.710938 77.492188 " fill-opacity="1" fill-rule="nonzero"/><path fill="#2e3182" d="M 111.042969 223.359375 C 114.414062 223.359375 117.597656 223.8125 120.511719 224.707031 L 121.519531 225.015625 L 121.441406 223.964844 C 120.925781 217 120.589844 211.042969 120.457031 208.542969 L 122.75 208.429688 L 120.355469 207.203125 C 118.613281 206.3125 117.210938 205.378906 116.183594 204.425781 L 115.667969 203.949219 L 105.449219 214.480469 L 102.273438 224.292969 L 103.460938 224.074219 C 106.03125 223.597656 108.582031 223.359375 111.042969 223.359375 Z M 111.042969 223.359375 " fill-opacity="1" fill-rule="nonzero"/><path fill="#2e3182" d="M 258.632812 223.355469 C 261.027344 223.355469 263.511719 223.585938 266.019531 224.035156 L 267.203125 224.246094 L 264.042969 214.476562 L 253.855469 203.980469 L 253.339844 204.433594 C 252.28125 205.367188 250.808594 206.292969 248.964844 207.183594 L 249.097656 207.824219 L 249.070312 207.824219 C 249.007812 209.097656 248.648438 215.863281 248.046875 224.023438 L 247.96875 225.082031 L 248.980469 224.765625 C 251.941406 223.832031 255.191406 223.355469 258.632812 223.355469 Z M 258.632812 223.355469 " fill-opacity="1" fill-rule="nonzero"/><path fill="#2e3182" d="M 112.902344 249.234375 C 113.882812 249.234375 114.855469 249.257812 115.792969 249.304688 C 118.441406 249.441406 120.921875 249.769531 123.164062 250.277344 L 124.195312 250.511719 L 124.035156 249.46875 C 123.300781 244.652344 122.585938 238.109375 121.914062 230.011719 L 121.878906 229.578125 L 121.476562 229.410156 C 118.414062 228.125 114.921875 227.472656 111.085938 227.472656 C 107.078125 227.472656 103.480469 228.1875 101.167969 228.789062 L 100.785156 228.890625 L 93.382812 251.773438 L 94.621094 251.488281 C 99.0625 250.460938 105.84375 249.234375 112.902344 249.234375 Z M 112.902344 249.234375 " fill-opacity="1" fill-rule="nonzero"/><path fill="#2e3182" d="M 256.785156 249.230469 C 257.597656 249.230469 258.410156 249.25 259.214844 249.277344 C 265.371094 249.515625 271.117188 250.585938 274.855469 251.441406 L 276.09375 251.722656 L 268.6875 228.832031 L 268.300781 228.734375 C 266.035156 228.15625 262.511719 227.46875 258.59375 227.46875 C 254.675781 227.46875 251.113281 228.148438 248.003906 229.496094 L 247.605469 229.664062 L 247.570312 230.09375 C 246.898438 238.179688 246.183594 244.714844 245.449219 249.515625 L 245.289062 250.570312 L 246.324219 250.328125 C 249.433594 249.601562 252.953125 249.230469 256.785156 249.230469 Z M 256.785156 249.230469 " fill-opacity="1" fill-rule="nonzero"/><path fill="#2e3182" d="M 277.59375 256.359375 L 277.214844 256.257812 C 273.941406 255.378906 265.390625 253.332031 256.679688 253.332031 C 256 253.332031 255.320312 253.34375 254.644531 253.371094 C 250.921875 253.515625 247.601562 254.066406 244.773438 255.015625 L 244.398438 255.140625 L 244.300781 255.519531 C 244.113281 256.257812 243.929688 256.878906 243.746094 257.367188 C 242.859375 259.773438 240.699219 264.601562 238.109375 269.96875 L 237.484375 271.265625 L 238.898438 270.988281 C 240.332031 270.703125 241.898438 270.433594 243.546875 270.183594 C 251.023438 269.054688 260.15625 268.402344 268.597656 268.402344 C 273 268.402344 277.148438 268.582031 280.597656 268.917969 L 281.691406 269.023438 Z M 277.59375 256.359375 " fill-opacity="1" fill-rule="nonzero"/><path fill="#2e3182" d="M 125.742188 257.367188 C 125.550781 256.851562 125.359375 256.207031 125.171875 255.449219 L 125.074219 255.066406 L 124.695312 254.941406 C 123.320312 254.492188 121.816406 254.132812 120.226562 253.875 C 118.015625 253.507812 115.574219 253.324219 112.976562 253.324219 C 104.152344 253.324219 95.546875 255.414062 92.257812 256.3125 L 91.882812 256.414062 L 87.804688 269.015625 L 88.902344 268.902344 C 92.441406 268.542969 96.492188 268.363281 100.933594 268.363281 C 109.964844 268.363281 119.699219 269.125 127.652344 270.457031 C 128.660156 270.625 129.644531 270.804688 130.597656 270.992188 L 132.011719 271.273438 L 131.382812 269.972656 C 128.792969 264.609375 126.632812 259.78125 125.742188 257.367188 Z M 125.742188 257.367188 " fill-opacity="1" fill-rule="nonzero"/><path fill="#2e3182" d="M 183.742188 184.589844 C 181.683594 184.589844 180.007812 186.265625 180.007812 188.324219 C 180.007812 190.382812 181.683594 192.058594 183.742188 192.058594 C 185.800781 192.058594 187.476562 190.382812 187.476562 188.324219 C 187.476562 187.328125 187.085938 186.390625 186.382812 185.6875 C 185.675781 184.980469 184.738281 184.589844 183.742188 184.589844 Z M 183.742188 184.589844 " fill-opacity="1" fill-rule="nonzero"/><path fill="#310505" d="M 111.910156 174.335938 C 112.859375 175.414062 113.785156 176.535156 114.671875 177.707031 C 113.710938 176.621094 112.800781 175.492188 111.910156 174.335938 Z M 124.726562 183.519531 C 126.660156 181.761719 128.503906 180.226562 129.957031 179.0625 C 129.253906 177.46875 128.042969 174.957031 126.285156 172.003906 C 121.136719 168.085938 115.191406 165.046875 109.03125 163.632812 C 114.753906 168.652344 120.800781 175.339844 124.726562 183.519531 Z M 120.511719 187.636719 C 119.929688 186.269531 119.273438 184.941406 118.558594 183.65625 C 116.035156 182.949219 113.472656 182.242188 110.886719 181.628906 C 111.03125 181.929688 111.179688 182.234375 111.320312 182.523438 C 111.46875 182.898438 111.605469 183.261719 111.730469 183.613281 C 111.980469 184.320312 112.210938 184.957031 112.371094 185.539062 C 112.511719 186.132812 112.605469 186.65625 112.6875 187.078125 C 112.847656 187.933594 112.894531 188.421875 112.894531 188.421875 C 112.894531 188.421875 112.5625 188.035156 112.054688 187.351562 C 111.800781 187.007812 111.492188 186.597656 111.167969 186.117188 C 110.8125 185.660156 110.410156 185.144531 109.972656 184.578125 C 109.765625 184.296875 109.546875 184.003906 109.320312 183.699219 C 109.082031 183.40625 108.832031 183.105469 108.574219 182.792969 C 108.074219 182.171875 107.566406 181.507812 106.984375 180.863281 C 106.957031 180.832031 106.933594 180.804688 106.910156 180.777344 C 104.359375 180.289062 101.792969 179.933594 99.226562 179.804688 C 104.300781 184.773438 109.585938 191.089844 113.460938 198.5625 C 114.203125 195.136719 117.132812 191.207031 120.511719 187.636719 Z M 103.863281 209.195312 L 109.609375 203.277344 C 105.101562 193.53125 97.652344 185.609375 91.398438 180.167969 C 90.40625 180.308594 89.425781 180.480469 88.445312 180.667969 C 88.980469 180.804688 89.5625 181.011719 90.179688 181.28125 C 90.808594 181.554688 91.464844 181.894531 92.125 182.296875 C 92.789062 182.703125 93.464844 183.164062 94.121094 183.691406 C 94.457031 183.945312 94.78125 184.222656 95.101562 184.507812 C 95.429688 184.789062 95.746094 185.085938 96.058594 185.394531 C 96.691406 186 97.28125 186.660156 97.863281 187.324219 C 98.425781 188.003906 98.980469 188.6875 99.476562 189.394531 C 99.988281 190.09375 100.445312 190.804688 100.875 191.507812 C 101.726562 192.910156 102.40625 194.285156 102.917969 195.496094 C 103.429688 196.707031 103.765625 197.757812 103.96875 198.511719 C 104.171875 199.257812 104.242188 199.707031 104.242188 199.707031 C 104.242188 199.707031 103.90625 199.402344 103.371094 198.851562 C 102.828125 198.308594 102.078125 197.523438 101.21875 196.566406 C 99.496094 194.664062 97.363281 192.082031 95.230469 189.5625 C 94.164062 188.304688 93.085938 187.070312 92.050781 185.941406 C 91.011719 184.816406 90.015625 183.796875 89.105469 182.964844 C 88.886719 182.742188 88.65625 182.558594 88.445312 182.371094 C 88.234375 182.179688 88.027344 182.007812 87.828125 181.851562 C 87.433594 181.519531 87.089844 181.25 86.785156 181.03125 C 86.773438 181.019531 86.765625 181.015625 86.753906 181.007812 C 84.46875 181.484375 82.191406 182.011719 79.90625 182.460938 L 103.710938 209.296875 C 103.761719 209.265625 103.8125 209.226562 103.863281 209.195312 Z M 261.148438 164.617188 C 254.574219 167.785156 246.984375 172.160156 240.710938 176.566406 C 240.226562 177.539062 239.832031 178.386719 239.53125 179.066406 C 241.300781 180.476562 243.648438 182.441406 246.023438 184.691406 C 249.683594 176.511719 255.492188 169.761719 261.148438 164.617188 Z M 259.289062 184.851562 C 259.0625 185.15625 258.847656 185.449219 258.636719 185.730469 C 258.199219 186.296875 257.800781 186.8125 257.445312 187.273438 C 257.121094 187.75 256.808594 188.160156 256.558594 188.503906 C 256.046875 189.191406 255.714844 189.578125 255.714844 189.578125 C 255.714844 189.578125 255.765625 189.085938 255.925781 188.234375 C 256.007812 187.808594 256.101562 187.285156 256.242188 186.695312 C 256.398438 186.109375 256.632812 185.472656 256.878906 184.765625 C 257.007812 184.417969 257.144531 184.050781 257.292969 183.675781 C 257.46875 183.316406 257.648438 182.941406 257.835938 182.558594 C 258.214844 181.789062 258.625 180.980469 259.148438 180.207031 C 259.28125 180.003906 259.417969 179.796875 259.554688 179.589844 C 258.042969 179.78125 256.53125 179.90625 255.015625 179.957031 C 253.117188 182.746094 251.464844 185.765625 250.226562 188.996094 C 253.34375 192.507812 255.851562 196.253906 256.179688 199.457031 L 256.972656 200.277344 C 262.097656 189.546875 270.242188 181.058594 276.921875 175.359375 C 272.886719 176.636719 268.730469 177.878906 264.519531 178.753906 L 264.292969 178.988281 C 263.996094 179.339844 263.683594 179.671875 263.382812 180.007812 C 263.085938 180.351562 262.757812 180.667969 262.476562 181.007812 C 262.195312 181.351562 261.917969 181.691406 261.628906 182.015625 C 261.042969 182.65625 260.535156 183.324219 260.039062 183.949219 C 259.78125 184.257812 259.53125 184.558594 259.289062 184.851562 Z M 287.664062 174.074219 L 291.945312 179.796875 L 265.753906 209.324219 L 261.113281 204.542969 C 267.601562 189.414062 281.371094 178.480469 287.664062 174.074219 Z M 275.632812 185.398438 C 275 186 274.410156 186.660156 273.824219 187.324219 C 273.265625 188.003906 272.710938 188.6875 272.210938 189.398438 C 271.703125 190.09375 271.242188 190.808594 270.816406 191.511719 C 269.964844 192.914062 269.28125 194.285156 268.773438 195.5 C 268.261719 196.710938 267.921875 197.761719 267.722656 198.511719 C 267.515625 199.261719 267.449219 199.710938 267.449219 199.710938 C 267.449219 199.710938 267.78125 199.402344 268.320312 198.855469 C 268.863281 198.308594 269.613281 197.523438 270.46875 196.570312 C 272.191406 194.664062 274.328125 192.082031 276.460938 189.566406 C 277.527344 188.308594 278.601562 187.070312 279.640625 185.945312 C 280.675781 184.816406 281.675781 183.800781 282.582031 182.964844 C 282.804688 182.746094 283.03125 182.5625 283.242188 182.375 C 283.453125 182.179688 283.660156 182.007812 283.859375 181.851562 C 284.253906 181.523438 284.601562 181.25 284.902344 181.03125 C 285.203125 180.804688 285.472656 180.640625 285.640625 180.523438 C 285.8125 180.398438 285.902344 180.335938 285.902344 180.335938 C 285.902344 180.335938 285.792969 180.335938 285.582031 180.335938 C 285.371094 180.351562 285.066406 180.316406 284.675781 180.386719 C 284.285156 180.441406 283.789062 180.511719 283.261719 180.667969 C 282.722656 180.804688 282.132812 181.015625 281.507812 181.289062 C 280.878906 181.558594 280.222656 181.898438 279.5625 182.304688 C 278.898438 182.707031 278.222656 183.171875 277.566406 183.695312 C 277.230469 183.949219 276.90625 184.226562 276.585938 184.511719 C 276.257812 184.789062 275.945312 185.089844 275.632812 185.398438 Z M 75.921875 249.828125 C 74.277344 251.613281 72.246094 253.265625 69.8125 253.785156 C 69.21875 253.910156 68.632812 253.976562 68.050781 253.996094 C 71.472656 261.222656 76.441406 268.933594 82.164062 270.796875 L 91.15625 243.007812 C 88.4375 242.011719 85.976562 240.433594 83.785156 238.554688 C 80.992188 242.175781 79.039062 246.449219 75.921875 249.828125 Z M 100.527344 214.046875 L 97.957031 211.152344 C 97.132812 211.828125 96.449219 212.6875 95.722656 213.453125 C 91.050781 218.359375 85.679688 221.992188 79.855469 225.171875 C 82.679688 229.785156 87.179688 235.585938 92.859375 237.742188 L 96.636719 226.078125 L 96.3125 225.261719 C 96.382812 225.234375 96.613281 225.144531 96.976562 225.019531 Z M 58.917969 276.917969 C 58.65625 276.902344 58.394531 276.878906 58.136719 276.855469 C 61.601562 285.574219 70.199219 291.46875 74.644531 294.039062 L 80.464844 276.058594 C 78.015625 275.261719 75.761719 273.828125 73.707031 271.980469 C 69.460938 275.195312 64.332031 277.234375 58.917969 276.917969 Z M 301.585938 257.28125 C 298.699219 256.875 295.976562 255.601562 293.625 253.808594 C 290.421875 251.367188 287.167969 248.171875 285.320312 244.542969 C 284.71875 243.363281 284.316406 242.164062 284.234375 240.976562 C 282.460938 242.09375 280.546875 242.980469 278.5 243.527344 L 287.445312 271.164062 C 292.996094 270.523438 297.929688 264.117188 301.585938 257.28125 Z M 288.726562 229.144531 C 285.222656 228.359375 282.03125 226.742188 279.148438 224.390625 C 275.863281 221.714844 272.957031 218.617188 269.605469 216.039062 L 276.792969 238.246094 C 281.625 237.078125 285.691406 233.160156 288.726562 229.144531 Z M 296.144531 273.175781 C 294.011719 274.816406 291.6875 275.996094 289.167969 276.496094 L 294.84375 294.039062 C 298.773438 291.765625 305.945312 286.894531 309.953125 279.773438 C 304.804688 279.015625 299.800781 276.625 296.144531 273.175781 Z M 219.953125 303.734375 L 233.136719 325.800781 C 226.171875 330.1875 203.695312 343.292969 183.742188 343.292969 C 163.898438 343.292969 142.851562 330.265625 136.3125 325.871094 L 149.535156 303.734375 C 155.648438 312.304688 158.34375 312.652344 159.734375 312.824219 C 164.582031 313.429688 168.730469 312.753906 173.121094 312.039062 C 176.40625 311.503906 179.800781 310.949219 183.652344 310.949219 C 187.464844 310.949219 191.273438 311.496094 194.960938 312.019531 C 198.683594 312.550781 202.253906 313.058594 205.808594 313.058594 C 207.125 313.058594 208.441406 312.988281 209.757812 312.824219 C 211.144531 312.652344 213.839844 312.304688 219.953125 303.734375 Z M 198.929688 318.730469 C 187.507812 310.425781 170.554688 318.730469 170.554688 318.730469 L 184.777344 337.640625 Z M 239.230469 255.699219 C 238.828125 256.792969 238.117188 258.476562 237.179688 260.570312 C 226.730469 265.089844 216.253906 258.273438 209.503906 252.664062 C 210.125 247.769531 206.472656 244.445312 203.222656 241.496094 C 199.898438 238.476562 196.757812 235.628906 196.757812 231.144531 L 191.222656 231.144531 C 191.222656 231.265625 191.234375 231.382812 191.238281 231.503906 C 189.941406 231.339844 187.445312 231.046875 184.742188 230.871094 C 182.042969 231.046875 179.546875 231.339844 178.253906 231.503906 C 178.253906 231.382812 178.269531 231.265625 178.269531 231.144531 L 172.730469 231.144531 C 172.730469 235.628906 169.589844 238.476562 166.265625 241.496094 C 163.019531 244.445312 159.367188 247.769531 159.984375 252.660156 C 153.238281 258.269531 142.757812 265.089844 132.308594 260.574219 C 131.371094 258.480469 130.664062 256.792969 130.257812 255.699219 C 127.96875 249.496094 126.066406 222.714844 125.363281 210.097656 C 127.378906 210.8125 129.644531 211.503906 132.160156 212.160156 L 132.902344 225.84375 C 132.902344 225.84375 145.238281 235.449219 152.753906 235.769531 C 159.585938 236.058594 172.664062 227.078125 176.285156 217.808594 C 178.757812 217.878906 181.246094 217.921875 183.742188 217.921875 C 186.871094 217.921875 190.027344 217.859375 193.179688 217.746094 C 196.761719 227.035156 209.882812 236.058594 216.734375 235.769531 C 224.25 235.453125 236.585938 225.84375 236.585938 225.84375 L 237.339844 211.945312 C 239.953125 211.269531 242.203125 210.59375 244.136719 209.921875 C 243.4375 222.46875 241.53125 249.46875 239.230469 255.699219 Z M 156.375 243.039062 C 149.574219 252.585938 133.882812 247.464844 133.882812 247.464844 C 133.882812 247.464844 136.648438 253.382812 143.972656 253.933594 C 151.292969 254.484375 154.710938 250.460938 156.375 243.039062 Z M 160.558594 238.75 C 160.558594 238.75 159.980469 238.75 159.039062 238.820312 C 158.566406 238.859375 158.011719 238.917969 157.390625 238.996094 C 157.238281 239.019531 157.078125 239.042969 156.914062 239.066406 C 156.75 239.082031 156.574219 239.082031 156.402344 239.09375 C 156.054688 239.117188 155.691406 239.140625 155.3125 239.164062 C 154.945312 239.199219 154.558594 239.234375 154.164062 239.273438 C 153.773438 239.332031 153.363281 239.34375 152.945312 239.34375 C 152.527344 239.347656 152.105469 239.378906 151.675781 239.394531 C 151.246094 239.402344 150.820312 239.484375 150.375 239.441406 C 149.488281 239.394531 148.59375 239.476562 147.679688 239.410156 C 146.773438 239.3125 145.851562 239.378906 144.9375 239.210938 C 144.480469 239.171875 144.019531 239.128906 143.5625 239.085938 C 143.109375 239.015625 142.652344 238.945312 142.203125 238.875 C 141.292969 238.773438 140.417969 238.546875 139.539062 238.40625 C 139.097656 238.34375 138.6875 238.195312 138.257812 238.121094 C 137.835938 238.027344 137.414062 237.949219 137.015625 237.835938 C 136.210938 237.628906 135.425781 237.449219 134.714844 237.238281 C 133.980469 237.058594 133.324219 236.839844 132.710938 236.679688 C 132.101562 236.496094 131.570312 236.339844 131.128906 236.207031 C 130.214844 235.933594 129.695312 235.777344 129.695312 235.777344 C 129.695312 235.777344 129.746094 235.90625 129.871094 236.132812 C 130 236.359375 130.191406 236.703125 130.472656 237.097656 C 130.742188 237.503906 131.113281 237.953125 131.558594 238.46875 C 132.015625 238.953125 132.542969 239.515625 133.183594 240.039062 C 133.5 240.304688 133.832031 240.589844 134.195312 240.851562 C 134.558594 241.117188 134.949219 241.367188 135.34375 241.636719 C 135.734375 241.921875 136.179688 242.125 136.621094 242.371094 C 137.066406 242.609375 137.519531 242.859375 138.007812 243.058594 C 138.488281 243.265625 138.992188 243.453125 139.5 243.640625 C 140.003906 243.851562 140.539062 243.984375 141.078125 244.117188 C 141.621094 244.246094 142.160156 244.410156 142.714844 244.503906 C 143.273438 244.578125 143.835938 244.648438 144.398438 244.722656 C 145.523438 244.878906 146.664062 244.8125 147.777344 244.78125 C 148.335938 244.789062 148.882812 244.691406 149.421875 244.597656 C 149.957031 244.507812 150.488281 244.421875 151.003906 244.3125 C 151.523438 244.226562 152.019531 244.058594 152.496094 243.894531 C 152.976562 243.726562 153.445312 243.574219 153.890625 243.402344 C 154.800781 243.109375 155.578125 242.609375 156.304688 242.21875 C 157.015625 241.785156 157.679688 241.445312 158.191406 240.984375 C 158.710938 240.550781 159.152344 240.164062 159.503906 239.835938 C 160.203125 239.167969 160.558594 238.75 160.558594 238.75 Z M 233.929688 248.972656 C 233.929688 248.972656 218.238281 254.097656 211.441406 244.546875 C 213.101562 251.972656 216.519531 255.996094 223.839844 255.445312 C 231.164062 254.894531 233.929688 248.972656 233.929688 248.972656 Z M 239.011719 237.097656 C 239.292969 236.703125 239.480469 236.359375 239.609375 236.132812 C 239.738281 235.90625 239.789062 235.773438 239.789062 235.773438 C 239.789062 235.773438 239.265625 235.933594 238.351562 236.207031 C 237.914062 236.335938 237.382812 236.496094 236.769531 236.675781 C 236.15625 236.835938 235.503906 237.054688 234.769531 237.234375 C 234.058594 237.449219 233.273438 237.625 232.46875 237.835938 C 232.066406 237.945312 231.648438 238.027344 231.226562 238.117188 C 230.796875 238.195312 230.386719 238.339844 229.945312 238.40625 C 229.066406 238.542969 228.191406 238.769531 227.28125 238.871094 C 226.832031 238.941406 226.375 239.011719 225.921875 239.082031 C 225.464844 239.125 225.003906 239.167969 224.546875 239.210938 C 223.632812 239.375 222.710938 239.308594 221.800781 239.40625 C 220.890625 239.472656 219.996094 239.394531 219.109375 239.441406 C 218.664062 239.484375 218.238281 239.398438 217.804688 239.394531 C 217.375 239.375 216.953125 239.347656 216.539062 239.339844 C 216.117188 239.339844 215.710938 239.328125 215.320312 239.269531 C 214.921875 239.234375 214.539062 239.195312 214.171875 239.164062 C 213.789062 239.136719 213.425781 239.113281 213.082031 239.089844 C 212.90625 239.082031 212.734375 239.078125 212.566406 239.0625 C 212.40625 239.039062 212.246094 239.015625 212.09375 238.996094 C 211.472656 238.914062 210.914062 238.855469 210.445312 238.820312 C 209.503906 238.75 208.921875 238.746094 208.921875 238.746094 C 208.921875 238.746094 209.28125 239.164062 209.980469 239.828125 C 210.332031 240.160156 210.769531 240.550781 211.292969 240.980469 C 211.800781 241.441406 212.464844 241.78125 213.179688 242.210938 C 213.90625 242.605469 214.679688 243.105469 215.589844 243.398438 C 216.039062 243.570312 216.507812 243.722656 216.984375 243.890625 C 217.464844 244.054688 217.957031 244.222656 218.476562 244.308594 C 218.992188 244.417969 219.523438 244.503906 220.0625 244.59375 C 220.601562 244.6875 221.148438 244.785156 221.707031 244.777344 C 222.816406 244.808594 223.960938 244.875 225.085938 244.71875 C 225.648438 244.644531 226.207031 244.574219 226.769531 244.503906 C 227.324219 244.40625 227.863281 244.242188 228.402344 244.113281 C 228.941406 243.980469 229.476562 243.851562 229.980469 243.636719 C 230.492188 243.449219 230.992188 243.261719 231.476562 243.054688 C 231.960938 242.855469 232.417969 242.605469 232.863281 242.371094 C 233.300781 242.121094 233.746094 241.917969 234.136719 241.632812 C 234.535156 241.363281 234.921875 241.113281 235.285156 240.851562 C 235.648438 240.589844 235.980469 240.304688 236.296875 240.035156 C 236.9375 239.515625 237.464844 238.949219 237.921875 238.464844 C 238.367188 237.953125 238.738281 237.503906 239.011719 237.097656 Z M 121.195312 230.074219 C 113.863281 226.992188 105.65625 228.367188 101.351562 229.488281 L 100.042969 233.527344 C 102.542969 234.589844 104.722656 236.273438 106.65625 238.171875 C 109.414062 240.878906 112.003906 243.800781 114.429688 246.808594 C 114.902344 247.394531 115.367188 247.988281 115.828125 248.585938 C 118.359375 248.714844 120.890625 249.023438 123.320312 249.578125 C 122.480469 244.046875 121.761719 236.894531 121.195312 230.074219 Z M 124.472656 255.625 C 123.074219 255.171875 121.613281 254.832031 120.109375 254.582031 C 123.214844 259.328125 125.886719 264.421875 127.769531 269.746094 C 128.785156 269.917969 129.777344 270.097656 130.734375 270.285156 C 127.976562 264.570312 125.90625 259.890625 125.066406 257.617188 C 124.863281 257.066406 124.664062 256.398438 124.472656 255.625 Z M 115.695312 204.953125 L 106.082031 214.859375 L 103.332031 223.363281 C 107.992188 222.503906 114.394531 222.074219 120.722656 224.019531 C 120.089844 215.460938 119.734375 208.539062 119.699219 207.859375 L 120.027344 207.84375 C 118.21875 206.917969 116.777344 205.957031 115.695312 204.953125 Z M 266.148438 223.328125 L 263.40625 214.859375 L 253.816406 204.972656 C 252.816406 205.855469 251.367188 206.820312 249.277344 207.832031 L 249.789062 207.859375 C 249.753906 208.539062 249.394531 215.492188 248.761719 224.078125 C 255.066406 222.089844 261.453125 222.484375 266.148438 223.328125 Z M 244.421875 257.617188 C 243.582031 259.890625 241.515625 264.570312 238.757812 270.28125 C 240.253906 269.988281 241.820312 269.71875 243.4375 269.472656 C 246.703125 264.042969 250.820312 259.039062 254.671875 254.089844 C 251.3125 254.21875 247.996094 254.695312 245 255.699219 C 244.8125 256.4375 244.621094 257.085938 244.421875 257.617188 Z M 248.285156 230.15625 C 247.71875 236.972656 247.003906 244.109375 246.160156 249.625 C 250.386719 248.636719 254.910156 248.394531 259.242188 248.558594 C 262.378906 245.109375 265.859375 241.933594 269.515625 239.089844 C 269.964844 238.742188 270.433594 238.390625 270.90625 238.039062 L 268.125 229.433594 C 263.726562 228.3125 255.554688 227.015625 248.285156 230.15625 Z M 248.285156 230.15625 " fill-opacity="0.498" fill-rule="nonzero"/><path fill="#310505" d="M 218.109375 142.855469 C 218.519531 144.691406 218.886719 146.523438 219.210938 148.332031 C 208.679688 151.671875 197.597656 153.585938 186.511719 153.96875 L 186.511719 148.296875 C 186.867188 148.300781 187.21875 148.308594 187.574219 148.308594 C 198.410156 148.308594 208.734375 146.363281 218.109375 142.855469 Z M 237.539062 133.503906 C 237.390625 133.242188 237.230469 132.988281 237.074219 132.730469 C 232.851562 135.789062 228.246094 138.460938 223.335938 140.691406 C 223.792969 142.640625 224.195312 144.578125 224.554688 146.496094 C 230.015625 144.480469 235.34375 142.066406 240.382812 139.148438 C 239.570312 137.285156 238.636719 135.394531 237.539062 133.503906 Z M 150.308594 148.101562 C 157.289062 151.078125 164.699219 152.941406 172.308594 153.609375 C 175.183594 153.863281 178.078125 153.996094 180.972656 154.03125 L 180.972656 148.0625 C 170.550781 147.296875 160.710938 144.726562 151.867188 140.71875 C 151.261719 143.1875 150.746094 145.664062 150.308594 148.101562 Z M 129.996094 135.375 C 134.015625 138.710938 138.242188 141.78125 142.773438 144.367188 C 143.539062 144.804688 144.316406 145.222656 145.09375 145.628906 C 145.570312 143.171875 146.125 140.679688 146.769531 138.1875 C 142 135.609375 137.574219 132.59375 133.570312 129.207031 C 132.1875 131.238281 131.003906 133.3125 129.996094 135.375 Z M 129.996094 135.375 " fill-opacity="0.498" fill-rule="nonzero"/><path fill="#310505" d="M 324.828125 266.46875 C 323.699219 242.339844 299.3125 208.054688 291.628906 198.359375 L 307.519531 180.445312 L 273.207031 134.597656 L 266.84375 136.699219 C 262.546875 138.121094 258.410156 140.101562 254.496094 142.617188 C 253.25 138.4375 251.65625 134.433594 249.734375 130.652344 C 263.832031 117.058594 271.5625 99.527344 271.5625 81.039062 C 271.5625 63.207031 264.246094 45.996094 250.957031 32.582031 L 250.882812 32.503906 L 223.511719 8.476562 L 235.691406 42.574219 L 235.753906 42.726562 C 240.777344 54.75 239.421875 77.03125 228.453125 93.507812 C 226.21875 96.859375 223.636719 99.855469 220.753906 102.4375 C 210.226562 97.4375 197.789062 94.90625 183.742188 94.90625 C 171.941406 94.90625 161.304688 96.6875 152.082031 100.203125 C 150.109375 98.164062 148.304688 95.917969 146.695312 93.507812 C 134.097656 74.589844 136.808594 53.292969 139.542969 42.28125 C 143.320312 27.078125 146.269531 22.171875 146.285156 22.148438 L 151.660156 13.746094 L 142.480469 17.648438 C 142.136719 17.796875 133.949219 21.363281 124.054688 32.726562 C 114.160156 44.09375 103.585938 62.753906 103.585938 81.039062 C 103.585938 97.371094 109.8125 113.324219 121.171875 126.210938 C 118.296875 131.15625 116.066406 136.550781 114.507812 142.308594 C 110.738281 139.941406 106.765625 138.0625 102.648438 136.703125 L 96.285156 134.597656 L 61.972656 180.445312 L 77.832031 198.324219 C 65.042969 213.773438 46.34375 246.8125 44.671875 266.355469 C 42.421875 292.664062 71.214844 305.964844 72.441406 306.519531 L 81.921875 310.785156 L 91.871094 280.042969 C 94.5625 279.835938 97.625 279.726562 100.847656 279.726562 C 111.007812 279.726562 121.789062 280.722656 129.441406 282.347656 C 130.9375 285.242188 132.429688 288.042969 133.878906 290.679688 C 135.46875 293.554688 137.011719 296.246094 138.480469 298.691406 L 120.300781 329.128906 L 127.066406 334.148438 C 128.234375 335.015625 156.015625 355.375 183.742188 355.375 C 211.300781 355.375 240.914062 335.195312 242.160156 334.335938 L 249.347656 329.382812 L 231.011719 298.691406 C 232.476562 296.25 234.019531 293.5625 235.609375 290.675781 C 237.070312 288.027344 238.558594 285.230469 240.050781 282.34375 C 247.617188 280.746094 258.398438 279.765625 268.660156 279.765625 C 271.90625 279.765625 274.964844 279.867188 277.628906 280.0625 L 287.566406 310.785156 L 297.109375 306.488281 C 301.953125 304.335938 326.035156 292.285156 324.828125 266.46875 Z M 293.339844 221.789062 C 292.316406 223.757812 290.75 226.46875 288.726562 229.144531 C 285.691406 233.160156 281.625 237.078125 276.792969 238.246094 L 269.609375 216.039062 L 268.964844 214.046875 L 279.203125 202.503906 C 283.03125 206.449219 288.203125 213.511719 293.339844 221.789062 Z M 230.414062 207.890625 C 216.820312 210.789062 200.246094 212.382812 183.742188 212.382812 C 167.238281 212.382812 150.941406 210.773438 137.855469 207.851562 C 123.25 204.585938 119.105469 201.125 118.8125 200.203125 C 118.652344 199.050781 119.769531 197.078125 121.65625 194.730469 C 127.058594 198.640625 142.65625 206.632812 179.902344 206.632812 C 219.832031 206.632812 241.097656 197.632812 247.511719 194.359375 C 249.59375 196.863281 250.851562 198.972656 250.691406 200.140625 C 250.328125 201.105469 245.828125 204.605469 230.414062 207.890625 Z M 232.257812 215.152344 C 232.257812 215.152344 216.601562 239.253906 205.269531 223.003906 Z M 165.832031 223.003906 C 154.5 239.253906 138.839844 215.152344 138.839844 215.152344 Z M 120.722656 224.019531 C 114.394531 222.074219 107.992188 222.503906 103.332031 223.363281 L 106.082031 214.859375 L 115.695312 204.953125 C 116.777344 205.957031 118.21875 206.917969 120.027344 207.84375 L 119.699219 207.859375 C 119.734375 208.539062 120.09375 215.460938 120.722656 224.019531 Z M 121.195312 230.074219 C 121.761719 236.894531 122.480469 244.046875 123.324219 249.578125 C 120.890625 249.023438 118.363281 248.714844 115.832031 248.585938 C 107.679688 248.171875 99.511719 249.617188 94.457031 250.785156 L 100.042969 233.527344 L 101.351562 229.488281 C 105.65625 228.367188 113.863281 226.992188 121.195312 230.074219 Z M 183.742188 178.527344 C 205.578125 178.527344 230.5625 181.941406 235.054688 182.582031 C 238 184.882812 241 187.53125 243.574219 190.09375 C 236.269531 193.480469 215.835938 201.097656 179.902344 201.097656 C 144.808594 201.097656 130.195312 193.851562 125.394531 190.59375 C 128.0625 187.894531 131.261719 185.058594 134.449219 182.570312 C 138.714844 181.921875 161.976562 178.527344 183.742188 178.527344 Z M 124.128906 159.34375 C 124.199219 156.195312 124.835938 145.9375 129.996094 135.375 C 131.003906 133.3125 132.1875 131.238281 133.570312 129.207031 C 137.574219 132.59375 142 135.609375 146.769531 138.1875 C 146.125 140.679688 145.570312 143.171875 145.09375 145.628906 C 142.589844 158.59375 142.246094 170.601562 142.234375 175.910156 C 139.144531 176.300781 136.683594 176.644531 135.0625 176.882812 C 133.566406 173.4375 130.082031 166.355469 124.128906 159.34375 Z M 147.789062 175.25 C 147.847656 170.097656 148.25 159.519531 150.308594 148.101562 C 150.746094 145.664062 151.261719 143.1875 151.867188 140.71875 C 160.710938 144.726562 170.550781 147.296875 180.972656 148.0625 L 180.972656 173.011719 C 169.011719 173.160156 156.878906 174.226562 147.789062 175.25 Z M 186.511719 173.011719 L 186.511719 148.296875 C 186.863281 148.300781 187.21875 148.308594 187.574219 148.308594 C 198.410156 148.308594 208.734375 146.363281 218.109375 142.855469 C 218.519531 144.691406 218.882812 146.523438 219.207031 148.332031 C 221.246094 159.738281 221.636719 170.269531 221.691406 175.347656 C 212.015625 174.296875 198.941406 173.164062 186.511719 173.011719 Z M 223.335938 140.691406 C 228.246094 138.460938 232.851562 135.789062 237.074219 132.730469 C 237.230469 132.988281 237.390625 133.242188 237.539062 133.503906 C 238.636719 135.394531 239.570312 137.285156 240.382812 139.148438 C 244.347656 148.261719 245.15625 156.558594 245.320312 159.390625 C 239.382812 166.402344 235.90625 173.472656 234.421875 176.902344 C 232.800781 176.679688 230.332031 176.355469 227.246094 175.984375 C 227.242188 170.828125 226.921875 159.183594 224.554688 146.496094 C 224.195312 144.578125 223.792969 142.640625 223.335938 140.691406 Z M 249.28125 207.835938 C 251.371094 206.820312 252.816406 205.855469 253.816406 204.972656 L 263.40625 214.859375 L 266.148438 223.328125 C 261.457031 222.484375 255.066406 222.09375 248.765625 224.078125 C 249.398438 215.492188 249.757812 208.542969 249.792969 207.859375 Z M 248.285156 230.15625 C 255.554688 227.015625 263.726562 228.3125 268.121094 229.433594 L 270.90625 238.039062 L 275.015625 250.738281 C 271.089844 249.839844 265.363281 248.792969 259.242188 248.558594 C 254.910156 248.394531 250.386719 248.636719 246.160156 249.625 C 247.003906 244.109375 247.71875 236.972656 248.285156 230.15625 Z M 291.945312 179.796875 L 265.753906 209.324219 L 261.113281 204.542969 C 267.601562 189.414062 281.371094 178.480469 287.664062 174.074219 Z M 284.332031 169.625 C 282.363281 170.996094 279.78125 172.921875 276.921875 175.363281 C 270.242188 181.058594 262.097656 189.546875 256.972656 200.277344 L 256.179688 199.457031 C 255.851562 196.253906 253.34375 192.507812 250.226562 188.996094 C 251.464844 185.765625 253.117188 182.746094 255.015625 179.957031 C 261.839844 169.914062 271.804688 162.863281 276.894531 159.683594 Z M 268.773438 148.835938 L 273.550781 155.21875 C 270.414062 157.1875 265.84375 160.347656 261.148438 164.617188 C 255.492188 169.761719 249.683594 176.511719 246.027344 184.691406 C 243.648438 182.441406 241.300781 180.476562 239.535156 179.066406 C 239.832031 178.386719 240.226562 177.539062 240.714844 176.566406 C 244.335938 169.300781 253.210938 154.835938 268.773438 148.835938 Z M 216.328125 113.617188 C 215.28125 114.210938 214.191406 114.777344 213.058594 115.3125 C 212.003906 113.746094 210.871094 112.257812 209.652344 110.863281 C 211.984375 111.660156 214.210938 112.578125 216.328125 113.617188 Z M 186.511719 107.023438 C 190.269531 107.121094 193.863281 107.417969 197.28125 107.921875 C 201.464844 110.097656 204.9375 113.410156 207.8125 117.4375 C 202.058594 119.421875 195.359375 120.628906 187.570312 120.628906 C 187.214844 120.628906 186.863281 120.617188 186.511719 120.613281 Z M 172.671875 107.671875 L 172.644531 107.621094 C 175.320312 107.304688 178.097656 107.109375 180.972656 107.03125 L 180.972656 120.324219 C 174.03125 119.671875 168.074219 118.003906 162.96875 115.710938 C 165.6875 112.316406 168.894531 109.535156 172.671875 107.671875 Z M 160.535156 110.070312 C 159.640625 111.039062 158.792969 112.066406 157.980469 113.136719 C 157.214844 112.683594 156.472656 112.21875 155.753906 111.742188 C 157.300781 111.128906 158.886719 110.5625 160.535156 110.070312 Z M 115.664062 81.039062 C 115.664062 70.261719 118.960938 59.722656 125.109375 50.464844 C 123.222656 65.277344 126.207031 84.53125 136.640625 100.199219 C 144.527344 112.046875 159.765625 126.164062 187.574219 126.164062 C 215.378906 126.164062 230.617188 112.046875 238.503906 100.199219 C 248.9375 84.535156 251.921875 65.277344 250.039062 50.464844 C 256.183594 59.722656 259.484375 70.261719 259.484375 81.039062 C 259.484375 115.078125 227.226562 142.773438 187.574219 142.773438 C 147.921875 142.773438 115.664062 115.078125 115.664062 81.039062 Z M 100.71875 148.835938 C 113.460938 153.75 121.71875 164.335938 126.285156 172.003906 C 128.042969 174.957031 129.253906 177.472656 129.957031 179.0625 C 128.503906 180.222656 126.660156 181.761719 124.726562 183.519531 C 120.800781 175.339844 114.753906 168.65625 109.03125 163.632812 C 104.078125 159.289062 99.378906 156.195312 96.503906 154.464844 Z M 93.164062 158.929688 C 96.867188 161.140625 105 166.472656 111.910156 174.335938 C 112.859375 175.414062 113.785156 176.535156 114.671875 177.707031 C 116.085938 179.574219 117.398438 181.5625 118.558594 183.65625 C 119.273438 184.941406 119.929688 186.269531 120.511719 187.636719 C 117.132812 191.207031 114.199219 195.136719 113.460938 198.5625 C 109.582031 191.089844 104.300781 184.773438 99.222656 179.804688 C 93.859375 174.554688 88.734375 170.808594 85.765625 168.8125 Z M 77.542969 179.796875 L 82.4375 173.257812 C 84.445312 174.609375 87.710938 176.960938 91.398438 180.167969 C 97.652344 185.609375 105.101562 193.53125 109.609375 203.277344 L 103.863281 209.195312 L 103.738281 209.324219 L 103.714844 209.296875 L 79.910156 182.460938 Z M 90.289062 202.503906 L 97.957031 211.152344 L 100.527344 214.046875 L 96.976562 225.015625 C 96.613281 225.144531 96.378906 225.234375 96.3125 225.261719 L 96.632812 226.074219 L 92.859375 237.742188 C 87.179688 235.585938 82.679688 229.785156 79.855469 225.171875 C 78.613281 223.144531 77.695312 221.351562 77.144531 220.199219 C 81.949219 212.609375 86.707031 206.195312 90.289062 202.503906 Z M 74.644531 294.039062 C 70.199219 291.46875 61.601562 285.574219 58.132812 276.855469 C 56.996094 273.996094 56.410156 270.832031 56.707031 267.382812 C 57.085938 262.929688 58.640625 257.453125 60.921875 251.558594 C 63.410156 257.785156 67.707031 266.59375 73.707031 271.980469 C 75.761719 273.828125 78.015625 275.257812 80.460938 276.058594 Z M 68.050781 253.996094 C 66.285156 250.261719 64.933594 246.667969 64.097656 244.074219 C 66.914062 237.925781 70.28125 231.613281 73.761719 225.726562 C 75.828125 229.453125 79.210938 234.636719 83.785156 238.554688 C 85.976562 240.433594 88.4375 242.011719 91.15625 243.007812 L 82.164062 270.796875 C 76.441406 268.933594 71.472656 261.222656 68.050781 253.996094 Z M 127.769531 269.746094 C 115.742188 267.734375 99.953125 267.058594 88.828125 268.1875 L 92.445312 257.007812 C 96.554688 255.886719 109.328125 252.8125 120.109375 254.582031 C 121.609375 254.832031 123.074219 255.171875 124.472656 255.625 C 124.664062 256.398438 124.863281 257.066406 125.066406 257.617188 C 125.90625 259.890625 127.976562 264.570312 130.734375 270.289062 C 129.777344 270.097656 128.785156 269.917969 127.769531 269.746094 Z M 233.136719 325.800781 C 226.171875 330.1875 203.695312 343.292969 183.742188 343.292969 C 163.898438 343.292969 142.847656 330.265625 136.3125 325.871094 L 149.535156 303.734375 C 155.648438 312.304688 158.34375 312.652344 159.734375 312.824219 C 164.582031 313.429688 168.730469 312.753906 173.121094 312.039062 C 176.40625 311.503906 179.800781 310.949219 183.652344 310.949219 C 187.460938 310.949219 191.273438 311.496094 194.960938 312.019531 C 198.683594 312.550781 202.253906 313.058594 205.808594 313.058594 C 207.125 313.058594 208.4375 312.988281 209.757812 312.824219 C 211.144531 312.652344 213.839844 312.304688 219.953125 303.734375 Z M 231.726562 272.039062 C 231.617188 272.074219 231.5 272.105469 231.394531 272.140625 L 231.503906 272.480469 C 229.554688 276.386719 227.394531 280.542969 225.203125 284.53125 C 213.285156 306.222656 209.222656 307.300781 209.070312 307.332031 C 204.925781 307.851562 200.464844 307.214844 195.738281 306.539062 C 191.863281 305.988281 187.855469 305.414062 183.652344 305.414062 C 179.351562 305.414062 175.734375 306.003906 172.230469 306.574219 C 168.070312 307.25 164.476562 307.835938 160.433594 307.335938 C 160.265625 307.300781 156.203125 306.21875 144.285156 284.53125 C 139.558594 275.929688 134.992188 266.566406 132.308594 260.574219 C 131.371094 258.480469 130.664062 256.792969 130.257812 255.699219 C 127.96875 249.496094 126.066406 222.714844 125.363281 210.097656 C 127.378906 210.8125 129.644531 211.503906 132.160156 212.160156 L 132.902344 225.84375 C 132.902344 225.84375 145.238281 235.449219 152.753906 235.769531 C 159.585938 236.058594 172.664062 227.078125 176.285156 217.808594 C 178.757812 217.878906 181.246094 217.921875 183.742188 217.921875 C 186.871094 217.921875 190.027344 217.859375 193.179688 217.746094 C 196.761719 227.035156 209.882812 236.058594 216.734375 235.769531 C 224.25 235.453125 236.585938 225.84375 236.585938 225.84375 L 237.339844 211.945312 C 239.953125 211.269531 242.203125 210.59375 244.136719 209.921875 C 243.4375 222.46875 241.53125 249.46875 239.230469 255.699219 C 238.824219 256.792969 238.117188 258.476562 237.179688 260.570312 C 235.789062 263.679688 233.890625 267.691406 231.726562 272.039062 Z M 243.4375 269.472656 C 241.820312 269.71875 240.253906 269.988281 238.757812 270.28125 C 241.515625 264.570312 243.582031 259.890625 244.421875 257.617188 C 244.621094 257.085938 244.8125 256.4375 245 255.699219 C 247.996094 254.695312 251.316406 254.21875 254.671875 254.089844 C 263.898438 253.730469 273.378906 255.972656 277.027344 256.953125 L 280.667969 268.199219 C 270.554688 267.214844 255.558594 267.636719 243.4375 269.472656 Z M 287.445312 271.164062 L 278.5 243.527344 C 280.546875 242.980469 282.460938 242.09375 284.234375 240.976562 C 289.804688 237.46875 294 231.714844 296.632812 227.273438 C 300.21875 233.449219 303.640625 240.027344 306.410156 246.347656 C 305.28125 249.492188 303.632812 253.453125 301.585938 257.28125 C 297.929688 264.117188 292.996094 270.523438 287.445312 271.164062 Z M 309.953125 279.773438 C 305.945312 286.894531 298.773438 291.765625 294.84375 294.039062 L 289.167969 276.496094 C 291.6875 275.996094 294.011719 274.8125 296.144531 273.175781 C 302.167969 268.546875 306.625 260.316406 309.417969 253.828125 C 311.234375 258.855469 312.453125 263.507812 312.785156 267.382812 C 313.183594 272.054688 311.964844 276.195312 309.953125 279.773438 Z M 166.269531 241.496094 C 169.59375 238.476562 172.734375 235.628906 172.734375 231.144531 L 178.269531 231.144531 C 178.269531 231.265625 178.257812 231.382812 178.253906 231.503906 C 178.097656 238.222656 173.613281 242.304688 169.992188 245.59375 C 166.835938 248.457031 165.070312 250.179688 165.527344 252.292969 C 165.828125 253.695312 166.4375 254.671875 167.386719 255.277344 C 169.15625 256.40625 171.867188 256.125 172.761719 255.921875 L 175.140625 255.382812 L 177.441406 261.675781 L 192.050781 261.675781 L 194.34375 255.355469 L 196.746094 255.925781 C 197.628906 256.125 200.339844 256.40625 202.105469 255.277344 C 203.054688 254.671875 203.664062 253.695312 203.964844 252.292969 C 204.421875 250.179688 202.65625 248.457031 199.503906 245.59375 C 195.878906 242.304688 191.398438 238.222656 191.238281 231.503906 C 191.234375 231.382812 191.222656 231.265625 191.222656 231.144531 L 196.761719 231.144531 C 196.761719 235.628906 199.902344 238.476562 203.226562 241.496094 C 206.476562 244.445312 210.128906 247.769531 209.507812 252.664062 C 209.472656 252.925781 209.4375 253.1875 209.378906 253.457031 C 208.765625 256.316406 207.265625 258.570312 205.042969 259.972656 C 202.632812 261.488281 199.894531 261.71875 197.957031 261.632812 L 195.933594 267.210938 L 173.558594 267.210938 L 171.535156 261.632812 C 169.597656 261.71875 166.859375 261.492188 164.449219 259.972656 C 162.226562 258.570312 160.730469 256.316406 160.113281 253.457031 C 160.054688 253.183594 160.019531 252.921875 159.984375 252.660156 C 159.367188 247.769531 163.019531 244.441406 166.269531 241.496094 Z M 206.433594 288.183594 C 198.957031 290.59375 190.277344 288.335938 183.671875 288.335938 C 177.0625 288.335938 170.53125 290.59375 163.058594 288.183594 C 153.226562 285.011719 147.925781 273.933594 158.980469 270.902344 C 170.21875 267.820312 172.648438 273.933594 183.667969 273.933594 C 194.6875 273.933594 199.273438 267.824219 210.507812 270.902344 C 221.5625 273.933594 216.261719 285.011719 206.433594 288.183594 Z M 183.742188 196.875 C 188.457031 196.875 192.292969 193.039062 192.292969 188.324219 C 192.292969 183.609375 188.457031 179.773438 183.742188 179.773438 C 179.027344 179.773438 175.191406 183.609375 175.191406 188.324219 C 175.191406 193.039062 179.027344 196.875 183.742188 196.875 Z M 183.742188 185.3125 C 185.402344 185.3125 186.753906 186.664062 186.753906 188.324219 C 186.753906 189.988281 185.402344 191.339844 183.742188 191.339844 C 182.082031 191.339844 180.726562 189.988281 180.726562 188.324219 C 180.726562 186.664062 182.082031 185.3125 183.742188 185.3125 Z M 198.929688 301.214844 C 198.929688 301.214844 194.644531 298.070312 187.097656 297.433594 C 179.550781 296.792969 170.554688 300.65625 170.554688 300.65625 C 170.554688 300.65625 187.097656 279.679688 198.929688 301.214844 Z M 153.890625 243.402344 C 153.445312 243.574219 152.976562 243.726562 152.496094 243.890625 C 152.019531 244.058594 151.523438 244.226562 151.003906 244.3125 C 150.488281 244.421875 149.957031 244.503906 149.421875 244.59375 C 148.882812 244.6875 148.335938 244.785156 147.777344 244.777344 C 146.664062 244.808594 145.523438 244.875 144.398438 244.71875 C 143.835938 244.648438 143.273438 244.574219 142.714844 244.503906 C 142.160156 244.410156 141.621094 244.242188 141.078125 244.117188 C 140.539062 243.980469 140.003906 243.851562 139.5 243.640625 C 138.992188 243.449219 138.488281 243.261719 138.007812 243.054688 C 137.519531 242.855469 137.066406 242.609375 136.621094 242.371094 C 136.179688 242.121094 135.734375 241.921875 135.34375 241.636719 C 134.949219 241.363281 134.558594 241.113281 134.195312 240.851562 C 133.832031 240.589844 133.5 240.304688 133.183594 240.039062 C 132.542969 239.515625 132.015625 238.953125 131.558594 238.464844 C 131.113281 237.953125 130.742188 237.503906 130.472656 237.09375 C 130.191406 236.703125 130 236.359375 129.871094 236.132812 C 129.746094 235.90625 129.695312 235.773438 129.695312 235.773438 C 129.695312 235.773438 130.214844 235.929688 131.128906 236.207031 C 131.570312 236.335938 132.101562 236.496094 132.710938 236.675781 C 133.324219 236.835938 133.980469 237.054688 134.714844 237.234375 C 135.425781 237.449219 136.210938 237.625 137.015625 237.835938 C 137.414062 237.945312 137.835938 238.027344 138.257812 238.121094 C 138.6875 238.195312 139.097656 238.339844 139.539062 238.40625 C 140.417969 238.542969 141.292969 238.769531 142.203125 238.871094 C 142.652344 238.941406 143.109375 239.011719 143.5625 239.082031 C 144.019531 239.125 144.480469 239.167969 144.9375 239.210938 C 145.851562 239.375 146.773438 239.308594 147.679688 239.40625 C 148.589844 239.472656 149.488281 239.394531 150.375 239.441406 C 150.820312 239.484375 151.246094 239.402344 151.675781 239.394531 C 152.105469 239.375 152.527344 239.34375 152.945312 239.339844 C 153.363281 239.339844 153.773438 239.328125 154.164062 239.269531 C 154.558594 239.234375 154.945312 239.195312 155.3125 239.164062 C 155.691406 239.136719 156.054688 239.113281 156.402344 239.089844 C 156.574219 239.082031 156.75 239.082031 156.914062 239.0625 C 157.078125 239.039062 157.238281 239.015625 157.390625 238.996094 C 158.011719 238.914062 158.566406 238.855469 159.039062 238.820312 C 159.976562 238.75 160.558594 238.746094 160.558594 238.746094 C 160.558594 238.746094 160.203125 239.164062 159.503906 239.828125 C 159.152344 240.160156 158.710938 240.546875 158.191406 240.980469 C 157.679688 241.441406 157.015625 241.78125 156.304688 242.210938 C 155.578125 242.605469 154.800781 243.109375 153.890625 243.402344 Z M 239.609375 236.132812 C 239.480469 236.359375 239.292969 236.703125 239.011719 237.097656 C 238.738281 237.503906 238.367188 237.953125 237.925781 238.46875 C 237.464844 238.953125 236.941406 239.515625 236.296875 240.039062 C 235.980469 240.304688 235.648438 240.589844 235.285156 240.851562 C 234.921875 241.113281 234.535156 241.367188 234.136719 241.636719 C 233.746094 241.921875 233.300781 242.125 232.863281 242.371094 C 232.417969 242.609375 231.964844 242.859375 231.476562 243.058594 C 230.992188 243.265625 230.492188 243.449219 229.984375 243.640625 C 229.480469 243.851562 228.945312 243.980469 228.40625 244.117188 C 227.863281 244.242188 227.324219 244.410156 226.769531 244.503906 C 226.210938 244.578125 225.648438 244.648438 225.085938 244.71875 C 223.960938 244.875 222.820312 244.808594 221.707031 244.777344 C 221.148438 244.785156 220.601562 244.6875 220.0625 244.59375 C 219.523438 244.503906 218.992188 244.421875 218.476562 244.3125 C 217.957031 244.226562 217.464844 244.058594 216.984375 243.890625 C 216.507812 243.726562 216.039062 243.574219 215.589844 243.402344 C 214.683594 243.109375 213.90625 242.605469 213.179688 242.214844 C 212.46875 241.78125 211.800781 241.445312 211.292969 240.980469 C 210.769531 240.550781 210.332031 240.164062 209.980469 239.832031 C 209.28125 239.167969 208.921875 238.75 208.921875 238.75 C 208.921875 238.75 209.503906 238.75 210.445312 238.820312 C 210.917969 238.859375 211.472656 238.917969 212.09375 238.996094 C 212.246094 239.019531 212.40625 239.042969 212.570312 239.066406 C 212.734375 239.082031 212.90625 239.082031 213.082031 239.09375 C 213.429688 239.113281 213.792969 239.136719 214.171875 239.164062 C 214.539062 239.199219 214.921875 239.238281 215.320312 239.273438 C 215.710938 239.332031 216.117188 239.34375 216.539062 239.34375 C 216.957031 239.347656 217.375 239.378906 217.804688 239.394531 C 218.238281 239.402344 218.664062 239.484375 219.109375 239.441406 C 219.996094 239.398438 220.890625 239.476562 221.800781 239.410156 C 222.710938 239.3125 223.632812 239.378906 224.546875 239.210938 C 225.003906 239.167969 225.464844 239.128906 225.921875 239.085938 C 226.378906 239.015625 226.832031 238.945312 227.28125 238.875 C 228.191406 238.773438 229.066406 238.546875 229.945312 238.40625 C 230.386719 238.34375 230.796875 238.195312 231.226562 238.121094 C 231.648438 238.027344 232.066406 237.949219 232.46875 237.835938 C 233.273438 237.628906 234.058594 237.449219 234.769531 237.238281 C 235.503906 237.058594 236.160156 236.839844 236.773438 236.679688 C 237.382812 236.496094 237.914062 236.339844 238.355469 236.207031 C 239.269531 235.933594 239.789062 235.777344 239.789062 235.777344 C 239.789062 235.777344 239.738281 235.90625 239.609375 236.132812 Z M 239.609375 236.132812 " fill-opacity="1" fill-rule="nonzero"/></svg>