<svg xmlns="http://www.w3.org/2000/svg" xmlns:xlink="http://www.w3.org/1999/xlink" width="1024" zoomAndPan="magnify" viewBox="0 0 768 449.999984" height="600" preserveAspectRatio="xMidYMid meet" version="1.0"><defs><g/><clipPath id="60ddf5ef96"><path d="M 233.484375 122.1875 L 357 122.1875 L 357 170.648438 L 233.484375 170.648438 Z M 233.484375 122.1875 " clip-rule="nonzero"/></clipPath><clipPath id="7aceb7653e"><path d="M 416.78125 122.1875 L 540.304688 122.1875 L 540.304688 170.648438 L 416.78125 170.648438 Z M 416.78125 122.1875 " clip-rule="nonzero"/></clipPath><clipPath id="18ff4b028e"><path d="M 50.1875 122.1875 L 173.710938 122.1875 L 173.710938 170.648438 L 50.1875 170.648438 Z M 50.1875 122.1875 " clip-rule="nonzero"/></clipPath><clipPath id="789892ddb0"><path d="M 279.15625 303.179688 L 491.738281 303.179688 L 491.738281 388.269531 L 279.15625 388.269531 Z M 279.15625 303.179688 " clip-rule="nonzero"/></clipPath><clipPath id="fd686b5b18"><path d="M 36 402 L 84.511719 402 L 84.511719 449.996094 L 36 449.996094 Z M 36 402 " clip-rule="nonzero"/></clipPath><clipPath id="42df35a1df"><path d="M 36 354.101562 L 84.511719 354.101562 L 84.511719 402.839844 L 36 402.839844 Z M 36 354.101562 " clip-rule="nonzero"/></clipPath><clipPath id="2c368a5a3d"><path d="M 0 402 L 37 402 L 37 449.996094 L 0 449.996094 Z M 0 402 " clip-rule="nonzero"/></clipPath><clipPath id="28ba5b5154"><path d="M 0 354.101562 L 37 354.101562 L 37 402.839844 L 0 402.839844 Z M 0 354.101562 " clip-rule="nonzero"/></clipPath><clipPath id="1c994bfeaa"><path d="M 675.039062 0.0820312 L 723 0.0820312 L 723 48 L 675.039062 48 Z M 675.039062 0.0820312 " clip-rule="nonzero"/></clipPath><clipPath id="7fc2273cc7"><path d="M 675.039062 47.15625 L 723 47.15625 L 723 95.894531 L 675.039062 95.894531 Z M 675.039062 47.15625 " clip-rule="nonzero"/></clipPath><clipPath id="4f8a0ce4fa"><path d="M 722.117188 0.0820312 L 768 0.0820312 L 768 48 L 722.117188 48 Z M 722.117188 0.0820312 " clip-rule="nonzero"/></clipPath><clipPath id="ca513503d7"><path d="M 722.117188 47.15625 L 768 47.15625 L 768 95.894531 L 722.117188 95.894531 Z M 722.117188 47.15625 " clip-rule="nonzero"/></clipPath><clipPath id="043bca7dde"><path d="M 589.25 122.1875 L 712.769531 122.1875 L 712.769531 170.648438 L 589.25 170.648438 Z M 589.25 122.1875 " clip-rule="nonzero"/></clipPath><clipPath id="44a72583c0"><path d="M 10 10 L 17 10 L 17 29 L 10 29 Z M 10 10 " clip-rule="nonzero"/></clipPath><clipPath id="3d079045ed"><path d="M 10.429688 10.785156 L 10.429688 28.769531 L 14.035156 28.769531 C 15.308594 28.769531 16.316406 27.769531 16.34375 26.511719 L 16.34375 13.042969 C 16.316406 11.785156 15.308594 10.785156 14.035156 10.785156 Z M 14.503906 25.996094 C 14.503906 26.691406 14.035156 26.949219 13.515625 26.949219 L 12.296875 26.949219 L 12.296875 12.632812 L 13.515625 12.632812 C 14.035156 12.632812 14.503906 12.890625 14.503906 13.558594 Z M 14.503906 25.996094 " clip-rule="nonzero"/></clipPath><linearGradient x1="0.0320888" gradientTransform="matrix(208.439642, -0.414217, 0.418366, 206.372763, 3.722304, 19.523559)" y1="0" x2="0.0606352" gradientUnits="userSpaceOnUse" y2="0" id="0076f40e23"><stop stop-opacity="1" stop-color="rgb(15.016174%, 3.201294%, 25.065613%)" offset="0"/><stop stop-opacity="1" stop-color="rgb(15.17334%, 3.207397%, 25.085449%)" offset="0.125"/><stop stop-opacity="1" stop-color="rgb(15.486145%, 3.218079%, 25.125122%)" offset="0.25"/><stop stop-opacity="1" stop-color="rgb(15.79895%, 3.230286%, 25.166321%)" offset="0.375"/><stop stop-opacity="1" stop-color="rgb(16.113281%, 3.240967%, 25.20752%)" offset="0.5"/><stop stop-opacity="1" stop-color="rgb(16.426086%, 3.253174%, 25.247192%)" offset="0.625"/><stop stop-opacity="1" stop-color="rgb(16.738892%, 3.263855%, 25.288391%)" offset="0.75"/><stop stop-opacity="1" stop-color="rgb(17.053223%, 3.276062%, 25.32959%)" offset="0.875"/><stop stop-opacity="1" stop-color="rgb(17.366028%, 3.286743%, 25.369263%)" offset="1"/></linearGradient><clipPath id="3f531eeec0"><path d="M 26 10 L 29 10 L 29 29 L 26 29 Z M 26 10 " clip-rule="nonzero"/></clipPath><clipPath id="5839f4292b"><path d="M 26.726562 10.785156 L 26.726562 28.382812 C 26.753906 28.511719 26.832031 28.769531 27.273438 28.769531 L 28.59375 28.769531 L 28.59375 11.503906 C 28.59375 11.195312 28.386719 10.785156 27.839844 10.785156 Z M 26.726562 10.785156 " clip-rule="nonzero"/></clipPath><linearGradient x1="0.110278" gradientTransform="matrix(208.439642, -0.414217, 0.418366, 206.372763, 3.722304, 19.523559)" y1="0" x2="0.119402" gradientUnits="userSpaceOnUse" y2="0" id="300925cba5"><stop stop-opacity="1" stop-color="rgb(21.881104%, 3.451538%, 25.956726%)" offset="0"/><stop stop-opacity="1" stop-color="rgb(21.981812%, 3.45459%, 25.968933%)" offset="0.25"/><stop stop-opacity="1" stop-color="rgb(22.181702%, 3.462219%, 25.994873%)" offset="0.5"/><stop stop-opacity="1" stop-color="rgb(22.381592%, 3.469849%, 26.020813%)" offset="0.75"/><stop stop-opacity="1" stop-color="rgb(22.581482%, 3.477478%, 26.046753%)" offset="1"/></linearGradient><clipPath id="41fa16603b"><path d="M 39 10 L 45 10 L 45 29 L 39 29 Z M 39 10 " clip-rule="nonzero"/></clipPath><clipPath id="f197486f6c"><path d="M 44.785156 12.890625 C 44.785156 11.65625 43.777344 10.65625 42.53125 10.605469 L 41.386719 10.605469 C 40.117188 10.605469 39.082031 11.632812 39.082031 12.890625 L 39.082031 26.664062 C 39.082031 27.921875 40.117188 28.949219 41.386719 28.949219 L 42.53125 28.949219 C 43.777344 28.898438 44.785156 27.898438 44.785156 26.664062 L 44.785156 20.109375 C 44.785156 19.417969 44.449219 19.109375 43.878906 19.109375 L 41.542969 19.109375 L 42.167969 20.394531 C 42.167969 20.394531 42.425781 20.984375 42.84375 20.984375 L 42.921875 20.984375 L 42.921875 26.355469 C 42.921875 26.894531 42.480469 27.332031 41.933594 27.332031 C 41.386719 27.332031 40.945312 26.894531 40.945312 26.355469 L 40.945312 13.199219 C 40.945312 12.65625 41.386719 12.222656 41.933594 12.222656 C 42.480469 12.222656 42.921875 12.65625 42.921875 13.199219 L 42.921875 17.3125 C 43.414062 17.105469 44.140625 16.769531 44.269531 16.695312 C 44.527344 16.566406 44.785156 16.308594 44.785156 15.691406 Z M 44.785156 12.890625 " clip-rule="nonzero"/></clipPath><linearGradient x1="0.169541" gradientTransform="matrix(208.439642, -0.414217, 0.418366, 206.372763, 3.722304, 19.523559)" y1="0" x2="0.197095" gradientUnits="userSpaceOnUse" y2="0" id="aba6929b6e"><stop stop-opacity="1" stop-color="rgb(27.084351%, 3.642273%, 26.63269%)" offset="0"/><stop stop-opacity="1" stop-color="rgb(27.235413%, 3.646851%, 26.651001%)" offset="0.125"/><stop stop-opacity="1" stop-color="rgb(27.539062%, 3.657532%, 26.690674%)" offset="0.25"/><stop stop-opacity="1" stop-color="rgb(27.841187%, 3.668213%, 26.730347%)" offset="0.375"/><stop stop-opacity="1" stop-color="rgb(28.143311%, 3.68042%, 26.768494%)" offset="0.5"/><stop stop-opacity="1" stop-color="rgb(28.445435%, 3.691101%, 26.808167%)" offset="0.625"/><stop stop-opacity="1" stop-color="rgb(28.747559%, 3.701782%, 26.847839%)" offset="0.75"/><stop stop-opacity="1" stop-color="rgb(29.049683%, 3.712463%, 26.887512%)" offset="0.875"/><stop stop-opacity="1" stop-color="rgb(29.353333%, 3.723145%, 26.925659%)" offset="1"/></linearGradient><clipPath id="56c1df711e"><path d="M 55 10 L 58 10 L 58 29 L 55 29 Z M 55 10 " clip-rule="nonzero"/></clipPath><clipPath id="6e54fab37f"><path d="M 55.273438 10.785156 L 55.273438 28.382812 C 55.300781 28.511719 55.378906 28.769531 55.820312 28.769531 L 57.140625 28.769531 L 57.140625 11.503906 C 57.140625 11.195312 56.933594 10.785156 56.386719 10.785156 Z M 55.273438 10.785156 " clip-rule="nonzero"/></clipPath><linearGradient x1="0.247233" gradientTransform="matrix(208.439642, -0.414217, 0.418366, 206.372763, 3.722304, 19.523559)" y1="0" x2="0.256357" gradientUnits="userSpaceOnUse" y2="0" id="8a4fd88eaf"><stop stop-opacity="1" stop-color="rgb(33.906555%, 3.890991%, 27.5177%)" offset="0"/><stop stop-opacity="1" stop-color="rgb(34.005737%, 3.894043%, 27.529907%)" offset="0.25"/><stop stop-opacity="1" stop-color="rgb(34.205627%, 3.900146%, 27.555847%)" offset="0.5"/><stop stop-opacity="1" stop-color="rgb(34.407043%, 3.907776%, 27.581787%)" offset="0.75"/><stop stop-opacity="1" stop-color="rgb(34.606934%, 3.915405%, 27.607727%)" offset="1"/></linearGradient><clipPath id="cd0b3ea4ff"><path d="M 66 10 L 75 10 L 75 29 L 66 29 Z M 66 10 " clip-rule="nonzero"/></clipPath><clipPath id="1827e8dc23"><path d="M 74.136719 10.785156 L 66.71875 10.785156 C 66.410156 10.785156 66.148438 11.042969 66.148438 11.351562 L 66.148438 12.605469 L 68.769531 12.605469 L 68.769531 28.382812 C 68.769531 28.511719 68.847656 28.769531 69.289062 28.769531 L 70.609375 28.769531 L 70.609375 13.042969 C 70.636719 12.8125 70.816406 12.605469 71.078125 12.605469 L 72.53125 12.605469 C 73.125 12.605469 73.410156 12.351562 73.515625 12.117188 Z M 74.136719 10.785156 " clip-rule="nonzero"/></clipPath><linearGradient x1="0.299403" gradientTransform="matrix(208.439642, -0.414217, 0.418366, 206.372763, 3.722304, 19.523559)" y1="0" x2="0.33791" gradientUnits="userSpaceOnUse" y2="0" id="ddde401d5b"><stop stop-opacity="1" stop-color="rgb(38.487244%, 4.057312%, 28.112793%)" offset="0"/><stop stop-opacity="1" stop-color="rgb(38.592529%, 4.060364%, 28.126526%)" offset="0.0625"/><stop stop-opacity="1" stop-color="rgb(38.803101%, 4.067993%, 28.153992%)" offset="0.125"/><stop stop-opacity="1" stop-color="rgb(39.015198%, 4.075623%, 28.181458%)" offset="0.1875"/><stop stop-opacity="1" stop-color="rgb(39.225769%, 4.083252%, 28.208923%)" offset="0.25"/><stop stop-opacity="1" stop-color="rgb(39.437866%, 4.090881%, 28.236389%)" offset="0.3125"/><stop stop-opacity="1" stop-color="rgb(39.648438%, 4.098511%, 28.263855%)" offset="0.375"/><stop stop-opacity="1" stop-color="rgb(39.860535%, 4.10614%, 28.291321%)" offset="0.4375"/><stop stop-opacity="1" stop-color="rgb(40.071106%, 4.11377%, 28.318787%)" offset="0.5"/><stop stop-opacity="1" stop-color="rgb(40.283203%, 4.121399%, 28.346252%)" offset="0.5625"/><stop stop-opacity="1" stop-color="rgb(40.493774%, 4.129028%, 28.373718%)" offset="0.625"/><stop stop-opacity="1" stop-color="rgb(40.705872%, 4.138184%, 28.401184%)" offset="0.6875"/><stop stop-opacity="1" stop-color="rgb(40.916443%, 4.145813%, 28.42865%)" offset="0.75"/><stop stop-opacity="1" stop-color="rgb(41.127014%, 4.153442%, 28.456116%)" offset="0.8125"/><stop stop-opacity="1" stop-color="rgb(41.339111%, 4.161072%, 28.482056%)" offset="0.875"/><stop stop-opacity="1" stop-color="rgb(41.549683%, 4.168701%, 28.509521%)" offset="0.9375"/><stop stop-opacity="1" stop-color="rgb(41.76178%, 4.176331%, 28.536987%)" offset="1"/></linearGradient><clipPath id="83fdd46ae8"><path d="M 80 10 L 88 10 L 88 29 L 80 29 Z M 80 10 " clip-rule="nonzero"/></clipPath><clipPath id="9d5500638b"><path d="M 87.917969 28.769531 L 85.871094 28.769531 L 84.234375 16.386719 L 82.601562 28.769531 L 80.550781 28.769531 L 83.300781 10.785156 L 84.3125 10.785156 C 85.089844 10.785156 85.222656 11.273438 85.296875 11.761719 Z M 87.917969 28.769531 " clip-rule="nonzero"/></clipPath><linearGradient x1="0.368501" gradientTransform="matrix(208.439642, -0.414217, 0.418366, 206.372763, 3.722304, 19.523559)" y1="0" x2="0.40402" gradientUnits="userSpaceOnUse" y2="0" id="bcfc349ac4"><stop stop-opacity="1" stop-color="rgb(44.554138%, 4.278564%, 28.900146%)" offset="0"/><stop stop-opacity="1" stop-color="rgb(44.747925%, 4.284668%, 28.924561%)" offset="0.125"/><stop stop-opacity="1" stop-color="rgb(45.13855%, 4.299927%, 28.974915%)" offset="0.25"/><stop stop-opacity="1" stop-color="rgb(45.527649%, 4.31366%, 29.026794%)" offset="0.375"/><stop stop-opacity="1" stop-color="rgb(45.918274%, 4.327393%, 29.077148%)" offset="0.5"/><stop stop-opacity="1" stop-color="rgb(46.307373%, 4.341125%, 29.127502%)" offset="0.625"/><stop stop-opacity="1" stop-color="rgb(46.696472%, 4.356384%, 29.177856%)" offset="0.75"/><stop stop-opacity="1" stop-color="rgb(47.087097%, 4.370117%, 29.22821%)" offset="0.875"/><stop stop-opacity="1" stop-color="rgb(47.476196%, 4.38385%, 29.278564%)" offset="1"/></linearGradient><clipPath id="36a4196e5f"><path d="M 96 10 L 104 10 L 104 29 L 96 29 Z M 96 10 " clip-rule="nonzero"/></clipPath><clipPath id="6394d42fe2"><path d="M 98.84375 26.949219 L 98.84375 11.351562 C 98.84375 11.042969 98.585938 10.8125 98.273438 10.785156 L 96.980469 10.785156 L 96.980469 28.769531 L 101.4375 28.769531 C 102.035156 28.769531 102.320312 28.511719 102.453125 28.28125 C 102.53125 28.128906 102.839844 27.410156 103.046875 26.949219 Z M 98.84375 26.949219 " clip-rule="nonzero"/></clipPath><linearGradient x1="0.447312" gradientTransform="matrix(208.439642, -0.414217, 0.418366, 206.372763, 3.722304, 19.523559)" y1="0" x2="0.476605" gradientUnits="userSpaceOnUse" y2="0" id="d7d2683952"><stop stop-opacity="1" stop-color="rgb(51.472473%, 4.530334%, 29.798889%)" offset="0"/><stop stop-opacity="1" stop-color="rgb(51.63269%, 4.536438%, 29.818726%)" offset="0.125"/><stop stop-opacity="1" stop-color="rgb(51.954651%, 4.548645%, 29.86145%)" offset="0.25"/><stop stop-opacity="1" stop-color="rgb(52.276611%, 4.559326%, 29.902649%)" offset="0.375"/><stop stop-opacity="1" stop-color="rgb(52.598572%, 4.571533%, 29.943848%)" offset="0.5"/><stop stop-opacity="1" stop-color="rgb(52.919006%, 4.58374%, 29.986572%)" offset="0.625"/><stop stop-opacity="1" stop-color="rgb(53.240967%, 4.594421%, 30.027771%)" offset="0.75"/><stop stop-opacity="1" stop-color="rgb(53.562927%, 4.606628%, 30.06897%)" offset="0.875"/><stop stop-opacity="1" stop-color="rgb(53.883362%, 4.618835%, 30.111694%)" offset="1"/></linearGradient><clipPath id="c7267eff49"><path d="M 109 27 L 118 27 L 118 29 L 109 29 Z M 109 27 " clip-rule="nonzero"/></clipPath><clipPath id="dacbff8cdc"><path d="M 117.296875 27.539062 L 110.371094 27.539062 C 110.085938 27.539062 109.824219 27.792969 109.824219 28.078125 L 109.824219 28.769531 L 116.75 28.769531 C 117.035156 28.769531 117.296875 28.511719 117.296875 28.203125 Z M 117.296875 27.539062 " clip-rule="nonzero"/></clipPath><linearGradient x1="0.508943" gradientTransform="matrix(208.439642, -0.414217, 0.418366, 206.372763, 3.722304, 19.523559)" y1="0" x2="0.544797" gradientUnits="userSpaceOnUse" y2="0" id="2b29563e78"><stop stop-opacity="1" stop-color="rgb(56.884766%, 4.727173%, 30.500793%)" offset="0"/><stop stop-opacity="1" stop-color="rgb(56.982422%, 4.730225%, 30.513%)" offset="0.0625"/><stop stop-opacity="1" stop-color="rgb(57.17926%, 4.737854%, 30.53894%)" offset="0.125"/><stop stop-opacity="1" stop-color="rgb(57.376099%, 4.745483%, 30.56488%)" offset="0.1875"/><stop stop-opacity="1" stop-color="rgb(57.572937%, 4.753113%, 30.589294%)" offset="0.25"/><stop stop-opacity="1" stop-color="rgb(57.769775%, 4.759216%, 30.615234%)" offset="0.3125"/><stop stop-opacity="1" stop-color="rgb(57.966614%, 4.766846%, 30.641174%)" offset="0.375"/><stop stop-opacity="1" stop-color="rgb(58.161926%, 4.774475%, 30.667114%)" offset="0.4375"/><stop stop-opacity="1" stop-color="rgb(58.358765%, 4.780579%, 30.691528%)" offset="0.5"/><stop stop-opacity="1" stop-color="rgb(58.555603%, 4.788208%, 30.717468%)" offset="0.5625"/><stop stop-opacity="1" stop-color="rgb(58.752441%, 4.795837%, 30.743408%)" offset="0.625"/><stop stop-opacity="1" stop-color="rgb(58.94928%, 4.801941%, 30.769348%)" offset="0.6875"/><stop stop-opacity="1" stop-color="rgb(59.146118%, 4.80957%, 30.793762%)" offset="0.75"/><stop stop-opacity="1" stop-color="rgb(59.342957%, 4.8172%, 30.819702%)" offset="0.8125"/><stop stop-opacity="1" stop-color="rgb(59.539795%, 4.824829%, 30.845642%)" offset="0.875"/><stop stop-opacity="1" stop-color="rgb(59.736633%, 4.830933%, 30.871582%)" offset="0.9375"/><stop stop-opacity="1" stop-color="rgb(59.933472%, 4.838562%, 30.895996%)" offset="1"/></linearGradient><clipPath id="ff81f6eae3"><path d="M 126 10 L 133 10 L 133 29 L 126 29 Z M 126 10 " clip-rule="nonzero"/></clipPath><clipPath id="37d3ea6183"><path d="M 132.972656 28.769531 L 129.832031 18.929688 L 132.765625 10.835938 L 130.816406 10.835938 L 128.535156 17.335938 L 128.535156 10.785156 L 127.289062 10.785156 C 127.082031 10.8125 126.695312 10.914062 126.695312 11.480469 L 126.695312 28.769531 L 128.535156 28.769531 L 128.535156 20.726562 L 131.027344 28.769531 Z M 132.972656 28.769531 " clip-rule="nonzero"/></clipPath><linearGradient x1="0.589875" gradientTransform="matrix(208.439642, -0.414217, 0.418366, 206.372763, 3.722304, 19.523559)" y1="0" x2="0.620164" gradientUnits="userSpaceOnUse" y2="0" id="813ca6f2c5"><stop stop-opacity="1" stop-color="rgb(63.990784%, 4.986572%, 31.42395%)" offset="0"/><stop stop-opacity="1" stop-color="rgb(64.157104%, 4.992676%, 31.445312%)" offset="0.125"/><stop stop-opacity="1" stop-color="rgb(64.48822%, 5.004883%, 31.488037%)" offset="0.25"/><stop stop-opacity="1" stop-color="rgb(64.820862%, 5.01709%, 31.530762%)" offset="0.375"/><stop stop-opacity="1" stop-color="rgb(65.153503%, 5.029297%, 31.575012%)" offset="0.5"/><stop stop-opacity="1" stop-color="rgb(65.486145%, 5.041504%, 31.617737%)" offset="0.625"/><stop stop-opacity="1" stop-color="rgb(65.818787%, 5.053711%, 31.660461%)" offset="0.75"/><stop stop-opacity="1" stop-color="rgb(66.151428%, 5.065918%, 31.704712%)" offset="0.875"/><stop stop-opacity="1" stop-color="rgb(66.48407%, 5.078125%, 31.747437%)" offset="1"/></linearGradient><clipPath id="665a49c4ed"><path d="M 141 10 L 148 10 L 148 29 L 141 29 Z M 141 10 " clip-rule="nonzero"/></clipPath><clipPath id="4a2b265e87"><path d="M 147.6875 10.785156 L 145.820312 10.785156 L 145.820312 21.136719 L 143.898438 11.789062 C 143.792969 11.273438 143.609375 10.785156 142.574219 10.785156 L 141.71875 10.785156 L 141.71875 28.769531 L 143.585938 28.769531 L 143.585938 18.722656 L 145.585938 27.613281 C 145.664062 27.972656 145.820312 28.769531 146.832031 28.769531 L 147.6875 28.769531 Z M 147.6875 10.785156 " clip-rule="nonzero"/></clipPath><linearGradient x1="0.661959" gradientTransform="matrix(208.439642, -0.414217, 0.418366, 206.372763, 3.722304, 19.523559)" y1="0" x2="0.690754" gradientUnits="userSpaceOnUse" y2="0" id="110546ee70"><stop stop-opacity="1" stop-color="rgb(70.318604%, 5.21698%, 32.244873%)" offset="0"/><stop stop-opacity="1" stop-color="rgb(70.477295%, 5.223083%, 32.264709%)" offset="0.125"/><stop stop-opacity="1" stop-color="rgb(70.793152%, 5.233765%, 32.305908%)" offset="0.25"/><stop stop-opacity="1" stop-color="rgb(71.109009%, 5.245972%, 32.347107%)" offset="0.375"/><stop stop-opacity="1" stop-color="rgb(71.424866%, 5.258179%, 32.388306%)" offset="0.5"/><stop stop-opacity="1" stop-color="rgb(71.740723%, 5.26886%, 32.429504%)" offset="0.625"/><stop stop-opacity="1" stop-color="rgb(72.05658%, 5.281067%, 32.470703%)" offset="0.75"/><stop stop-opacity="1" stop-color="rgb(72.372437%, 5.291748%, 32.511902%)" offset="0.875"/><stop stop-opacity="1" stop-color="rgb(72.688293%, 5.303955%, 32.553101%)" offset="1"/></linearGradient><clipPath id="8d1b2919aa"><path d="M 158 10 L 160 10 L 160 29 L 158 29 Z M 158 10 " clip-rule="nonzero"/></clipPath><clipPath id="91c8705d89"><path d="M 158.042969 10.785156 L 158.042969 28.382812 C 158.070312 28.511719 158.148438 28.769531 158.589844 28.769531 L 159.910156 28.769531 L 159.910156 11.503906 C 159.910156 11.195312 159.703125 10.785156 159.160156 10.785156 Z M 158.042969 10.785156 " clip-rule="nonzero"/></clipPath><linearGradient x1="0.740276" gradientTransform="matrix(208.439642, -0.414217, 0.418366, 206.372763, 3.722304, 19.523559)" y1="0" x2="0.749399" gradientUnits="userSpaceOnUse" y2="0" id="26fe1fad52"><stop stop-opacity="1" stop-color="rgb(77.19574%, 5.46875%, 33.139038%)" offset="0"/><stop stop-opacity="1" stop-color="rgb(77.294922%, 5.471802%, 33.151245%)" offset="0.25"/><stop stop-opacity="1" stop-color="rgb(77.494812%, 5.477905%, 33.177185%)" offset="0.5"/><stop stop-opacity="1" stop-color="rgb(77.696228%, 5.485535%, 33.203125%)" offset="0.75"/><stop stop-opacity="1" stop-color="rgb(77.896118%, 5.493164%, 33.229065%)" offset="1"/></linearGradient><clipPath id="db2f5ec05b"><path d="M 170 10 L 177 10 L 177 29 L 170 29 Z M 170 10 " clip-rule="nonzero"/></clipPath><clipPath id="d655555e87"><path d="M 176.105469 12.890625 C 176.105469 11.65625 175.09375 10.65625 173.847656 10.605469 L 172.703125 10.605469 C 171.433594 10.605469 170.398438 11.632812 170.398438 12.890625 L 170.398438 26.664062 C 170.398438 27.921875 171.433594 28.949219 172.703125 28.949219 L 173.847656 28.949219 C 175.09375 28.898438 176.105469 27.898438 176.105469 26.664062 L 176.105469 20.109375 C 176.105469 19.417969 175.765625 19.109375 175.195312 19.109375 L 172.859375 19.109375 L 173.484375 20.394531 C 173.484375 20.394531 173.746094 20.984375 174.160156 20.984375 L 174.238281 20.984375 L 174.238281 26.355469 C 174.238281 26.894531 173.796875 27.332031 173.25 27.332031 C 172.703125 27.332031 172.261719 26.894531 172.261719 26.355469 L 172.261719 13.199219 C 172.261719 12.65625 172.703125 12.222656 173.25 12.222656 C 173.796875 12.222656 174.238281 12.65625 174.238281 13.199219 L 174.238281 17.3125 C 174.730469 17.105469 175.457031 16.769531 175.585938 16.695312 C 175.84375 16.566406 176.105469 16.308594 176.105469 15.691406 Z M 176.105469 12.890625 " clip-rule="nonzero"/></clipPath><linearGradient x1="0.799538" gradientTransform="matrix(208.439642, -0.414217, 0.418366, 206.372763, 3.722304, 19.523559)" y1="0" x2="0.827092" gradientUnits="userSpaceOnUse" y2="0" id="a25d9c3f99"><stop stop-opacity="1" stop-color="rgb(82.398987%, 5.657959%, 33.813477%)" offset="0"/><stop stop-opacity="1" stop-color="rgb(82.550049%, 5.662537%, 33.833313%)" offset="0.125"/><stop stop-opacity="1" stop-color="rgb(82.852173%, 5.673218%, 33.872986%)" offset="0.25"/><stop stop-opacity="1" stop-color="rgb(83.154297%, 5.685425%, 33.912659%)" offset="0.375"/><stop stop-opacity="1" stop-color="rgb(83.456421%, 5.696106%, 33.950806%)" offset="0.5"/><stop stop-opacity="1" stop-color="rgb(83.760071%, 5.706787%, 33.990479%)" offset="0.625"/><stop stop-opacity="1" stop-color="rgb(84.062195%, 5.717468%, 34.030151%)" offset="0.75"/><stop stop-opacity="1" stop-color="rgb(84.364319%, 5.728149%, 34.068298%)" offset="0.875"/><stop stop-opacity="1" stop-color="rgb(84.666443%, 5.740356%, 34.107971%)" offset="1"/></linearGradient><clipPath id="0adbeae569"><path d="M 185 10 L 192 10 L 192 29 L 185 29 Z M 185 10 " clip-rule="nonzero"/></clipPath><clipPath id="c12139758d"><path d="M 190.070312 10.785156 L 190.070312 18.699219 L 188.25 18.699219 C 187.808594 18.699219 187.601562 18.570312 187.601562 18.058594 L 187.601562 10.785156 L 186.488281 10.785156 C 185.917969 10.785156 185.734375 11.195312 185.734375 11.503906 L 185.734375 28.769531 L 187.601562 28.769531 L 187.601562 20.519531 L 189.628906 20.519531 C 189.859375 20.519531 190.042969 20.699219 190.070312 20.929688 L 190.070312 28.769531 L 191.933594 28.769531 L 191.933594 11.503906 C 191.933594 11.195312 191.753906 10.785156 191.183594 10.785156 Z M 190.070312 10.785156 " clip-rule="nonzero"/></clipPath><linearGradient x1="0.873122" gradientTransform="matrix(208.439642, -0.414217, 0.418366, 206.372763, 3.722304, 19.523559)" y1="0" x2="0.903038" gradientUnits="userSpaceOnUse" y2="0" id="ea9051342a"><stop stop-opacity="1" stop-color="rgb(88.859558%, 5.892944%, 34.65271%)" offset="0"/><stop stop-opacity="1" stop-color="rgb(89.022827%, 5.899048%, 34.674072%)" offset="0.125"/><stop stop-opacity="1" stop-color="rgb(89.350891%, 5.911255%, 34.716797%)" offset="0.25"/><stop stop-opacity="1" stop-color="rgb(89.678955%, 5.923462%, 34.759521%)" offset="0.375"/><stop stop-opacity="1" stop-color="rgb(90.008545%, 5.935669%, 34.802246%)" offset="0.5"/><stop stop-opacity="1" stop-color="rgb(90.336609%, 5.94635%, 34.844971%)" offset="0.625"/><stop stop-opacity="1" stop-color="rgb(90.664673%, 5.958557%, 34.887695%)" offset="0.75"/><stop stop-opacity="1" stop-color="rgb(90.992737%, 5.970764%, 34.93042%)" offset="0.875"/><stop stop-opacity="1" stop-color="rgb(91.320801%, 5.982971%, 34.973145%)" offset="1"/></linearGradient><clipPath id="d169f2305f"><path d="M 200 10 L 209 10 L 209 29 L 200 29 Z M 200 10 " clip-rule="nonzero"/></clipPath><clipPath id="00c978494b"><path d="M 208.050781 10.785156 L 200.632812 10.785156 C 200.320312 10.785156 200.058594 11.042969 200.058594 11.351562 L 200.058594 12.605469 L 202.679688 12.605469 L 202.679688 28.382812 C 202.679688 28.511719 202.757812 28.769531 203.199219 28.769531 L 204.519531 28.769531 L 204.519531 13.042969 C 204.546875 12.8125 204.730469 12.605469 204.988281 12.605469 L 206.441406 12.605469 C 207.039062 12.605469 207.324219 12.351562 207.425781 12.117188 Z M 208.050781 10.785156 " clip-rule="nonzero"/></clipPath><linearGradient x1="0.941848" gradientTransform="matrix(208.439642, -0.414217, 0.418366, 206.372763, 3.722304, 19.523559)" y1="0" x2="0.980355" gradientUnits="userSpaceOnUse" y2="0" id="254a61b545"><stop stop-opacity="1" stop-color="rgb(94.892883%, 6.112671%, 35.437012%)" offset="0"/><stop stop-opacity="1" stop-color="rgb(94.998169%, 6.115723%, 35.450745%)" offset="0.0625"/><stop stop-opacity="1" stop-color="rgb(95.210266%, 6.123352%, 35.47821%)" offset="0.125"/><stop stop-opacity="1" stop-color="rgb(95.420837%, 6.130981%, 35.50415%)" offset="0.1875"/><stop stop-opacity="1" stop-color="rgb(95.632935%, 6.140137%, 35.531616%)" offset="0.25"/><stop stop-opacity="1" stop-color="rgb(95.843506%, 6.147766%, 35.559082%)" offset="0.3125"/><stop stop-opacity="1" stop-color="rgb(96.055603%, 6.155396%, 35.586548%)" offset="0.375"/><stop stop-opacity="1" stop-color="rgb(96.266174%, 6.163025%, 35.614014%)" offset="0.4375"/><stop stop-opacity="1" stop-color="rgb(96.478271%, 6.170654%, 35.641479%)" offset="0.5"/><stop stop-opacity="1" stop-color="rgb(96.688843%, 6.178284%, 35.668945%)" offset="0.5625"/><stop stop-opacity="1" stop-color="rgb(96.90094%, 6.185913%, 35.696411%)" offset="0.625"/><stop stop-opacity="1" stop-color="rgb(97.111511%, 6.193542%, 35.723877%)" offset="0.6875"/><stop stop-opacity="1" stop-color="rgb(97.323608%, 6.201172%, 35.751343%)" offset="0.75"/><stop stop-opacity="1" stop-color="rgb(97.53418%, 6.208801%, 35.778809%)" offset="0.8125"/><stop stop-opacity="1" stop-color="rgb(97.746277%, 6.216431%, 35.806274%)" offset="0.875"/><stop stop-opacity="1" stop-color="rgb(97.956848%, 6.22406%, 35.83374%)" offset="0.9375"/><stop stop-opacity="1" stop-color="rgb(98.168945%, 6.231689%, 35.861206%)" offset="1"/></linearGradient></defs><rect x="-76.8" width="921.6" fill="#ffffff" y="-44.999998" height="539.99998" fill-opacity="1"/><rect x="-76.8" width="921.6" fill="#ffffff" y="-44.999998" height="539.99998" fill-opacity="1"/><rect x="-76.8" width="921.6" fill="#1e2431" y="-44.999998" height="539.99998" fill-opacity="1"/><g clip-path="url(#60ddf5ef96)"><path fill="#7ed957" d="M 233.484375 122.1875 L 356.78125 122.1875 L 356.78125 170.835938 L 233.484375 170.835938 Z M 233.484375 122.1875 " fill-opacity="1" fill-rule="nonzero"/></g><g fill="#1e2431" fill-opacity="1"><g transform="translate(259.234067, 151.435623)"><g><path d="M 1.203125 0 L 1.203125 -8.375 L 3.21875 -8.375 L 3.21875 -7.25 L 3.390625 -7.21875 C 3.660156 -7.664062 3.976562 -7.992188 4.34375 -8.203125 C 4.707031 -8.421875 5.175781 -8.53125 5.75 -8.53125 C 6.382812 -8.53125 6.894531 -8.40625 7.28125 -8.15625 C 7.664062 -7.90625 7.945312 -7.539062 8.125 -7.0625 L 8.28125 -7.0625 C 8.539062 -7.5625 8.875 -7.929688 9.28125 -8.171875 C 9.6875 -8.410156 10.191406 -8.53125 10.796875 -8.53125 C 12.535156 -8.53125 13.40625 -7.5625 13.40625 -5.625 L 13.40625 0 L 11.296875 0 L 11.296875 -5.359375 C 11.296875 -5.859375 11.195312 -6.210938 11 -6.421875 C 10.8125 -6.640625 10.507812 -6.75 10.09375 -6.75 C 8.9375 -6.75 8.359375 -5.976562 8.359375 -4.4375 L 8.359375 0 L 6.25 0 L 6.25 -5.359375 C 6.25 -5.859375 6.148438 -6.210938 5.953125 -6.421875 C 5.765625 -6.640625 5.457031 -6.75 5.03125 -6.75 C 4.488281 -6.75 4.066406 -6.566406 3.765625 -6.203125 C 3.460938 -5.847656 3.3125 -5.273438 3.3125 -4.484375 L 3.3125 0 Z M 1.203125 0 "/></g></g></g><g fill="#1e2431" fill-opacity="1"><g transform="translate(274.488536, 151.435623)"><g><path d="M 8.28125 -3.71875 L 2.90625 -3.703125 C 2.957031 -2.972656 3.160156 -2.441406 3.515625 -2.109375 C 3.867188 -1.785156 4.351562 -1.625 4.96875 -1.625 C 5.445312 -1.625 5.832031 -1.710938 6.125 -1.890625 C 6.425781 -2.066406 6.671875 -2.335938 6.859375 -2.703125 L 7.015625 -2.703125 L 8.40625 -1.8125 C 8.132812 -1.226562 7.722656 -0.753906 7.171875 -0.390625 C 6.617188 -0.0234375 5.882812 0.15625 4.96875 0.15625 C 4.101562 0.15625 3.351562 -0.00390625 2.71875 -0.328125 C 2.09375 -0.660156 1.609375 -1.148438 1.265625 -1.796875 C 0.921875 -2.453125 0.75 -3.25 0.75 -4.1875 C 0.75 -5.132812 0.925781 -5.929688 1.28125 -6.578125 C 1.644531 -7.234375 2.132812 -7.722656 2.75 -8.046875 C 3.363281 -8.367188 4.050781 -8.53125 4.8125 -8.53125 C 6 -8.53125 6.90625 -8.21875 7.53125 -7.59375 C 8.164062 -6.96875 8.484375 -6.046875 8.484375 -4.828125 C 8.484375 -4.390625 8.46875 -4.046875 8.4375 -3.796875 Z M 6.46875 -5.078125 C 6.445312 -5.710938 6.296875 -6.175781 6.015625 -6.46875 C 5.742188 -6.757812 5.34375 -6.90625 4.8125 -6.90625 C 3.75 -6.90625 3.125 -6.296875 2.9375 -5.078125 Z M 6.46875 -5.078125 "/></g></g></g><g fill="#1e2431" fill-opacity="1"><g transform="translate(284.363517, 151.435623)"><g><path d="M 5.78125 -2 L 6.328125 -0.4375 C 6.097656 -0.25 5.8125 -0.101562 5.46875 0 C 5.125 0.101562 4.734375 0.15625 4.296875 0.15625 C 3.390625 0.15625 2.703125 -0.0859375 2.234375 -0.578125 C 1.765625 -1.078125 1.53125 -1.796875 1.53125 -2.734375 L 1.53125 -6.703125 L 0.25 -6.703125 L 0.25 -8.375 L 1.53125 -8.375 L 1.53125 -10.015625 L 3.625 -10.359375 L 3.625 -8.375 L 6 -8.375 L 6 -6.703125 L 3.625 -6.703125 L 3.625 -2.890625 C 3.625 -2.472656 3.707031 -2.164062 3.875 -1.96875 C 4.050781 -1.78125 4.304688 -1.6875 4.640625 -1.6875 C 5.015625 -1.6875 5.34375 -1.789062 5.625 -2 Z M 5.78125 -2 "/></g></g></g><g fill="#1e2431" fill-opacity="1"><g transform="translate(291.643595, 151.435623)"><g><path d="M 1.203125 0 L 1.203125 -11.734375 L 3.3125 -11.734375 L 3.3125 -7.28125 L 3.46875 -7.25 C 3.75 -7.65625 4.085938 -7.96875 4.484375 -8.1875 C 4.890625 -8.414062 5.378906 -8.53125 5.953125 -8.53125 C 7.804688 -8.53125 8.734375 -7.484375 8.734375 -5.390625 L 8.734375 0 L 6.625 0 L 6.625 -5.125 C 6.625 -5.695312 6.507812 -6.109375 6.28125 -6.359375 C 6.050781 -6.617188 5.695312 -6.75 5.21875 -6.75 C 4.632812 -6.75 4.171875 -6.550781 3.828125 -6.15625 C 3.484375 -5.769531 3.3125 -5.160156 3.3125 -4.328125 L 3.3125 0 Z M 1.203125 0 "/></g></g></g><g fill="#1e2431" fill-opacity="1"><g transform="translate(302.224206, 151.435623)"><g><path d="M 4.859375 0.15625 C 4.046875 0.15625 3.328125 -0.0078125 2.703125 -0.34375 C 2.085938 -0.675781 1.609375 -1.164062 1.265625 -1.8125 C 0.921875 -2.46875 0.75 -3.257812 0.75 -4.1875 C 0.75 -5.101562 0.921875 -5.882812 1.265625 -6.53125 C 1.609375 -7.1875 2.085938 -7.679688 2.703125 -8.015625 C 3.328125 -8.359375 4.046875 -8.53125 4.859375 -8.53125 C 5.679688 -8.53125 6.398438 -8.359375 7.015625 -8.015625 C 7.640625 -7.679688 8.125 -7.1875 8.46875 -6.53125 C 8.8125 -5.882812 8.984375 -5.101562 8.984375 -4.1875 C 8.984375 -3.257812 8.8125 -2.46875 8.46875 -1.8125 C 8.125 -1.164062 7.640625 -0.675781 7.015625 -0.34375 C 6.398438 -0.0078125 5.679688 0.15625 4.859375 0.15625 Z M 4.859375 -1.625 C 6.160156 -1.625 6.8125 -2.476562 6.8125 -4.1875 C 6.8125 -5.070312 6.644531 -5.71875 6.3125 -6.125 C 5.976562 -6.539062 5.492188 -6.75 4.859375 -6.75 C 3.566406 -6.75 2.921875 -5.894531 2.921875 -4.1875 C 2.921875 -2.476562 3.566406 -1.625 4.859375 -1.625 Z M 4.859375 -1.625 "/></g></g></g><g fill="#1e2431" fill-opacity="1"><g transform="translate(312.728943, 151.435623)"><g><path d="M 4.140625 0.15625 C 3.472656 0.15625 2.882812 0 2.375 -0.3125 C 1.863281 -0.632812 1.460938 -1.117188 1.171875 -1.765625 C 0.890625 -2.421875 0.75 -3.226562 0.75 -4.1875 C 0.75 -5.144531 0.894531 -5.945312 1.1875 -6.59375 C 1.488281 -7.238281 1.898438 -7.722656 2.421875 -8.046875 C 2.953125 -8.367188 3.5625 -8.53125 4.25 -8.53125 C 4.769531 -8.53125 5.21875 -8.441406 5.59375 -8.265625 C 5.976562 -8.085938 6.300781 -7.804688 6.5625 -7.421875 L 6.71875 -7.46875 L 6.71875 -11.734375 L 8.828125 -11.734375 L 8.828125 0 L 6.71875 0 L 6.71875 -1.078125 L 6.5625 -1.109375 C 6.332031 -0.722656 6.015625 -0.414062 5.609375 -0.1875 C 5.203125 0.0390625 4.710938 0.15625 4.140625 0.15625 Z M 4.828125 -1.625 C 5.410156 -1.625 5.875 -1.832031 6.21875 -2.25 C 6.5625 -2.675781 6.734375 -3.320312 6.734375 -4.1875 C 6.734375 -5.039062 6.5625 -5.679688 6.21875 -6.109375 C 5.875 -6.535156 5.410156 -6.75 4.828125 -6.75 C 4.203125 -6.75 3.726562 -6.539062 3.40625 -6.125 C 3.082031 -5.71875 2.921875 -5.070312 2.921875 -4.1875 C 2.921875 -3.300781 3.082031 -2.648438 3.40625 -2.234375 C 3.726562 -1.828125 4.203125 -1.625 4.828125 -1.625 Z M 4.828125 -1.625 "/></g></g></g><g fill="#1e2431" fill-opacity="1"><g transform="translate(323.537178, 151.435623)"><g><path d="M 3.921875 0.15625 C 3.347656 0.15625 2.820312 0.0859375 2.34375 -0.046875 C 1.863281 -0.179688 1.457031 -0.363281 1.125 -0.59375 C 0.789062 -0.832031 0.539062 -1.101562 0.375 -1.40625 L 1.546875 -2.671875 L 1.703125 -2.671875 C 1.984375 -2.296875 2.3125 -2.015625 2.6875 -1.828125 C 3.070312 -1.640625 3.488281 -1.546875 3.9375 -1.546875 C 4.34375 -1.546875 4.648438 -1.617188 4.859375 -1.765625 C 5.066406 -1.910156 5.171875 -2.117188 5.171875 -2.390625 C 5.171875 -2.597656 5.09375 -2.773438 4.9375 -2.921875 C 4.789062 -3.066406 4.550781 -3.179688 4.21875 -3.265625 L 3.109375 -3.53125 C 2.285156 -3.726562 1.679688 -4.03125 1.296875 -4.4375 C 0.910156 -4.84375 0.71875 -5.359375 0.71875 -5.984375 C 0.71875 -6.503906 0.847656 -6.957031 1.109375 -7.34375 C 1.378906 -7.726562 1.753906 -8.019531 2.234375 -8.21875 C 2.722656 -8.425781 3.289062 -8.53125 3.9375 -8.53125 C 4.6875 -8.53125 5.304688 -8.421875 5.796875 -8.203125 C 6.296875 -7.984375 6.6875 -7.691406 6.96875 -7.328125 L 5.84375 -6.125 L 5.6875 -6.125 C 5.457031 -6.382812 5.195312 -6.570312 4.90625 -6.6875 C 4.613281 -6.8125 4.289062 -6.875 3.9375 -6.875 C 3.101562 -6.875 2.6875 -6.617188 2.6875 -6.109375 C 2.6875 -5.890625 2.765625 -5.707031 2.921875 -5.5625 C 3.078125 -5.425781 3.347656 -5.316406 3.734375 -5.234375 L 4.765625 -5.015625 C 5.617188 -4.828125 6.238281 -4.53125 6.625 -4.125 C 7.019531 -3.726562 7.21875 -3.191406 7.21875 -2.515625 C 7.21875 -1.984375 7.085938 -1.515625 6.828125 -1.109375 C 6.566406 -0.703125 6.1875 -0.390625 5.6875 -0.171875 C 5.1875 0.046875 4.597656 0.15625 3.921875 0.15625 Z M 3.921875 0.15625 "/></g></g></g><g clip-path="url(#7aceb7653e)"><path fill="#7ed957" d="M 416.78125 122.1875 L 540.078125 122.1875 L 540.078125 170.835938 L 416.78125 170.835938 Z M 416.78125 122.1875 " fill-opacity="1" fill-rule="nonzero"/></g><g fill="#1e2431" fill-opacity="1"><g transform="translate(436.729814, 151.435623)"><g><path d="M 4.875 0.15625 C 4.070312 0.15625 3.359375 -0.0078125 2.734375 -0.34375 C 2.109375 -0.675781 1.617188 -1.171875 1.265625 -1.828125 C 0.921875 -2.484375 0.75 -3.269531 0.75 -4.1875 C 0.75 -5.101562 0.921875 -5.882812 1.265625 -6.53125 C 1.617188 -7.1875 2.101562 -7.679688 2.71875 -8.015625 C 3.34375 -8.359375 4.050781 -8.53125 4.84375 -8.53125 C 6.613281 -8.53125 7.742188 -7.890625 8.234375 -6.609375 L 6.796875 -5.578125 L 6.640625 -5.578125 C 6.460938 -5.972656 6.234375 -6.265625 5.953125 -6.453125 C 5.679688 -6.648438 5.3125 -6.75 4.84375 -6.75 C 4.238281 -6.75 3.765625 -6.535156 3.421875 -6.109375 C 3.085938 -5.691406 2.921875 -5.050781 2.921875 -4.1875 C 2.921875 -3.320312 3.09375 -2.675781 3.4375 -2.25 C 3.78125 -1.832031 4.257812 -1.625 4.875 -1.625 C 5.332031 -1.625 5.71875 -1.742188 6.03125 -1.984375 C 6.351562 -2.234375 6.582031 -2.585938 6.71875 -3.046875 L 6.875 -3.0625 L 8.375 -2.25 C 8.15625 -1.539062 7.757812 -0.960938 7.1875 -0.515625 C 6.613281 -0.0664062 5.84375 0.15625 4.875 0.15625 Z M 4.875 0.15625 "/></g></g></g><g fill="#1e2431" fill-opacity="1"><g transform="translate(446.134373, 151.435623)"><g><path d="M 4.859375 0.15625 C 4.046875 0.15625 3.328125 -0.0078125 2.703125 -0.34375 C 2.085938 -0.675781 1.609375 -1.164062 1.265625 -1.8125 C 0.921875 -2.46875 0.75 -3.257812 0.75 -4.1875 C 0.75 -5.101562 0.921875 -5.882812 1.265625 -6.53125 C 1.609375 -7.1875 2.085938 -7.679688 2.703125 -8.015625 C 3.328125 -8.359375 4.046875 -8.53125 4.859375 -8.53125 C 5.679688 -8.53125 6.398438 -8.359375 7.015625 -8.015625 C 7.640625 -7.679688 8.125 -7.1875 8.46875 -6.53125 C 8.8125 -5.882812 8.984375 -5.101562 8.984375 -4.1875 C 8.984375 -3.257812 8.8125 -2.46875 8.46875 -1.8125 C 8.125 -1.164062 7.640625 -0.675781 7.015625 -0.34375 C 6.398438 -0.0078125 5.679688 0.15625 4.859375 0.15625 Z M 4.859375 -1.625 C 6.160156 -1.625 6.8125 -2.476562 6.8125 -4.1875 C 6.8125 -5.070312 6.644531 -5.71875 6.3125 -6.125 C 5.976562 -6.539062 5.492188 -6.75 4.859375 -6.75 C 3.566406 -6.75 2.921875 -5.894531 2.921875 -4.1875 C 2.921875 -2.476562 3.566406 -1.625 4.859375 -1.625 Z M 4.859375 -1.625 "/></g></g></g><g fill="#1e2431" fill-opacity="1"><g transform="translate(456.63911, 151.435623)"><g><path d="M 1.203125 0 L 1.203125 -8.375 L 3.21875 -8.375 L 3.21875 -7.25 L 3.390625 -7.21875 C 3.660156 -7.664062 3.976562 -7.992188 4.34375 -8.203125 C 4.707031 -8.421875 5.175781 -8.53125 5.75 -8.53125 C 6.382812 -8.53125 6.894531 -8.40625 7.28125 -8.15625 C 7.664062 -7.90625 7.945312 -7.539062 8.125 -7.0625 L 8.28125 -7.0625 C 8.539062 -7.5625 8.875 -7.929688 9.28125 -8.171875 C 9.6875 -8.410156 10.191406 -8.53125 10.796875 -8.53125 C 12.535156 -8.53125 13.40625 -7.5625 13.40625 -5.625 L 13.40625 0 L 11.296875 0 L 11.296875 -5.359375 C 11.296875 -5.859375 11.195312 -6.210938 11 -6.421875 C 10.8125 -6.640625 10.507812 -6.75 10.09375 -6.75 C 8.9375 -6.75 8.359375 -5.976562 8.359375 -4.4375 L 8.359375 0 L 6.25 0 L 6.25 -5.359375 C 6.25 -5.859375 6.148438 -6.210938 5.953125 -6.421875 C 5.765625 -6.640625 5.457031 -6.75 5.03125 -6.75 C 4.488281 -6.75 4.066406 -6.566406 3.765625 -6.203125 C 3.460938 -5.847656 3.3125 -5.273438 3.3125 -4.484375 L 3.3125 0 Z M 1.203125 0 "/></g></g></g><g fill="#1e2431" fill-opacity="1"><g transform="translate(471.893579, 151.435623)"><g><path d="M 1.203125 3.390625 L 1.203125 -8.375 L 3.3125 -8.375 L 3.3125 -7.28125 L 3.46875 -7.25 C 3.71875 -7.675781 4.050781 -7.992188 4.46875 -8.203125 C 4.882812 -8.421875 5.367188 -8.53125 5.921875 -8.53125 C 6.597656 -8.53125 7.1875 -8.367188 7.6875 -8.046875 C 8.1875 -7.734375 8.578125 -7.25 8.859375 -6.59375 C 9.140625 -5.945312 9.28125 -5.144531 9.28125 -4.1875 C 9.28125 -3.226562 9.128906 -2.421875 8.828125 -1.765625 C 8.535156 -1.117188 8.125 -0.632812 7.59375 -0.3125 C 7.070312 0 6.46875 0.15625 5.78125 0.15625 C 5.257812 0.15625 4.804688 0.0703125 4.421875 -0.09375 C 4.046875 -0.269531 3.726562 -0.546875 3.46875 -0.921875 L 3.3125 -0.890625 L 3.3125 3.390625 Z M 5.203125 -1.625 C 5.828125 -1.625 6.300781 -1.828125 6.625 -2.234375 C 6.945312 -2.648438 7.109375 -3.300781 7.109375 -4.1875 C 7.109375 -5.070312 6.945312 -5.71875 6.625 -6.125 C 6.300781 -6.539062 5.828125 -6.75 5.203125 -6.75 C 4.609375 -6.75 4.140625 -6.535156 3.796875 -6.109375 C 3.453125 -5.679688 3.28125 -5.039062 3.28125 -4.1875 C 3.28125 -3.332031 3.453125 -2.691406 3.796875 -2.265625 C 4.140625 -1.835938 4.609375 -1.625 5.203125 -1.625 Z M 5.203125 -1.625 "/></g></g></g><g fill="#1e2431" fill-opacity="1"><g transform="translate(482.694226, 151.435623)"><g><path d="M 3.828125 0.15625 C 2.890625 0.15625 2.195312 -0.0976562 1.75 -0.609375 C 1.300781 -1.117188 1.078125 -1.859375 1.078125 -2.828125 L 1.078125 -8.375 L 3.1875 -8.375 L 3.1875 -3.09375 C 3.1875 -2.582031 3.296875 -2.207031 3.515625 -1.96875 C 3.734375 -1.726562 4.070312 -1.609375 4.53125 -1.609375 C 5.113281 -1.609375 5.566406 -1.800781 5.890625 -2.1875 C 6.210938 -2.570312 6.375 -3.175781 6.375 -4 L 6.375 -8.375 L 8.484375 -8.375 L 8.484375 0 L 6.453125 0 L 6.453125 -1.234375 L 6.296875 -1.265625 C 6.023438 -0.785156 5.695312 -0.425781 5.3125 -0.1875 C 4.925781 0.0390625 4.429688 0.15625 3.828125 0.15625 Z M 3.828125 0.15625 "/></g></g></g><g fill="#1e2431" fill-opacity="1"><g transform="translate(493.153439, 151.435623)"><g><path d="M 5.78125 -2 L 6.328125 -0.4375 C 6.097656 -0.25 5.8125 -0.101562 5.46875 0 C 5.125 0.101562 4.734375 0.15625 4.296875 0.15625 C 3.390625 0.15625 2.703125 -0.0859375 2.234375 -0.578125 C 1.765625 -1.078125 1.53125 -1.796875 1.53125 -2.734375 L 1.53125 -6.703125 L 0.25 -6.703125 L 0.25 -8.375 L 1.53125 -8.375 L 1.53125 -10.015625 L 3.625 -10.359375 L 3.625 -8.375 L 6 -8.375 L 6 -6.703125 L 3.625 -6.703125 L 3.625 -2.890625 C 3.625 -2.472656 3.707031 -2.164062 3.875 -1.96875 C 4.050781 -1.78125 4.304688 -1.6875 4.640625 -1.6875 C 5.015625 -1.6875 5.34375 -1.789062 5.625 -2 Z M 5.78125 -2 "/></g></g></g><g fill="#1e2431" fill-opacity="1"><g transform="translate(500.433517, 151.435623)"><g><path d="M 8.28125 -3.71875 L 2.90625 -3.703125 C 2.957031 -2.972656 3.160156 -2.441406 3.515625 -2.109375 C 3.867188 -1.785156 4.351562 -1.625 4.96875 -1.625 C 5.445312 -1.625 5.832031 -1.710938 6.125 -1.890625 C 6.425781 -2.066406 6.671875 -2.335938 6.859375 -2.703125 L 7.015625 -2.703125 L 8.40625 -1.8125 C 8.132812 -1.226562 7.722656 -0.753906 7.171875 -0.390625 C 6.617188 -0.0234375 5.882812 0.15625 4.96875 0.15625 C 4.101562 0.15625 3.351562 -0.00390625 2.71875 -0.328125 C 2.09375 -0.660156 1.609375 -1.148438 1.265625 -1.796875 C 0.921875 -2.453125 0.75 -3.25 0.75 -4.1875 C 0.75 -5.132812 0.925781 -5.929688 1.28125 -6.578125 C 1.644531 -7.234375 2.132812 -7.722656 2.75 -8.046875 C 3.363281 -8.367188 4.050781 -8.53125 4.8125 -8.53125 C 6 -8.53125 6.90625 -8.21875 7.53125 -7.59375 C 8.164062 -6.96875 8.484375 -6.046875 8.484375 -4.828125 C 8.484375 -4.390625 8.46875 -4.046875 8.4375 -3.796875 Z M 6.46875 -5.078125 C 6.445312 -5.710938 6.296875 -6.175781 6.015625 -6.46875 C 5.742188 -6.757812 5.34375 -6.90625 4.8125 -6.90625 C 3.75 -6.90625 3.125 -6.296875 2.9375 -5.078125 Z M 6.46875 -5.078125 "/></g></g></g><g fill="#1e2431" fill-opacity="1"><g transform="translate(510.308497, 151.435623)"><g><path d="M 4.140625 0.15625 C 3.472656 0.15625 2.882812 0 2.375 -0.3125 C 1.863281 -0.632812 1.460938 -1.117188 1.171875 -1.765625 C 0.890625 -2.421875 0.75 -3.226562 0.75 -4.1875 C 0.75 -5.144531 0.894531 -5.945312 1.1875 -6.59375 C 1.488281 -7.238281 1.898438 -7.722656 2.421875 -8.046875 C 2.953125 -8.367188 3.5625 -8.53125 4.25 -8.53125 C 4.769531 -8.53125 5.21875 -8.441406 5.59375 -8.265625 C 5.976562 -8.085938 6.300781 -7.804688 6.5625 -7.421875 L 6.71875 -7.46875 L 6.71875 -11.734375 L 8.828125 -11.734375 L 8.828125 0 L 6.71875 0 L 6.71875 -1.078125 L 6.5625 -1.109375 C 6.332031 -0.722656 6.015625 -0.414062 5.609375 -0.1875 C 5.203125 0.0390625 4.710938 0.15625 4.140625 0.15625 Z M 4.828125 -1.625 C 5.410156 -1.625 5.875 -1.832031 6.21875 -2.25 C 6.5625 -2.675781 6.734375 -3.320312 6.734375 -4.1875 C 6.734375 -5.039062 6.5625 -5.679688 6.21875 -6.109375 C 5.875 -6.535156 5.410156 -6.75 4.828125 -6.75 C 4.203125 -6.75 3.726562 -6.539062 3.40625 -6.125 C 3.082031 -5.71875 2.921875 -5.070312 2.921875 -4.1875 C 2.921875 -3.300781 3.082031 -2.648438 3.40625 -2.234375 C 3.726562 -1.828125 4.203125 -1.625 4.828125 -1.625 Z M 4.828125 -1.625 "/></g></g></g><path stroke-linecap="round" transform="matrix(0.752941, 0, 0, 0.75, 357.008511, 145.291966)" fill="none" stroke-linejoin="miter" d="M 1.498401 1.501337 L 78.197618 1.501337 " stroke="#ffffff" stroke-width="3" stroke-opacity="1" stroke-miterlimit="4"/><g clip-path="url(#18ff4b028e)"><path fill="#7ed957" d="M 50.1875 122.1875 L 173.484375 122.1875 L 173.484375 170.835938 L 50.1875 170.835938 Z M 50.1875 122.1875 " fill-opacity="1" fill-rule="nonzero"/></g><g fill="#1e2431" fill-opacity="1"><g transform="translate(87.386698, 151.435623)"><g><path d="M 4.140625 0.15625 C 3.472656 0.15625 2.882812 0 2.375 -0.3125 C 1.863281 -0.632812 1.460938 -1.117188 1.171875 -1.765625 C 0.890625 -2.421875 0.75 -3.226562 0.75 -4.1875 C 0.75 -5.144531 0.894531 -5.945312 1.1875 -6.59375 C 1.488281 -7.238281 1.898438 -7.722656 2.421875 -8.046875 C 2.953125 -8.367188 3.5625 -8.53125 4.25 -8.53125 C 4.769531 -8.53125 5.21875 -8.441406 5.59375 -8.265625 C 5.976562 -8.085938 6.300781 -7.804688 6.5625 -7.421875 L 6.71875 -7.46875 L 6.71875 -11.734375 L 8.828125 -11.734375 L 8.828125 0 L 6.71875 0 L 6.71875 -1.078125 L 6.5625 -1.109375 C 6.332031 -0.722656 6.015625 -0.414062 5.609375 -0.1875 C 5.203125 0.0390625 4.710938 0.15625 4.140625 0.15625 Z M 4.828125 -1.625 C 5.410156 -1.625 5.875 -1.832031 6.21875 -2.25 C 6.5625 -2.675781 6.734375 -3.320312 6.734375 -4.1875 C 6.734375 -5.039062 6.5625 -5.679688 6.21875 -6.109375 C 5.875 -6.535156 5.410156 -6.75 4.828125 -6.75 C 4.203125 -6.75 3.726562 -6.539062 3.40625 -6.125 C 3.082031 -5.71875 2.921875 -5.070312 2.921875 -4.1875 C 2.921875 -3.300781 3.082031 -2.648438 3.40625 -2.234375 C 3.726562 -1.828125 4.203125 -1.625 4.828125 -1.625 Z M 4.828125 -1.625 "/></g></g></g><g fill="#1e2431" fill-opacity="1"><g transform="translate(98.194932, 151.435623)"><g><path d="M 3.265625 0.15625 C 2.722656 0.15625 2.253906 0.0546875 1.859375 -0.140625 C 1.472656 -0.335938 1.171875 -0.625 0.953125 -1 C 0.742188 -1.382812 0.640625 -1.847656 0.640625 -2.390625 C 0.640625 -2.878906 0.742188 -3.289062 0.953125 -3.625 C 1.171875 -3.96875 1.5 -4.242188 1.9375 -4.453125 C 2.382812 -4.671875 2.96875 -4.835938 3.6875 -4.953125 C 4.1875 -5.035156 4.566406 -5.125 4.828125 -5.21875 C 5.085938 -5.3125 5.265625 -5.421875 5.359375 -5.546875 C 5.453125 -5.671875 5.5 -5.828125 5.5 -6.015625 C 5.5 -6.285156 5.40625 -6.488281 5.21875 -6.625 C 5.03125 -6.769531 4.71875 -6.84375 4.28125 -6.84375 C 3.8125 -6.84375 3.367188 -6.738281 2.953125 -6.53125 C 2.535156 -6.320312 2.171875 -6.046875 1.859375 -5.703125 L 1.703125 -5.703125 L 0.828125 -7.03125 C 1.253906 -7.507812 1.769531 -7.878906 2.375 -8.140625 C 2.988281 -8.398438 3.660156 -8.53125 4.390625 -8.53125 C 5.492188 -8.53125 6.289062 -8.296875 6.78125 -7.828125 C 7.28125 -7.359375 7.53125 -6.691406 7.53125 -5.828125 L 7.53125 -2.1875 C 7.53125 -1.8125 7.695312 -1.625 8.03125 -1.625 C 8.15625 -1.625 8.28125 -1.644531 8.40625 -1.6875 L 8.515625 -1.65625 L 8.65625 -0.203125 C 8.539062 -0.117188 8.378906 -0.0507812 8.171875 0 C 7.960938 0.0390625 7.738281 0.0625 7.5 0.0625 C 6.988281 0.0625 6.59375 -0.03125 6.3125 -0.21875 C 6.03125 -0.414062 5.832031 -0.71875 5.71875 -1.125 L 5.5625 -1.140625 C 5.144531 -0.273438 4.378906 0.15625 3.265625 0.15625 Z M 3.9375 -1.40625 C 4.414062 -1.40625 4.800781 -1.566406 5.09375 -1.890625 C 5.382812 -2.222656 5.53125 -2.679688 5.53125 -3.265625 L 5.53125 -4.109375 L 5.390625 -4.140625 C 5.265625 -4.046875 5.097656 -3.960938 4.890625 -3.890625 C 4.679688 -3.816406 4.390625 -3.75 4.015625 -3.6875 C 3.554688 -3.613281 3.222656 -3.484375 3.015625 -3.296875 C 2.816406 -3.109375 2.71875 -2.847656 2.71875 -2.515625 C 2.71875 -2.148438 2.820312 -1.875 3.03125 -1.6875 C 3.25 -1.5 3.550781 -1.40625 3.9375 -1.40625 Z M 3.9375 -1.40625 "/></g></g></g><g fill="#1e2431" fill-opacity="1"><g transform="translate(107.796765, 151.435623)"><g><path d="M 5.78125 -2 L 6.328125 -0.4375 C 6.097656 -0.25 5.8125 -0.101562 5.46875 0 C 5.125 0.101562 4.734375 0.15625 4.296875 0.15625 C 3.390625 0.15625 2.703125 -0.0859375 2.234375 -0.578125 C 1.765625 -1.078125 1.53125 -1.796875 1.53125 -2.734375 L 1.53125 -6.703125 L 0.25 -6.703125 L 0.25 -8.375 L 1.53125 -8.375 L 1.53125 -10.015625 L 3.625 -10.359375 L 3.625 -8.375 L 6 -8.375 L 6 -6.703125 L 3.625 -6.703125 L 3.625 -2.890625 C 3.625 -2.472656 3.707031 -2.164062 3.875 -1.96875 C 4.050781 -1.78125 4.304688 -1.6875 4.640625 -1.6875 C 5.015625 -1.6875 5.34375 -1.789062 5.625 -2 Z M 5.78125 -2 "/></g></g></g><g fill="#1e2431" fill-opacity="1"><g transform="translate(115.076843, 151.435623)"><g><path d="M 3.265625 0.15625 C 2.722656 0.15625 2.253906 0.0546875 1.859375 -0.140625 C 1.472656 -0.335938 1.171875 -0.625 0.953125 -1 C 0.742188 -1.382812 0.640625 -1.847656 0.640625 -2.390625 C 0.640625 -2.878906 0.742188 -3.289062 0.953125 -3.625 C 1.171875 -3.96875 1.5 -4.242188 1.9375 -4.453125 C 2.382812 -4.671875 2.96875 -4.835938 3.6875 -4.953125 C 4.1875 -5.035156 4.566406 -5.125 4.828125 -5.21875 C 5.085938 -5.3125 5.265625 -5.421875 5.359375 -5.546875 C 5.453125 -5.671875 5.5 -5.828125 5.5 -6.015625 C 5.5 -6.285156 5.40625 -6.488281 5.21875 -6.625 C 5.03125 -6.769531 4.71875 -6.84375 4.28125 -6.84375 C 3.8125 -6.84375 3.367188 -6.738281 2.953125 -6.53125 C 2.535156 -6.320312 2.171875 -6.046875 1.859375 -5.703125 L 1.703125 -5.703125 L 0.828125 -7.03125 C 1.253906 -7.507812 1.769531 -7.878906 2.375 -8.140625 C 2.988281 -8.398438 3.660156 -8.53125 4.390625 -8.53125 C 5.492188 -8.53125 6.289062 -8.296875 6.78125 -7.828125 C 7.28125 -7.359375 7.53125 -6.691406 7.53125 -5.828125 L 7.53125 -2.1875 C 7.53125 -1.8125 7.695312 -1.625 8.03125 -1.625 C 8.15625 -1.625 8.28125 -1.644531 8.40625 -1.6875 L 8.515625 -1.65625 L 8.65625 -0.203125 C 8.539062 -0.117188 8.378906 -0.0507812 8.171875 0 C 7.960938 0.0390625 7.738281 0.0625 7.5 0.0625 C 6.988281 0.0625 6.59375 -0.03125 6.3125 -0.21875 C 6.03125 -0.414062 5.832031 -0.71875 5.71875 -1.125 L 5.5625 -1.140625 C 5.144531 -0.273438 4.378906 0.15625 3.265625 0.15625 Z M 3.9375 -1.40625 C 4.414062 -1.40625 4.800781 -1.566406 5.09375 -1.890625 C 5.382812 -2.222656 5.53125 -2.679688 5.53125 -3.265625 L 5.53125 -4.109375 L 5.390625 -4.140625 C 5.265625 -4.046875 5.097656 -3.960938 4.890625 -3.890625 C 4.679688 -3.816406 4.390625 -3.75 4.015625 -3.6875 C 3.554688 -3.613281 3.222656 -3.484375 3.015625 -3.296875 C 2.816406 -3.109375 2.71875 -2.847656 2.71875 -2.515625 C 2.71875 -2.148438 2.820312 -1.875 3.03125 -1.6875 C 3.25 -1.5 3.550781 -1.40625 3.9375 -1.40625 Z M 3.9375 -1.40625 "/></g></g></g><g fill="#1e2431" fill-opacity="1"><g transform="translate(124.678676, 151.435623)"><g><path d="M 3.390625 1.59375 C 2.703125 0.738281 2.144531 -0.207031 1.71875 -1.25 C 1.300781 -2.300781 1.09375 -3.578125 1.09375 -5.078125 C 1.09375 -6.566406 1.300781 -7.832031 1.71875 -8.875 C 2.144531 -9.925781 2.703125 -10.878906 3.390625 -11.734375 L 5.015625 -11.734375 L 5.046875 -11.578125 C 4.492188 -10.640625 4.066406 -9.664062 3.765625 -8.65625 C 3.472656 -7.65625 3.328125 -6.460938 3.328125 -5.078125 C 3.328125 -3.691406 3.472656 -2.492188 3.765625 -1.484375 C 4.066406 -0.484375 4.492188 0.484375 5.046875 1.421875 L 5.015625 1.59375 Z M 3.390625 1.59375 "/></g></g></g><g fill="#1e2431" fill-opacity="1"><g transform="translate(130.972388, 151.435623)"><g><path d="M 0.484375 1.421875 C 0.835938 0.816406 1.132812 0.207031 1.375 -0.40625 C 1.625 -1.019531 1.820312 -1.710938 1.96875 -2.484375 C 2.125 -3.253906 2.203125 -4.117188 2.203125 -5.078125 C 2.203125 -6.023438 2.125 -6.882812 1.96875 -7.65625 C 1.820312 -8.4375 1.625 -9.132812 1.375 -9.75 C 1.132812 -10.363281 0.835938 -10.972656 0.484375 -11.578125 L 0.515625 -11.734375 L 2.125 -11.734375 C 2.5625 -11.191406 2.945312 -10.617188 3.28125 -10.015625 C 3.613281 -9.410156 3.882812 -8.691406 4.09375 -7.859375 C 4.3125 -7.035156 4.421875 -6.109375 4.421875 -5.078125 C 4.421875 -3.578125 4.207031 -2.300781 3.78125 -1.25 C 3.363281 -0.207031 2.8125 0.738281 2.125 1.59375 L 0.515625 1.59375 Z M 0.484375 1.421875 "/></g></g></g><path stroke-linecap="round" transform="matrix(-0.752941, -0.000000000000000092, 0.000000000000000092, -0.75, 233.477545, 147.541966)" fill="none" stroke-linejoin="miter" d="M 1.500633 1.498663 L 78.19985 1.498663 " stroke="#ffffff" stroke-width="3" stroke-opacity="1" stroke-miterlimit="4"/><path stroke-linecap="round" transform="matrix(0.422476, 0.62075, -0.620024, 0.421983, 296.176865, 170.016037)" fill="none" stroke-linejoin="miter" d="M 1.50086 1.503226 L 212.253833 1.501777 " stroke="#ffffff" stroke-width="3" stroke-opacity="1" stroke-miterlimit="4"/><path stroke-linecap="round" transform="matrix(0.674567, 0.326883, -0.32706, 0.674931, 112.441112, 169.63635)" fill="none" stroke-linejoin="miter" d="M 1.499182 1.502698 L 403.722532 1.497485 " stroke="#ffffff" stroke-width="3" stroke-opacity="1" stroke-miterlimit="4"/><g clip-path="url(#789892ddb0)"><path fill="#00c2cb" d="M 279.15625 303.179688 L 491.753906 303.179688 L 491.753906 388.484375 L 279.15625 388.484375 Z M 279.15625 303.179688 " fill-opacity="1" fill-rule="nonzero"/></g><g fill="#1e2431" fill-opacity="1"><g transform="translate(350.434674, 351.929884)"><g><path d="M 4.671875 0.1875 C 3.984375 0.1875 3.359375 0.109375 2.796875 -0.046875 C 2.234375 -0.210938 1.75 -0.429688 1.34375 -0.703125 C 0.9375 -0.984375 0.640625 -1.304688 0.453125 -1.671875 L 1.84375 -3.171875 L 2.03125 -3.171875 C 2.363281 -2.722656 2.753906 -2.390625 3.203125 -2.171875 C 3.660156 -1.953125 4.15625 -1.84375 4.6875 -1.84375 C 5.175781 -1.84375 5.539062 -1.925781 5.78125 -2.09375 C 6.03125 -2.269531 6.15625 -2.519531 6.15625 -2.84375 C 6.15625 -3.101562 6.066406 -3.316406 5.890625 -3.484375 C 5.710938 -3.660156 5.425781 -3.796875 5.03125 -3.890625 L 3.703125 -4.203125 C 2.710938 -4.441406 1.988281 -4.800781 1.53125 -5.28125 C 1.082031 -5.769531 0.859375 -6.390625 0.859375 -7.140625 C 0.859375 -7.765625 1.015625 -8.304688 1.328125 -8.765625 C 1.648438 -9.222656 2.097656 -9.570312 2.671875 -9.8125 C 3.242188 -10.050781 3.914062 -10.171875 4.6875 -10.171875 C 5.582031 -10.171875 6.328125 -10.039062 6.921875 -9.78125 C 7.515625 -9.519531 7.976562 -9.171875 8.3125 -8.734375 L 6.96875 -7.296875 L 6.78125 -7.296875 C 6.507812 -7.609375 6.195312 -7.835938 5.84375 -7.984375 C 5.5 -8.128906 5.113281 -8.203125 4.6875 -8.203125 C 3.695312 -8.203125 3.203125 -7.894531 3.203125 -7.28125 C 3.203125 -7.019531 3.289062 -6.804688 3.46875 -6.640625 C 3.65625 -6.472656 3.984375 -6.34375 4.453125 -6.25 L 5.6875 -5.96875 C 6.695312 -5.75 7.4375 -5.398438 7.90625 -4.921875 C 8.375 -4.441406 8.609375 -3.800781 8.609375 -3 C 8.609375 -2.363281 8.445312 -1.800781 8.125 -1.3125 C 7.8125 -0.832031 7.359375 -0.460938 6.765625 -0.203125 C 6.179688 0.0546875 5.484375 0.1875 4.671875 0.1875 Z M 4.671875 0.1875 "/></g></g></g><g fill="#1e2431" fill-opacity="1"><g transform="translate(360.561983, 351.929884)"><g><path d="M 9.859375 -4.421875 L 3.453125 -4.40625 C 3.523438 -3.539062 3.769531 -2.910156 4.1875 -2.515625 C 4.613281 -2.128906 5.191406 -1.9375 5.921875 -1.9375 C 6.492188 -1.9375 6.957031 -2.039062 7.3125 -2.25 C 7.664062 -2.46875 7.953125 -2.796875 8.171875 -3.234375 L 8.359375 -3.234375 L 10.03125 -2.15625 C 9.695312 -1.457031 9.203125 -0.890625 8.546875 -0.453125 C 7.890625 -0.0234375 7.015625 0.1875 5.921875 0.1875 C 4.890625 0.1875 4 -0.00390625 3.25 -0.390625 C 2.5 -0.785156 1.914062 -1.367188 1.5 -2.140625 C 1.09375 -2.921875 0.890625 -3.867188 0.890625 -4.984375 C 0.890625 -6.117188 1.101562 -7.070312 1.53125 -7.84375 C 1.96875 -8.625 2.550781 -9.207031 3.28125 -9.59375 C 4.007812 -9.976562 4.828125 -10.171875 5.734375 -10.171875 C 7.148438 -10.171875 8.234375 -9.796875 8.984375 -9.046875 C 9.734375 -8.296875 10.109375 -7.195312 10.109375 -5.75 C 10.109375 -5.226562 10.085938 -4.820312 10.046875 -4.53125 Z M 7.703125 -6.046875 C 7.679688 -6.804688 7.503906 -7.359375 7.171875 -7.703125 C 6.847656 -8.046875 6.367188 -8.21875 5.734375 -8.21875 C 4.472656 -8.21875 3.726562 -7.492188 3.5 -6.046875 Z M 7.703125 -6.046875 "/></g></g></g><g fill="#1e2431" fill-opacity="1"><g transform="translate(372.335765, 351.929884)"><g><path d="M 6.890625 -2.375 L 7.53125 -0.53125 C 7.257812 -0.300781 6.921875 -0.125 6.515625 0 C 6.109375 0.125 5.644531 0.1875 5.125 0.1875 C 4.039062 0.1875 3.21875 -0.101562 2.65625 -0.6875 C 2.09375 -1.28125 1.8125 -2.132812 1.8125 -3.25 L 1.8125 -7.984375 L 0.296875 -7.984375 L 0.296875 -9.984375 L 1.8125 -9.984375 L 1.8125 -11.9375 L 4.328125 -12.34375 L 4.328125 -9.984375 L 7.15625 -9.984375 L 7.15625 -7.984375 L 4.328125 -7.984375 L 4.328125 -3.4375 C 4.328125 -2.945312 4.425781 -2.585938 4.625 -2.359375 C 4.832031 -2.128906 5.132812 -2.015625 5.53125 -2.015625 C 5.976562 -2.015625 6.367188 -2.132812 6.703125 -2.375 Z M 6.890625 -2.375 "/></g></g></g><g fill="#1e2431" fill-opacity="1"><g transform="translate(381.015625, 351.929884)"><g><path d="M 4.5625 0.1875 C 3.445312 0.1875 2.617188 -0.113281 2.078125 -0.71875 C 1.546875 -1.332031 1.28125 -2.210938 1.28125 -3.359375 L 1.28125 -9.984375 L 3.796875 -9.984375 L 3.796875 -3.6875 C 3.796875 -3.070312 3.925781 -2.625 4.1875 -2.34375 C 4.445312 -2.0625 4.851562 -1.921875 5.40625 -1.921875 C 6.09375 -1.921875 6.628906 -2.148438 7.015625 -2.609375 C 7.398438 -3.066406 7.59375 -3.785156 7.59375 -4.765625 L 7.59375 -9.984375 L 10.109375 -9.984375 L 10.109375 0 L 7.703125 0 L 7.703125 -1.46875 L 7.515625 -1.515625 C 7.191406 -0.941406 6.796875 -0.515625 6.328125 -0.234375 C 5.867188 0.046875 5.28125 0.1875 4.5625 0.1875 Z M 4.5625 0.1875 "/></g></g></g><g fill="#1e2431" fill-opacity="1"><g transform="translate(393.485988, 351.929884)"><g><path d="M 1.4375 4.046875 L 1.4375 -9.984375 L 3.9375 -9.984375 L 3.9375 -8.671875 L 4.140625 -8.640625 C 4.429688 -9.148438 4.820312 -9.53125 5.3125 -9.78125 C 5.8125 -10.039062 6.394531 -10.171875 7.0625 -10.171875 C 7.863281 -10.171875 8.5625 -9.976562 9.15625 -9.59375 C 9.757812 -9.21875 10.226562 -8.640625 10.5625 -7.859375 C 10.894531 -7.085938 11.0625 -6.128906 11.0625 -4.984375 C 11.0625 -3.847656 10.882812 -2.890625 10.53125 -2.109375 C 10.175781 -1.335938 9.6875 -0.757812 9.0625 -0.375 C 8.4375 0 7.710938 0.1875 6.890625 0.1875 C 6.273438 0.1875 5.738281 0.0820312 5.28125 -0.125 C 4.832031 -0.332031 4.453125 -0.65625 4.140625 -1.09375 L 3.9375 -1.0625 L 3.9375 4.046875 Z M 6.203125 -1.9375 C 6.941406 -1.9375 7.503906 -2.179688 7.890625 -2.671875 C 8.285156 -3.160156 8.484375 -3.929688 8.484375 -4.984375 C 8.484375 -6.035156 8.285156 -6.804688 7.890625 -7.296875 C 7.503906 -7.796875 6.941406 -8.046875 6.203125 -8.046875 C 5.503906 -8.046875 4.945312 -7.789062 4.53125 -7.28125 C 4.125 -6.78125 3.921875 -6.015625 3.921875 -4.984375 C 3.921875 -3.960938 4.125 -3.195312 4.53125 -2.6875 C 4.945312 -2.1875 5.503906 -1.9375 6.203125 -1.9375 Z M 6.203125 -1.9375 "/></g></g></g><g fill="#1e2431" fill-opacity="1"><g transform="translate(406.363451, 351.929884)"><g><path d="M 4.046875 1.890625 C 3.222656 0.878906 2.5625 -0.25 2.0625 -1.5 C 1.5625 -2.75 1.3125 -4.265625 1.3125 -6.046875 C 1.3125 -7.828125 1.5625 -9.34375 2.0625 -10.59375 C 2.5625 -11.84375 3.222656 -12.972656 4.046875 -13.984375 L 5.96875 -13.984375 L 6.015625 -13.796875 C 5.359375 -12.679688 4.851562 -11.523438 4.5 -10.328125 C 4.144531 -9.128906 3.96875 -7.703125 3.96875 -6.046875 C 3.96875 -4.398438 4.144531 -2.972656 4.5 -1.765625 C 4.851562 -0.566406 5.359375 0.585938 6.015625 1.703125 L 5.96875 1.890625 Z M 4.046875 1.890625 "/></g></g></g><g fill="#1e2431" fill-opacity="1"><g transform="translate(413.867261, 351.929884)"><g><path d="M 0.578125 1.703125 C 0.992188 0.972656 1.347656 0.242188 1.640625 -0.484375 C 1.941406 -1.210938 2.179688 -2.035156 2.359375 -2.953125 C 2.535156 -3.878906 2.625 -4.910156 2.625 -6.046875 C 2.625 -7.179688 2.535156 -8.207031 2.359375 -9.125 C 2.179688 -10.050781 1.945312 -10.878906 1.65625 -11.609375 C 1.363281 -12.347656 1.003906 -13.078125 0.578125 -13.796875 L 0.609375 -13.984375 L 2.53125 -13.984375 C 3.050781 -13.335938 3.507812 -12.65625 3.90625 -11.9375 C 4.300781 -11.21875 4.628906 -10.363281 4.890625 -9.375 C 5.148438 -8.394531 5.28125 -7.285156 5.28125 -6.046875 C 5.28125 -4.265625 5.023438 -2.75 4.515625 -1.5 C 4.015625 -0.25 3.351562 0.878906 2.53125 1.890625 L 0.609375 1.890625 Z M 0.578125 1.703125 "/></g></g></g><path stroke-linecap="round" transform="matrix(-0.43123, 0.613894, -0.613717, -0.431105, 479.457433, 171.298566)" fill="none" stroke-linejoin="miter" d="M 1.501133 1.498206 L 214.449916 1.501664 " stroke="#ffffff" stroke-width="3" stroke-opacity="1" stroke-miterlimit="4"/><g clip-path="url(#fd686b5b18)"><path fill="#49b8a9" d="M 84.511719 449.996094 L 36.5625 402.050781 L 36.5625 449.996094 Z M 84.511719 449.996094 " fill-opacity="1" fill-rule="nonzero"/></g><g clip-path="url(#42df35a1df)"><path fill="#49b8a9" d="M 36.5625 354.101562 L 36.5625 402.050781 L 84.511719 402.050781 Z M 36.5625 354.101562 " fill-opacity="1" fill-rule="nonzero"/></g><g clip-path="url(#2c368a5a3d)"><path fill="#49b8a9" d="M 36.5625 449.996094 L -11.382812 402.050781 L -11.382812 449.996094 Z M 36.5625 449.996094 " fill-opacity="1" fill-rule="nonzero"/></g><g clip-path="url(#28ba5b5154)"><path fill="#49b8a9" d="M -11.382812 354.101562 L -11.382812 402.050781 L 36.5625 402.050781 Z M -11.382812 354.101562 " fill-opacity="1" fill-rule="nonzero"/></g><g clip-path="url(#1c994bfeaa)"><path fill="#49b8a9" d="M 674.957031 0 L 722.90625 47.949219 L 722.90625 0 Z M 674.957031 0 " fill-opacity="1" fill-rule="nonzero"/></g><g clip-path="url(#7fc2273cc7)"><path fill="#49b8a9" d="M 722.90625 95.894531 L 722.90625 47.949219 L 674.957031 47.949219 Z M 722.90625 95.894531 " fill-opacity="1" fill-rule="nonzero"/></g><g clip-path="url(#4f8a0ce4fa)"><path fill="#49b8a9" d="M 722.90625 0 L 770.851562 47.949219 L 770.851562 0 Z M 722.90625 0 " fill-opacity="1" fill-rule="nonzero"/></g><g clip-path="url(#ca513503d7)"><path fill="#49b8a9" d="M 770.851562 95.894531 L 770.851562 47.949219 L 722.90625 47.949219 Z M 770.851562 95.894531 " fill-opacity="1" fill-rule="nonzero"/></g><g clip-path="url(#043bca7dde)"><path fill="#7ed957" d="M 589.25 122.1875 L 712.542969 122.1875 L 712.542969 170.835938 L 589.25 170.835938 Z M 589.25 122.1875 " fill-opacity="1" fill-rule="nonzero"/></g><g fill="#1e2431" fill-opacity="1"><g transform="translate(626.457318, 151.435623)"><g><path d="M 4.5 0 L 2.296875 0 L 0.296875 -8.375 L 2.25 -8.375 L 3.484375 -2.703125 L 3.640625 -2.703125 L 5.234375 -8.375 L 7.0625 -8.375 L 8.703125 -2.703125 L 8.859375 -2.703125 L 10.046875 -8.375 L 11.953125 -8.375 L 9.984375 0 L 7.78125 0 L 6.1875 -5.703125 L 6.03125 -5.703125 Z M 4.5 0 "/></g></g></g><g fill="#1e2431" fill-opacity="1"><g transform="translate(639.473495, 151.435623)"><g><path d="M 3.265625 0.15625 C 2.722656 0.15625 2.253906 0.0546875 1.859375 -0.140625 C 1.472656 -0.335938 1.171875 -0.625 0.953125 -1 C 0.742188 -1.382812 0.640625 -1.847656 0.640625 -2.390625 C 0.640625 -2.878906 0.742188 -3.289062 0.953125 -3.625 C 1.171875 -3.96875 1.5 -4.242188 1.9375 -4.453125 C 2.382812 -4.671875 2.96875 -4.835938 3.6875 -4.953125 C 4.1875 -5.035156 4.566406 -5.125 4.828125 -5.21875 C 5.085938 -5.3125 5.265625 -5.421875 5.359375 -5.546875 C 5.453125 -5.671875 5.5 -5.828125 5.5 -6.015625 C 5.5 -6.285156 5.40625 -6.488281 5.21875 -6.625 C 5.03125 -6.769531 4.71875 -6.84375 4.28125 -6.84375 C 3.8125 -6.84375 3.367188 -6.738281 2.953125 -6.53125 C 2.535156 -6.320312 2.171875 -6.046875 1.859375 -5.703125 L 1.703125 -5.703125 L 0.828125 -7.03125 C 1.253906 -7.507812 1.769531 -7.878906 2.375 -8.140625 C 2.988281 -8.398438 3.660156 -8.53125 4.390625 -8.53125 C 5.492188 -8.53125 6.289062 -8.296875 6.78125 -7.828125 C 7.28125 -7.359375 7.53125 -6.691406 7.53125 -5.828125 L 7.53125 -2.1875 C 7.53125 -1.8125 7.695312 -1.625 8.03125 -1.625 C 8.15625 -1.625 8.28125 -1.644531 8.40625 -1.6875 L 8.515625 -1.65625 L 8.65625 -0.203125 C 8.539062 -0.117188 8.378906 -0.0507812 8.171875 0 C 7.960938 0.0390625 7.738281 0.0625 7.5 0.0625 C 6.988281 0.0625 6.59375 -0.03125 6.3125 -0.21875 C 6.03125 -0.414062 5.832031 -0.71875 5.71875 -1.125 L 5.5625 -1.140625 C 5.144531 -0.273438 4.378906 0.15625 3.265625 0.15625 Z M 3.9375 -1.40625 C 4.414062 -1.40625 4.800781 -1.566406 5.09375 -1.890625 C 5.382812 -2.222656 5.53125 -2.679688 5.53125 -3.265625 L 5.53125 -4.109375 L 5.390625 -4.140625 C 5.265625 -4.046875 5.097656 -3.960938 4.890625 -3.890625 C 4.679688 -3.816406 4.390625 -3.75 4.015625 -3.6875 C 3.554688 -3.613281 3.222656 -3.484375 3.015625 -3.296875 C 2.816406 -3.109375 2.71875 -2.847656 2.71875 -2.515625 C 2.71875 -2.148438 2.820312 -1.875 3.03125 -1.6875 C 3.25 -1.5 3.550781 -1.40625 3.9375 -1.40625 Z M 3.9375 -1.40625 "/></g></g></g><g fill="#1e2431" fill-opacity="1"><g transform="translate(649.075327, 151.435623)"><g><path d="M 5.78125 -2 L 6.328125 -0.4375 C 6.097656 -0.25 5.8125 -0.101562 5.46875 0 C 5.125 0.101562 4.734375 0.15625 4.296875 0.15625 C 3.390625 0.15625 2.703125 -0.0859375 2.234375 -0.578125 C 1.765625 -1.078125 1.53125 -1.796875 1.53125 -2.734375 L 1.53125 -6.703125 L 0.25 -6.703125 L 0.25 -8.375 L 1.53125 -8.375 L 1.53125 -10.015625 L 3.625 -10.359375 L 3.625 -8.375 L 6 -8.375 L 6 -6.703125 L 3.625 -6.703125 L 3.625 -2.890625 C 3.625 -2.472656 3.707031 -2.164062 3.875 -1.96875 C 4.050781 -1.78125 4.304688 -1.6875 4.640625 -1.6875 C 5.015625 -1.6875 5.34375 -1.789062 5.625 -2 Z M 5.78125 -2 "/></g></g></g><g fill="#1e2431" fill-opacity="1"><g transform="translate(656.355406, 151.435623)"><g><path d="M 4.875 0.15625 C 4.070312 0.15625 3.359375 -0.0078125 2.734375 -0.34375 C 2.109375 -0.675781 1.617188 -1.171875 1.265625 -1.828125 C 0.921875 -2.484375 0.75 -3.269531 0.75 -4.1875 C 0.75 -5.101562 0.921875 -5.882812 1.265625 -6.53125 C 1.617188 -7.1875 2.101562 -7.679688 2.71875 -8.015625 C 3.34375 -8.359375 4.050781 -8.53125 4.84375 -8.53125 C 6.613281 -8.53125 7.742188 -7.890625 8.234375 -6.609375 L 6.796875 -5.578125 L 6.640625 -5.578125 C 6.460938 -5.972656 6.234375 -6.265625 5.953125 -6.453125 C 5.679688 -6.648438 5.3125 -6.75 4.84375 -6.75 C 4.238281 -6.75 3.765625 -6.535156 3.421875 -6.109375 C 3.085938 -5.691406 2.921875 -5.050781 2.921875 -4.1875 C 2.921875 -3.320312 3.09375 -2.675781 3.4375 -2.25 C 3.78125 -1.832031 4.257812 -1.625 4.875 -1.625 C 5.332031 -1.625 5.71875 -1.742188 6.03125 -1.984375 C 6.351562 -2.234375 6.582031 -2.585938 6.71875 -3.046875 L 6.875 -3.0625 L 8.375 -2.25 C 8.15625 -1.539062 7.757812 -0.960938 7.1875 -0.515625 C 6.613281 -0.0664062 5.84375 0.15625 4.875 0.15625 Z M 4.875 0.15625 "/></g></g></g><g fill="#1e2431" fill-opacity="1"><g transform="translate(665.759965, 151.435623)"><g><path d="M 1.203125 0 L 1.203125 -11.734375 L 3.3125 -11.734375 L 3.3125 -7.28125 L 3.46875 -7.25 C 3.75 -7.65625 4.085938 -7.96875 4.484375 -8.1875 C 4.890625 -8.414062 5.378906 -8.53125 5.953125 -8.53125 C 7.804688 -8.53125 8.734375 -7.484375 8.734375 -5.390625 L 8.734375 0 L 6.625 0 L 6.625 -5.125 C 6.625 -5.695312 6.507812 -6.109375 6.28125 -6.359375 C 6.050781 -6.617188 5.695312 -6.75 5.21875 -6.75 C 4.632812 -6.75 4.171875 -6.550781 3.828125 -6.15625 C 3.484375 -5.769531 3.3125 -5.160156 3.3125 -4.328125 L 3.3125 0 Z M 1.203125 0 "/></g></g></g><path stroke-linecap="round" transform="matrix(0.752941, 0, 0, 0.75, 529.474317, 145.291966)" fill="none" stroke-linejoin="miter" d="M 1.502311 1.501337 L 78.196341 1.501337 " stroke="#ffffff" stroke-width="3" stroke-opacity="1" stroke-miterlimit="4"/><path stroke-linecap="round" transform="matrix(-0.671549, 0.335143, -0.334905, -0.671073, 651.504875, 171.656588)" fill="none" stroke-linejoin="miter" d="M 1.498718 1.499882 L 394.229645 1.499961 " stroke="#ffffff" stroke-width="3" stroke-opacity="1" stroke-miterlimit="4"/><g clip-path="url(#44a72583c0)"><g clip-path="url(#3d079045ed)"><path fill="url(#0076f40e23)" d="M 10.394531 10.785156 L 10.429688 28.78125 L 16.378906 28.769531 L 16.34375 10.773438 Z M 10.394531 10.785156 " fill-rule="nonzero"/></g></g><g clip-path="url(#3f531eeec0)"><g clip-path="url(#5839f4292b)"><path fill="url(#300925cba5)" d="M 26.691406 10.785156 L 26.726562 28.773438 L 28.628906 28.769531 L 28.59375 10.78125 Z M 26.691406 10.785156 " fill-rule="nonzero"/></g></g><g clip-path="url(#41fa16603b)"><g clip-path="url(#f197486f6c)"><path fill="url(#aba6929b6e)" d="M 39.042969 10.605469 L 39.082031 28.960938 L 44.824219 28.949219 L 44.785156 10.59375 Z M 39.042969 10.605469 " fill-rule="nonzero"/></g></g><g clip-path="url(#56c1df711e)"><g clip-path="url(#6e54fab37f)"><path fill="url(#8a4fd88eaf)" d="M 55.238281 10.785156 L 55.273438 28.773438 L 57.175781 28.769531 L 57.140625 10.78125 Z M 55.238281 10.785156 " fill-rule="nonzero"/></g></g><g clip-path="url(#cd0b3ea4ff)"><g clip-path="url(#1827e8dc23)"><path fill="url(#ddde401d5b)" d="M 66.113281 10.785156 L 66.148438 28.785156 L 74.175781 28.769531 L 74.136719 10.769531 Z M 66.113281 10.785156 " fill-rule="nonzero"/></g></g><g clip-path="url(#83fdd46ae8)"><g clip-path="url(#9d5500638b)"><path fill="url(#bcfc349ac4)" d="M 80.515625 10.785156 L 80.550781 28.78125 L 87.957031 28.769531 L 87.917969 10.769531 Z M 80.515625 10.785156 " fill-rule="nonzero"/></g></g><g clip-path="url(#36a4196e5f)"><g clip-path="url(#6394d42fe2)"><path fill="url(#d7d2683952)" d="M 96.941406 10.785156 L 96.980469 28.78125 L 103.085938 28.769531 L 103.046875 10.773438 Z M 96.941406 10.785156 " fill-rule="nonzero"/></g></g><g clip-path="url(#c7267eff49)"><g clip-path="url(#dacbff8cdc)"><path fill="url(#2b29563e78)" d="M 109.824219 27.539062 L 109.824219 28.785156 L 117.296875 28.769531 L 117.296875 27.523438 Z M 109.824219 27.539062 " fill-rule="nonzero"/></g></g><g clip-path="url(#ff81f6eae3)"><g clip-path="url(#37d3ea6183)"><path fill="url(#813ca6f2c5)" d="M 126.660156 10.785156 L 126.695312 28.78125 L 133.007812 28.769531 L 132.972656 10.773438 Z M 126.660156 10.785156 " fill-rule="nonzero"/></g></g><g clip-path="url(#665a49c4ed)"><g clip-path="url(#4a2b265e87)"><path fill="url(#110546ee70)" d="M 141.683594 10.785156 L 141.71875 28.78125 L 147.722656 28.769531 L 147.6875 10.773438 Z M 141.683594 10.785156 " fill-rule="nonzero"/></g></g><g clip-path="url(#8d1b2919aa)"><g clip-path="url(#91c8705d89)"><path fill="url(#26fe1fad52)" d="M 158.007812 10.785156 L 158.042969 28.773438 L 159.945312 28.769531 L 159.910156 10.78125 Z M 158.007812 10.785156 " fill-rule="nonzero"/></g></g><g clip-path="url(#db2f5ec05b)"><g clip-path="url(#d655555e87)"><path fill="url(#a25d9c3f99)" d="M 170.359375 10.605469 L 170.398438 28.960938 L 176.140625 28.949219 L 176.105469 10.59375 Z M 170.359375 10.605469 " fill-rule="nonzero"/></g></g><g clip-path="url(#0adbeae569)"><g clip-path="url(#c12139758d)"><path fill="url(#ea9051342a)" d="M 185.699219 10.785156 L 185.734375 28.78125 L 191.972656 28.769531 L 191.933594 10.773438 Z M 185.699219 10.785156 " fill-rule="nonzero"/></g></g><g clip-path="url(#d169f2305f)"><g clip-path="url(#00c978494b)"><path fill="url(#254a61b545)" d="M 200.023438 10.785156 L 200.058594 28.785156 L 208.085938 28.769531 L 208.050781 10.769531 Z M 200.023438 10.785156 " fill-rule="nonzero"/></g></g></svg>