<svg xmlns="http://www.w3.org/2000/svg" xmlns:xlink="http://www.w3.org/1999/xlink" width="500" zoomAndPan="magnify" viewBox="0 0 375 374.999991" height="500" preserveAspectRatio="xMidYMid meet" version="1.0"><defs><clipPath id="faebfaf10e"><path d="M 123.269531 83 L 251.519531 83 L 251.519531 360.824219 L 123.269531 360.824219 Z M 123.269531 83 " clip-rule="nonzero"/></clipPath><clipPath id="56008e68c9"><path d="M 161 14.324219 L 213 14.324219 L 213 65 L 161 65 Z M 161 14.324219 " clip-rule="nonzero"/></clipPath></defs><path fill="#1a424d" d="M 187.324219 126.859375 L 202.5625 142.125 L 187.324219 157.398438 L 172.078125 142.125 Z M 187.324219 126.859375 " fill-opacity="1" fill-rule="evenodd"/><g clip-path="url(#faebfaf10e)"><path fill="#e63c3c" d="M 194.039062 327.652344 L 187.324219 200.742188 L 180.605469 327.652344 L 144.875 289.398438 L 176.015625 178.085938 L 180.4375 162.160156 L 165.855469 147.542969 L 160.445312 142.125 L 170.117188 132.441406 L 171.585938 130.964844 L 173.390625 128.992188 L 184.210938 118.316406 L 171.261719 110.769531 L 123.40625 83.183594 L 123.40625 100.09375 L 160.445312 121.601562 L 139.960938 142.125 L 161.429688 163.632812 L 130.617188 274.128906 L 125.042969 294.324219 L 139.300781 309.597656 L 175.03125 348.015625 L 179.289062 352.445312 L 187.324219 361.148438 L 195.515625 352.445312 L 199.613281 348.015625 L 235.34375 309.597656 L 249.765625 294.324219 L 244.03125 274.128906 L 213.214844 163.632812 L 234.6875 142.125 L 214.199219 121.601562 L 251.398438 100.09375 L 251.398438 83.183594 L 203.546875 110.769531 L 190.601562 118.316406 L 201.25 129.160156 L 204.53125 132.441406 L 214.199219 142.125 L 208.792969 147.542969 L 194.207031 162.160156 L 198.796875 178.085938 L 229.769531 289.398438 Z M 194.039062 327.652344 " fill-opacity="1" fill-rule="evenodd"/></g><path fill="#1a424d" d="M 218.132812 91.882812 L 156.675781 91.882812 L 177.976562 104.199219 L 196.660156 104.199219 Z M 218.132812 91.882812 " fill-opacity="1" fill-rule="evenodd"/><path fill="#1a424d" d="M 168.316406 71.855469 L 206.5 71.855469 L 206.5 84.167969 L 168.316406 84.167969 Z M 168.316406 71.855469 " fill-opacity="1" fill-rule="evenodd"/><g clip-path="url(#56008e68c9)"><path fill="#1a424d" d="M 187.324219 13.898438 C 201.417969 13.898438 212.890625 25.394531 212.890625 39.511719 C 212.890625 53.464844 201.417969 64.957031 187.324219 64.957031 C 173.230469 64.957031 161.921875 53.464844 161.921875 39.511719 C 161.921875 25.394531 173.230469 13.898438 187.324219 13.898438 Z M 187.324219 28.511719 C 193.390625 28.511719 198.304688 33.433594 198.304688 39.511719 C 198.304688 45.589844 193.390625 50.511719 187.324219 50.511719 C 181.257812 50.511719 176.34375 45.589844 176.34375 39.511719 C 176.34375 33.433594 181.257812 28.511719 187.324219 28.511719 Z M 187.324219 28.511719 " fill-opacity="1" fill-rule="evenodd"/></g></svg>