<svg xmlns="http://www.w3.org/2000/svg" xmlns:xlink="http://www.w3.org/1999/xlink" width="500" zoomAndPan="magnify" viewBox="0 0 375 374.999991" height="500" preserveAspectRatio="xMidYMid meet" version="1.0"><defs><clipPath id="a6a58ff632"><path d="M 4 25.601562 L 371 25.601562 L 371 349.601562 L 4 349.601562 Z M 4 25.601562 " clip-rule="nonzero"/></clipPath></defs><g clip-path="url(#a6a58ff632)"><path fill="#000000" d="M 370.941406 187.5625 C 370.941406 162.65625 331.972656 144.234375 280.09375 134.3125 C 284.328125 122.136719 287.808594 110.347656 290.226562 99.34375 C 298.265625 62.601562 294.378906 37.5625 279.296875 28.859375 C 275.5625 26.703125 271.257812 25.601562 266.503906 25.601562 C 245.902344 25.601562 217.160156 46.367188 187.65625 80.582031 C 158.160156 46.367188 129.421875 25.601562 108.800781 25.601562 C 104.058594 25.601562 99.746094 26.703125 96.003906 28.859375 C 74.40625 41.320312 77.972656 84.351562 95.363281 134.292969 C 43.40625 144.195312 4.363281 162.628906 4.363281 187.5625 C 4.363281 212.484375 43.34375 230.894531 95.238281 240.820312 C 90.980469 253 87.5 264.777344 85.09375 275.785156 C 77.050781 312.535156 80.929688 337.566406 96.003906 346.269531 C 99.746094 348.425781 104.058594 349.515625 108.800781 349.515625 C 129.421875 349.515625 158.15625 328.746094 187.65625 294.546875 C 217.152344 328.746094 245.890625 349.523438 266.503906 349.523438 C 271.257812 349.523438 275.566406 348.425781 279.296875 346.269531 C 294.378906 337.566406 298.265625 312.535156 290.222656 275.785156 C 287.808594 264.777344 284.328125 253 280.082031 240.820312 C 331.972656 230.894531 370.941406 212.484375 370.941406 187.5625 Z M 266.503906 35.074219 C 269.574219 35.074219 272.292969 35.757812 274.5625 37.066406 C 285.621094 43.445312 287.949219 65.40625 280.96875 97.320312 C 278.546875 108.394531 275 120.277344 270.652344 132.613281 C 255.382812 130.066406 239.183594 128.238281 222.644531 127.152344 C 213.21875 112.90625 203.5625 99.796875 193.925781 88.046875 C 221.71875 55.570312 248.671875 35.074219 266.503906 35.074219 Z M 232.785156 213.605469 C 227.746094 222.324219 222.542969 230.773438 217.234375 238.894531 C 207.714844 239.378906 197.855469 239.648438 187.65625 239.648438 C 177.457031 239.648438 167.589844 239.378906 158.082031 238.894531 C 152.761719 230.769531 147.5625 222.324219 142.53125 213.605469 C 137.445312 204.785156 132.75 196.117188 128.421875 187.652344 C 132.835938 178.96875 137.503906 170.230469 142.539062 161.519531 C 147.5625 152.804688 152.769531 144.367188 158.082031 136.226562 C 167.589844 135.746094 177.457031 135.472656 187.65625 135.472656 C 197.855469 135.472656 207.71875 135.746094 217.234375 136.226562 C 222.542969 144.371094 227.742188 152.804688 232.773438 161.519531 C 237.796875 170.203125 242.453125 178.917969 246.859375 187.5625 C 242.453125 196.21875 237.800781 204.933594 232.785156 213.605469 Z M 252.0625 198.117188 C 257.882812 210.226562 263.0625 222.15625 267.460938 233.746094 C 255.546875 235.652344 242.6875 237.136719 229.011719 238.152344 C 233.058594 231.738281 237.054688 225.128906 240.980469 218.347656 C 244.875 211.613281 248.53125 204.855469 252.0625 198.117188 Z M 210.722656 248.625 C 203.144531 259.691406 195.394531 270.082031 187.65625 279.574219 C 179.925781 270.078125 172.1875 259.6875 164.582031 248.625 C 172.261719 248.945312 179.964844 249.128906 187.65625 249.128906 C 195.351562 249.125 203.054688 248.945312 210.722656 248.625 Z M 146.304688 238.152344 C 132.621094 237.136719 119.761719 235.648438 107.851562 233.746094 C 112.257812 222.171875 117.421875 210.234375 123.234375 198.117188 C 126.792969 204.929688 130.492188 211.683594 134.328125 218.347656 C 138.253906 225.128906 142.25 231.738281 146.304688 238.152344 Z M 123.195312 177.113281 C 117.199219 164.691406 112.03125 152.730469 107.703125 141.410156 C 119.65625 139.503906 132.5625 138 146.304688 136.96875 C 142.246094 143.386719 138.25 149.992188 134.324219 156.785156 C 130.414062 163.554688 126.753906 170.351562 123.195312 177.113281 Z M 164.597656 126.515625 C 172.1875 115.453125 179.925781 105.058594 187.65625 95.550781 C 195.394531 105.058594 203.144531 115.453125 210.722656 126.515625 C 203.050781 126.183594 195.351562 126.003906 187.65625 126.003906 C 179.964844 126.007812 172.261719 126.183594 164.597656 126.515625 Z M 240.980469 156.785156 C 237.058594 149.972656 233.0625 143.386719 229.011719 136.96875 C 242.6875 138 255.546875 139.488281 267.460938 141.386719 C 263.0625 152.957031 257.882812 164.914062 252.0625 177.019531 C 248.53125 170.28125 244.875 163.519531 240.980469 156.785156 Z M 100.75 37.066406 C 103.019531 35.75 105.734375 35.074219 108.800781 35.074219 C 126.628906 35.074219 153.585938 55.570312 181.382812 88.046875 C 171.757812 99.796875 162.09375 112.90625 152.664062 127.152344 C 136.074219 128.238281 119.8125 130.09375 104.480469 132.652344 C 86.570312 82.09375 86.019531 45.558594 100.75 37.066406 Z M 13.835938 187.5625 C 13.835938 170.566406 45.753906 152.769531 98.503906 143 C 103.953125 157.5625 110.484375 172.574219 117.847656 187.492188 C 110.292969 202.667969 103.761719 217.652344 98.335938 232.085938 C 45.679688 222.324219 13.835938 204.539062 13.835938 187.5625 Z M 108.800781 340.050781 C 105.691406 340.050781 103.066406 339.398438 100.75 338.082031 C 89.699219 331.695312 87.363281 309.734375 94.351562 277.816406 C 96.777344 266.738281 100.308594 254.839844 104.664062 242.511719 C 119.9375 245.0625 136.140625 246.890625 152.65625 247.976562 C 162.09375 262.214844 171.746094 275.324219 181.375 287.085938 C 153.589844 319.558594 126.628906 340.050781 108.800781 340.050781 Z M 280.953125 277.8125 C 287.945312 309.730469 285.617188 331.691406 274.5625 338.078125 C 272.28125 339.378906 269.574219 340.050781 266.503906 340.050781 C 248.671875 340.050781 221.71875 319.554688 193.925781 287.082031 C 203.5625 275.320312 213.21875 262.210938 222.65625 247.972656 C 239.183594 246.886719 255.382812 245.058594 270.652344 242.507812 C 275 254.839844 278.546875 266.734375 280.953125 277.8125 Z M 276.972656 232.089844 C 271.5625 217.675781 265.042969 202.71875 257.507812 187.566406 C 265.042969 172.410156 271.5625 157.449219 276.980469 143.042969 C 329.625 152.808594 361.472656 170.601562 361.472656 187.566406 C 361.472656 204.539062 329.625 222.324219 276.972656 232.089844 Z M 276.972656 232.089844 " fill-opacity="1" fill-rule="nonzero"/></g><path fill="#000000" d="M 207.789062 187.5625 C 207.789062 188.222656 207.753906 188.878906 207.691406 189.535156 C 207.625 190.191406 207.53125 190.84375 207.402344 191.488281 C 207.273438 192.136719 207.113281 192.777344 206.921875 193.40625 C 206.730469 194.039062 206.507812 194.65625 206.253906 195.265625 C 206.003906 195.875 205.722656 196.46875 205.410156 197.050781 C 205.101562 197.632812 204.761719 198.199219 204.394531 198.746094 C 204.027344 199.292969 203.636719 199.824219 203.21875 200.332031 C 202.800781 200.84375 202.359375 201.332031 201.890625 201.796875 C 201.425781 202.261719 200.9375 202.703125 200.425781 203.125 C 199.917969 203.542969 199.390625 203.933594 198.839844 204.300781 C 198.292969 204.667969 197.726562 205.003906 197.144531 205.316406 C 196.5625 205.625 195.96875 205.90625 195.359375 206.160156 C 194.75 206.414062 194.128906 206.632812 193.5 206.824219 C 192.867188 207.015625 192.230469 207.175781 191.582031 207.304688 C 190.9375 207.433594 190.285156 207.53125 189.628906 207.59375 C 188.972656 207.660156 188.316406 207.691406 187.65625 207.691406 C 186.996094 207.691406 186.339844 207.660156 185.683594 207.59375 C 185.027344 207.53125 184.375 207.433594 183.726562 207.304688 C 183.082031 207.175781 182.441406 207.015625 181.8125 206.824219 C 181.179688 206.632812 180.558594 206.414062 179.949219 206.160156 C 179.34375 205.90625 178.746094 205.625 178.164062 205.316406 C 177.582031 205.003906 177.019531 204.667969 176.46875 204.300781 C 175.921875 203.933594 175.394531 203.542969 174.882812 203.125 C 174.375 202.703125 173.886719 202.261719 173.417969 201.796875 C 172.953125 201.332031 172.511719 200.84375 172.09375 200.332031 C 171.675781 199.824219 171.28125 199.292969 170.914062 198.746094 C 170.550781 198.199219 170.210938 197.632812 169.898438 197.050781 C 169.589844 196.46875 169.308594 195.875 169.054688 195.265625 C 168.804688 194.65625 168.582031 194.039062 168.390625 193.40625 C 168.199219 192.777344 168.039062 192.136719 167.910156 191.488281 C 167.78125 190.84375 167.683594 190.191406 167.621094 189.535156 C 167.554688 188.878906 167.523438 188.222656 167.523438 187.5625 C 167.523438 186.902344 167.554688 186.246094 167.621094 185.589844 C 167.683594 184.933594 167.78125 184.28125 167.910156 183.636719 C 168.039062 182.988281 168.199219 182.351562 168.390625 181.71875 C 168.582031 181.089844 168.804688 180.46875 169.054688 179.859375 C 169.308594 179.25 169.589844 178.65625 169.898438 178.074219 C 170.210938 177.492188 170.550781 176.929688 170.914062 176.378906 C 171.28125 175.832031 171.675781 175.304688 172.09375 174.792969 C 172.511719 174.285156 172.953125 173.796875 173.417969 173.328125 C 173.886719 172.863281 174.375 172.421875 174.882812 172.003906 C 175.394531 171.585938 175.921875 171.191406 176.46875 170.828125 C 177.019531 170.460938 177.582031 170.121094 178.164062 169.8125 C 178.746094 169.5 179.339844 169.21875 179.949219 168.964844 C 180.558594 168.714844 181.179688 168.492188 181.8125 168.300781 C 182.441406 168.109375 183.082031 167.949219 183.726562 167.820312 C 184.375 167.691406 185.027344 167.59375 185.683594 167.53125 C 186.339844 167.464844 186.996094 167.433594 187.65625 167.433594 C 188.316406 167.433594 188.972656 167.464844 189.628906 167.53125 C 190.285156 167.59375 190.9375 167.691406 191.582031 167.820312 C 192.230469 167.949219 192.867188 168.109375 193.5 168.300781 C 194.128906 168.492188 194.75 168.714844 195.359375 168.964844 C 195.96875 169.21875 196.5625 169.5 197.144531 169.8125 C 197.726562 170.121094 198.292969 170.460938 198.839844 170.828125 C 199.390625 171.191406 199.917969 171.585938 200.425781 172.003906 C 200.9375 172.421875 201.425781 172.863281 201.890625 173.328125 C 202.359375 173.796875 202.800781 174.285156 203.21875 174.792969 C 203.636719 175.304688 204.027344 175.832031 204.394531 176.378906 C 204.761719 176.929688 205.101562 177.492188 205.410156 178.074219 C 205.722656 178.65625 206.003906 179.25 206.253906 179.859375 C 206.507812 180.46875 206.730469 181.089844 206.921875 181.71875 C 207.113281 182.351562 207.273438 182.988281 207.402344 183.636719 C 207.53125 184.28125 207.625 184.933594 207.691406 185.589844 C 207.753906 186.246094 207.789062 186.902344 207.789062 187.5625 Z M 207.789062 187.5625 " fill-opacity="1" fill-rule="nonzero"/></svg>