<?xml version="1.0" ?><!DOCTYPE svg  PUBLIC '-//W3C//DTD SVG 1.1//EN'  'http://www.w3.org/Graphics/SVG/1.1/DTD/svg11.dtd'><svg enable-background="new 0 0 64 64" height="64px" id="Слой_3" version="1.1" viewBox="0 0 64 64" width="64px" xml:space="preserve" xmlns="http://www.w3.org/2000/svg" xmlns:xlink="http://www.w3.org/1999/xlink"><path d="  M8.302,17.308c1.219,0.701,0.684,1.63,1.904,2.333c1.22,0.702,1.755-0.228,2.976,0.476c1.221,0.702,0.686,1.633,1.906,2.334" fill="none" stroke="#1B1D1E" stroke-linecap="round" stroke-linejoin="round" stroke-miterlimit="10" stroke-width="2.7"/><path d="  M53.613,39.469c0.49,0,0.889,0.396,0.889,0.887c0,0.492-0.398,0.889-0.889,0.889s-0.889-0.396-0.889-0.889" fill="none" stroke="#1B1D1E" stroke-linecap="round" stroke-linejoin="round" stroke-miterlimit="10" stroke-width="2.7"/><line fill="none" stroke="#1B1D1E" stroke-linecap="round" stroke-linejoin="round" stroke-miterlimit="10" stroke-width="2.7" x1="27.554" x2="30.919" y1="6.255" y2="4.145"/><polyline fill="none" points="  48.133,7.979 49.191,6.081 45.65,6.6 43.217,3.983 42.619,7.506 39.379,9.014 42.547,10.671 42.975,14.219 45.531,11.721   49.041,12.407 " stroke="#1B1D1E" stroke-linecap="round" stroke-linejoin="round" stroke-miterlimit="10" stroke-width="2.7"/><line fill="none" stroke="#1B1D1E" stroke-linecap="round" stroke-linejoin="round" stroke-miterlimit="10" stroke-width="2.7" x1="49.041" x2="57.191" y1="12.407" y2="23.11"/><line fill="none" stroke="#1B1D1E" stroke-linecap="round" stroke-linejoin="round" stroke-miterlimit="10" stroke-width="2.7" x1="21.082" x2="42.889" y1="43.723" y2="43.723"/><line fill="none" stroke="#1B1D1E" stroke-linecap="round" stroke-linejoin="round" stroke-miterlimit="10" stroke-width="2.7" x1="19.464" x2="14.9" y1="58.5" y2="58.5"/><line fill="none" stroke="#1B1D1E" stroke-linecap="round" stroke-linejoin="round" stroke-miterlimit="10" stroke-width="2.7" x1="48.867" x2="51.67" y1="58.5" y2="58.5"/><path d="  M42.805,37.748c0,0-0.008,0.861-0.008,1.295c0,6.984,0.615,13.59,1.711,19.455V58.5H19.464c1.095-5.865,1.71-12.469,1.71-19.453  c0-0.434-0.007-1.295-0.007-1.295l0.005-0.004c-3.023-0.861-4.908-2.082-4.908-3.436h31.444  C47.709,35.664,45.826,36.885,42.805,37.748c-2.818,0.805-6.627,1.299-10.819,1.299c-1.445,0-2.846-0.059-4.176-0.168" fill="none" stroke="#1B1D1E" stroke-linecap="round" stroke-linejoin="round" stroke-miterlimit="10" stroke-width="2.7"/><path d="  M25,30.257c-0.785-3.071-1.483-7.049-1.946-11.42c-0.261-2.477,0.94-4.634,2.684-4.821c1.745-0.184,3.371,1.676,3.634,4.153  c0.734,6.937,0.684,13.029-0.007,16.143" fill="none" stroke="#1B1D1E" stroke-linecap="round" stroke-linejoin="round" stroke-miterlimit="10" stroke-width="2.7"/><path d="  M34.611,34.316c-0.65-2.925-0.734-8.484-0.131-14.9h8.506c1.289,2.13,1.119,4.594-0.379,5.504c-1.404,0.849-3.477,0.036-4.793-1.816  " fill="none" stroke="#1B1D1E" stroke-linecap="round" stroke-linejoin="round" stroke-miterlimit="10" stroke-width="2.7"/><path d="  M39.482,28.092c-0.553,2.579-1.174,4.713-1.799,6.187" fill="none" stroke="#1B1D1E" stroke-linecap="round" stroke-linejoin="round" stroke-miterlimit="10" stroke-width="2.7"/></svg>