<svg xmlns="http://www.w3.org/2000/svg" xmlns:xlink="http://www.w3.org/1999/xlink" width="500" zoomAndPan="magnify" viewBox="0 0 375 374.999991" height="500" preserveAspectRatio="xMidYMid meet" version="1.0"><defs><clipPath id="648e0ea9e5"><path d="M 6.320312 6.933594 L 365.570312 6.933594 L 365.570312 366.183594 L 6.320312 366.183594 Z M 6.320312 6.933594 " clip-rule="nonzero"/></clipPath></defs><g clip-path="url(#648e0ea9e5)"><path fill="#000000" d="M 185.945312 6.933594 C 183.007812 6.933594 180.070312 7.007812 177.132812 7.152344 C 174.195312 7.296875 171.265625 7.511719 168.339844 7.800781 C 165.414062 8.089844 162.496094 8.449219 159.589844 8.878906 C 156.683594 9.3125 153.785156 9.8125 150.902344 10.386719 C 148.019531 10.960938 145.152344 11.605469 142.300781 12.320312 C 139.449219 13.03125 136.617188 13.816406 133.804688 14.671875 C 130.992188 15.523438 128.199219 16.445312 125.433594 17.433594 C 122.664062 18.425781 119.921875 19.484375 117.207031 20.609375 C 114.492188 21.734375 111.804688 22.925781 109.148438 24.179688 C 106.488281 25.4375 103.863281 26.757812 101.273438 28.144531 C 98.679688 29.53125 96.121094 30.980469 93.601562 32.492188 C 91.078125 34.003906 88.597656 35.574219 86.152344 37.207031 C 83.707031 38.839844 81.304688 40.53125 78.945312 42.285156 C 76.582031 44.035156 74.265625 45.84375 71.992188 47.707031 C 69.722656 49.574219 67.496094 51.492188 65.316406 53.46875 C 63.140625 55.441406 61.011719 57.46875 58.933594 59.546875 C 56.855469 61.625 54.828125 63.753906 52.851562 65.929688 C 50.878906 68.109375 48.960938 70.335938 47.09375 72.609375 C 45.230469 74.878906 43.421875 77.195312 41.671875 79.558594 C 39.917969 81.917969 38.226562 84.320312 36.59375 86.765625 C 34.960938 89.210938 33.386719 91.691406 31.878906 94.214844 C 30.367188 96.734375 28.917969 99.292969 27.53125 101.886719 C 26.144531 104.476562 24.824219 107.101562 23.566406 109.761719 C 22.3125 112.417969 21.121094 115.105469 19.996094 117.820312 C 18.871094 120.535156 17.8125 123.277344 16.820312 126.046875 C 15.832031 128.8125 14.910156 131.605469 14.054688 134.417969 C 13.203125 137.230469 12.417969 140.0625 11.703125 142.914062 C 10.992188 145.765625 10.347656 148.632812 9.773438 151.515625 C 9.199219 154.402344 8.695312 157.296875 8.265625 160.203125 C 7.835938 163.113281 7.476562 166.027344 7.1875 168.953125 C 6.898438 171.878906 6.683594 174.808594 6.539062 177.746094 C 6.394531 180.683594 6.320312 183.621094 6.320312 186.558594 C 6.320312 189.5 6.394531 192.4375 6.539062 195.375 C 6.683594 198.308594 6.898438 201.242188 7.1875 204.167969 C 7.476562 207.09375 7.835938 210.007812 8.265625 212.917969 C 8.695312 215.824219 9.199219 218.71875 9.773438 221.601562 C 10.347656 224.488281 10.992188 227.355469 11.703125 230.207031 C 12.417969 233.058594 13.203125 235.890625 14.054688 238.703125 C 14.910156 241.515625 15.832031 244.304688 16.820312 247.074219 C 17.8125 249.84375 18.871094 252.582031 19.996094 255.300781 C 21.121094 258.015625 22.3125 260.703125 23.566406 263.359375 C 24.824219 266.015625 26.144531 268.640625 27.53125 271.234375 C 28.917969 273.828125 30.367188 276.382812 31.878906 278.90625 C 33.386719 281.425781 34.960938 283.910156 36.59375 286.355469 C 38.226562 288.800781 39.917969 291.203125 41.671875 293.5625 C 43.421875 295.925781 45.230469 298.242188 47.09375 300.511719 C 48.960938 302.785156 50.878906 305.011719 52.851562 307.1875 C 54.828125 309.367188 56.855469 311.496094 58.933594 313.574219 C 61.011719 315.652344 63.140625 317.679688 65.316406 319.652344 C 67.496094 321.628906 69.722656 323.546875 71.992188 325.414062 C 74.265625 327.277344 76.582031 329.085938 78.945312 330.835938 C 81.304688 332.585938 83.707031 334.28125 86.152344 335.914062 C 88.597656 337.546875 91.078125 339.117188 93.601562 340.628906 C 96.121094 342.140625 98.679688 343.589844 101.273438 344.976562 C 103.863281 346.359375 106.488281 347.683594 109.148438 348.9375 C 111.804688 350.195312 114.492188 351.386719 117.207031 352.511719 C 119.921875 353.636719 122.664062 354.695312 125.433594 355.683594 C 128.199219 356.675781 130.992188 357.597656 133.804688 358.449219 C 136.617188 359.304688 139.449219 360.089844 142.300781 360.800781 C 145.152344 361.515625 148.019531 362.160156 150.902344 362.734375 C 153.785156 363.308594 156.683594 363.808594 159.589844 364.242188 C 162.496094 364.671875 165.414062 365.03125 168.339844 365.320312 C 171.265625 365.609375 174.195312 365.824219 177.132812 365.96875 C 180.070312 366.113281 183.007812 366.183594 185.945312 366.183594 C 188.886719 366.183594 191.824219 366.113281 194.761719 365.96875 C 197.695312 365.824219 200.628906 365.609375 203.554688 365.320312 C 206.476562 365.03125 209.394531 364.671875 212.304688 364.242188 C 215.210938 363.808594 218.105469 363.308594 220.988281 362.734375 C 223.871094 362.160156 226.742188 361.515625 229.59375 360.800781 C 232.445312 360.089844 235.277344 359.304688 238.089844 358.449219 C 240.902344 357.597656 243.691406 356.675781 246.460938 355.683594 C 249.226562 354.695312 251.96875 353.636719 254.6875 352.511719 C 257.402344 351.386719 260.089844 350.195312 262.746094 348.9375 C 265.402344 347.683594 268.027344 346.359375 270.621094 344.976562 C 273.214844 343.589844 275.769531 342.140625 278.292969 340.628906 C 280.8125 339.117188 283.296875 337.546875 285.742188 335.914062 C 288.183594 334.28125 290.585938 332.585938 292.949219 330.835938 C 295.308594 329.085938 297.628906 327.277344 299.898438 325.414062 C 302.171875 323.546875 304.398438 321.628906 306.574219 319.652344 C 308.753906 317.679688 310.882812 315.652344 312.960938 313.574219 C 315.039062 311.496094 317.066406 309.367188 319.039062 307.1875 C 321.015625 305.011719 322.933594 302.785156 324.796875 300.511719 C 326.664062 298.242188 328.472656 295.925781 330.222656 293.5625 C 331.972656 291.203125 333.667969 288.800781 335.300781 286.355469 C 336.933594 283.910156 338.503906 281.425781 340.015625 278.90625 C 341.527344 276.382812 342.976562 273.828125 344.363281 271.234375 C 345.746094 268.640625 347.070312 266.015625 348.324219 263.359375 C 349.582031 260.703125 350.773438 258.015625 351.898438 255.300781 C 353.023438 252.582031 354.082031 249.84375 355.070312 247.074219 C 356.0625 244.304688 356.984375 241.515625 357.835938 238.703125 C 358.691406 235.890625 359.472656 233.058594 360.1875 230.207031 C 360.902344 227.355469 361.546875 224.488281 362.121094 221.601562 C 362.695312 218.71875 363.195312 215.824219 363.628906 212.917969 C 364.058594 210.007812 364.417969 207.09375 364.707031 204.167969 C 364.996094 201.242188 365.210938 198.308594 365.355469 195.375 C 365.5 192.4375 365.570312 189.5 365.570312 186.558594 C 365.570312 183.621094 365.492188 180.683594 365.347656 177.75 C 365.199219 174.8125 364.980469 171.882812 364.691406 168.960938 C 364.402344 166.035156 364.039062 163.121094 363.605469 160.210938 C 363.171875 157.304688 362.667969 154.410156 362.09375 151.527344 C 361.515625 148.648438 360.871094 145.78125 360.15625 142.929688 C 359.4375 140.082031 358.652344 137.25 357.796875 134.4375 C 356.945312 131.625 356.019531 128.835938 355.027344 126.070312 C 354.039062 123.304688 352.980469 120.5625 351.851562 117.847656 C 350.726562 115.132812 349.535156 112.449219 348.277344 109.792969 C 347.019531 107.136719 345.699219 104.511719 344.3125 101.917969 C 342.925781 99.328125 341.476562 96.773438 339.964844 94.25 C 338.453125 91.730469 336.878906 89.25 335.246094 86.804688 C 333.613281 84.363281 331.921875 81.960938 330.171875 79.601562 C 328.417969 77.242188 326.609375 74.925781 324.746094 72.652344 C 322.882812 70.382812 320.960938 68.15625 318.988281 65.980469 C 317.015625 63.800781 314.988281 61.675781 312.910156 59.597656 C 310.832031 57.519531 308.703125 55.492188 306.527344 53.519531 C 304.351562 51.542969 302.125 49.625 299.855469 47.761719 C 297.582031 45.894531 295.265625 44.089844 292.90625 42.335938 C 290.546875 40.585938 288.144531 38.894531 285.699219 37.261719 C 283.257812 35.625 280.777344 34.054688 278.253906 32.542969 C 275.734375 31.03125 273.179688 29.582031 270.585938 28.195312 C 267.996094 26.808594 265.371094 25.488281 262.714844 24.230469 C 260.058594 22.972656 257.375 21.78125 254.660156 20.652344 C 251.945312 19.527344 249.203125 18.46875 246.4375 17.476562 C 243.671875 16.484375 240.882812 15.5625 238.070312 14.707031 C 235.257812 13.855469 232.425781 13.066406 229.578125 12.351562 C 226.726562 11.636719 223.859375 10.992188 220.976562 10.414062 C 218.097656 9.839844 215.203125 9.335938 212.292969 8.902344 C 209.386719 8.46875 206.472656 8.105469 203.546875 7.816406 C 200.625 7.523438 197.691406 7.308594 194.757812 7.160156 C 191.824219 7.011719 188.886719 6.9375 185.945312 6.933594 Z M 185.945312 349.078125 C 183.285156 349.078125 180.628906 349.011719 177.972656 348.882812 C 175.316406 348.753906 172.664062 348.554688 170.015625 348.296875 C 167.371094 348.035156 164.730469 347.710938 162.101562 347.320312 C 159.46875 346.929688 156.847656 346.472656 154.242188 345.957031 C 151.632812 345.4375 149.039062 344.855469 146.457031 344.207031 C 143.878906 343.5625 141.316406 342.851562 138.769531 342.082031 C 136.226562 341.308594 133.699219 340.472656 131.195312 339.578125 C 128.691406 338.683594 126.210938 337.726562 123.753906 336.707031 C 121.296875 335.691406 118.867188 334.613281 116.460938 333.476562 C 114.058594 332.335938 111.683594 331.140625 109.335938 329.886719 C 106.992188 328.632812 104.675781 327.324219 102.394531 325.957031 C 100.113281 324.589844 97.867188 323.167969 95.65625 321.6875 C 93.445312 320.210938 91.269531 318.679688 89.136719 317.097656 C 87 315.511719 84.902344 313.875 82.847656 312.1875 C 80.789062 310.5 78.777344 308.765625 76.804688 306.976562 C 74.835938 305.191406 72.910156 303.359375 71.027344 301.476562 C 69.148438 299.597656 67.316406 297.671875 65.527344 295.699219 C 63.742188 293.730469 62.007812 291.714844 60.320312 289.660156 C 58.632812 287.605469 56.996094 285.507812 55.410156 283.371094 C 53.828125 281.234375 52.296875 279.0625 50.816406 276.851562 C 49.339844 274.640625 47.917969 272.394531 46.550781 270.109375 C 45.183594 267.828125 43.871094 265.515625 42.617188 263.171875 C 41.363281 260.824219 40.167969 258.449219 39.03125 256.046875 C 37.894531 253.640625 36.816406 251.210938 35.800781 248.753906 C 34.78125 246.296875 33.824219 243.816406 32.929688 241.3125 C 32.03125 238.808594 31.199219 236.28125 30.425781 233.738281 C 29.65625 231.191406 28.945312 228.628906 28.300781 226.050781 C 27.652344 223.46875 27.070312 220.875 26.550781 218.265625 C 26.03125 215.65625 25.578125 213.039062 25.1875 210.40625 C 24.796875 207.777344 24.472656 205.136719 24.210938 202.488281 C 23.949219 199.84375 23.753906 197.191406 23.625 194.535156 C 23.492188 191.878906 23.429688 189.21875 23.429688 186.558594 C 23.429688 183.902344 23.492188 181.242188 23.625 178.585938 C 23.753906 175.929688 23.949219 173.277344 24.210938 170.628906 C 24.472656 167.984375 24.796875 165.34375 25.1875 162.714844 C 25.578125 160.082031 26.03125 157.464844 26.550781 154.855469 C 27.070312 152.246094 27.652344 149.652344 28.300781 147.070312 C 28.945312 144.492188 29.65625 141.929688 30.425781 139.382812 C 31.199219 136.839844 32.03125 134.3125 32.929688 131.808594 C 33.824219 129.304688 34.78125 126.824219 35.800781 124.367188 C 36.816406 121.910156 37.894531 119.480469 39.03125 117.074219 C 40.167969 114.671875 41.363281 112.296875 42.617188 109.949219 C 43.871094 107.605469 45.183594 105.289062 46.550781 103.007812 C 47.917969 100.726562 49.339844 98.480469 50.816406 96.269531 C 52.296875 94.058594 53.828125 91.886719 55.410156 89.75 C 56.996094 87.613281 58.632812 85.515625 60.320312 83.460938 C 62.007812 81.402344 63.742188 79.390625 65.527344 77.421875 C 67.316406 75.449219 69.148438 73.523438 71.027344 71.644531 C 72.910156 69.761719 74.835938 67.929688 76.804688 66.144531 C 78.777344 64.355469 80.789062 62.621094 82.847656 60.933594 C 84.902344 59.246094 87 57.609375 89.136719 56.023438 C 91.269531 54.441406 93.445312 52.910156 95.65625 51.433594 C 97.867188 49.953125 100.113281 48.53125 102.394531 47.164062 C 104.675781 45.796875 106.992188 44.484375 109.335938 43.234375 C 111.683594 41.980469 114.058594 40.78125 116.460938 39.644531 C 118.867188 38.507812 121.296875 37.429688 123.753906 36.414062 C 126.210938 35.394531 128.691406 34.4375 131.195312 33.542969 C 133.699219 32.648438 136.226562 31.8125 138.769531 31.039062 C 141.316406 30.269531 143.878906 29.558594 146.457031 28.914062 C 149.039062 28.265625 151.632812 27.683594 154.242188 27.164062 C 156.847656 26.644531 159.46875 26.191406 162.101562 25.800781 C 164.730469 25.410156 167.371094 25.085938 170.015625 24.824219 C 172.664062 24.5625 175.316406 24.367188 177.972656 24.238281 C 180.628906 24.109375 183.285156 24.042969 185.945312 24.042969 C 188.605469 24.042969 191.265625 24.109375 193.921875 24.238281 C 196.578125 24.367188 199.230469 24.5625 201.875 24.824219 C 204.523438 25.085938 207.160156 25.410156 209.792969 25.800781 C 212.425781 26.191406 215.042969 26.644531 217.652344 27.164062 C 220.261719 27.683594 222.855469 28.265625 225.433594 28.914062 C 228.015625 29.558594 230.578125 30.269531 233.125 31.039062 C 235.667969 31.8125 238.191406 32.648438 240.695312 33.542969 C 243.203125 34.4375 245.683594 35.394531 248.140625 36.414062 C 250.597656 37.429688 253.027344 38.507812 255.433594 39.644531 C 257.835938 40.78125 260.210938 41.980469 262.558594 43.234375 C 264.902344 44.484375 267.214844 45.796875 269.496094 47.164062 C 271.777344 48.53125 274.023438 49.953125 276.238281 51.433594 C 278.449219 52.910156 280.621094 54.441406 282.757812 56.023438 C 284.894531 57.609375 286.992188 59.246094 289.046875 60.933594 C 291.101562 62.621094 293.117188 64.355469 295.085938 66.144531 C 297.058594 67.929688 298.984375 69.761719 300.863281 71.644531 C 302.746094 73.523438 304.578125 75.449219 306.363281 77.421875 C 308.152344 79.390625 309.886719 81.402344 311.574219 83.460938 C 313.261719 85.515625 314.898438 87.613281 316.480469 89.75 C 318.066406 91.886719 319.597656 94.058594 321.074219 96.269531 C 322.554688 98.480469 323.976562 100.726562 325.34375 103.007812 C 326.710938 105.289062 328.019531 107.605469 329.273438 109.949219 C 330.527344 112.296875 331.722656 114.671875 332.859375 117.074219 C 334 119.480469 335.074219 121.910156 336.09375 124.367188 C 337.113281 126.824219 338.066406 129.304688 338.964844 131.808594 C 339.859375 134.3125 340.695312 136.839844 341.464844 139.382812 C 342.238281 141.929688 342.949219 144.492188 343.59375 147.070312 C 344.242188 149.652344 344.824219 152.246094 345.339844 154.855469 C 345.859375 157.464844 346.316406 160.082031 346.707031 162.714844 C 347.097656 165.34375 347.421875 167.984375 347.683594 170.632812 C 347.941406 173.277344 348.136719 175.929688 348.269531 178.585938 C 348.398438 181.242188 348.464844 183.902344 348.464844 186.558594 C 348.460938 189.21875 348.394531 191.875 348.261719 194.53125 C 348.128906 197.1875 347.929688 199.839844 347.667969 202.484375 C 347.402344 205.128906 347.074219 207.769531 346.683594 210.398438 C 346.289062 213.027344 345.835938 215.648438 345.3125 218.253906 C 344.792969 220.863281 344.207031 223.453125 343.558594 226.035156 C 342.914062 228.613281 342.203125 231.171875 341.429688 233.71875 C 340.65625 236.261719 339.820312 238.785156 338.921875 241.289062 C 338.023438 243.792969 337.066406 246.269531 336.046875 248.726562 C 335.027344 251.183594 333.949219 253.613281 332.8125 256.015625 C 331.675781 258.417969 330.480469 260.792969 329.222656 263.136719 C 327.96875 265.480469 326.660156 267.792969 325.292969 270.074219 C 323.921875 272.355469 322.5 274.597656 321.023438 276.808594 C 319.546875 279.019531 318.015625 281.195312 316.429688 283.328125 C 314.84375 285.464844 313.210938 287.558594 311.523438 289.613281 C 309.835938 291.667969 308.097656 293.683594 306.3125 295.652344 C 304.527344 297.621094 302.695312 299.546875 300.8125 301.429688 C 298.933594 303.308594 297.007812 305.140625 295.039062 306.925781 C 293.070312 308.710938 291.054688 310.449219 289 312.136719 C 286.945312 313.824219 284.851562 315.457031 282.714844 317.042969 C 280.578125 318.628906 278.40625 320.160156 276.195312 321.636719 C 273.984375 323.113281 271.742188 324.539062 269.460938 325.90625 C 267.179688 327.273438 264.867188 328.582031 262.523438 329.839844 C 260.179688 331.09375 257.804688 332.289062 255.402344 333.425781 C 253 334.5625 250.570312 335.644531 248.113281 336.660156 C 245.65625 337.679688 243.175781 338.636719 240.675781 339.535156 C 238.171875 340.433594 235.648438 341.269531 233.105469 342.042969 C 230.558594 342.816406 228 343.527344 225.417969 344.175781 C 222.839844 344.820312 220.246094 345.40625 217.640625 345.925781 C 215.03125 346.449219 212.414062 346.90625 209.785156 347.296875 C 207.15625 347.6875 204.515625 348.015625 201.871094 348.28125 C 199.226562 348.542969 196.574219 348.742188 193.917969 348.875 C 191.261719 349.007812 188.605469 349.074219 185.945312 349.078125 Z M 185.945312 349.078125 " fill-opacity="1" fill-rule="nonzero"/></g><path fill="#000000" d="M 177.394531 135.238281 L 168.839844 143.792969 L 168.839844 306.308594 L 177.394531 314.863281 L 194.5 314.863281 L 203.054688 306.308594 L 203.054688 143.792969 L 194.5 135.238281 Z M 177.394531 135.238281 " fill-opacity="1" fill-rule="nonzero"/><path fill="#000000" d="M 211.605469 92.472656 C 211.605469 93.3125 211.566406 94.148438 211.484375 94.984375 C 211.402344 95.824219 211.277344 96.652344 211.113281 97.476562 C 210.949219 98.300781 210.746094 99.117188 210.503906 99.921875 C 210.257812 100.722656 209.976562 101.515625 209.652344 102.292969 C 209.332031 103.066406 208.972656 103.828125 208.578125 104.566406 C 208.179688 105.308594 207.75 106.027344 207.28125 106.726562 C 206.816406 107.425781 206.316406 108.101562 205.78125 108.75 C 205.25 109.398438 204.6875 110.023438 204.089844 110.617188 C 203.496094 111.210938 202.875 111.773438 202.226562 112.308594 C 201.574219 112.839844 200.902344 113.339844 200.203125 113.808594 C 199.503906 114.273438 198.785156 114.707031 198.042969 115.101562 C 197.300781 115.496094 196.542969 115.855469 195.765625 116.179688 C 194.988281 116.5 194.199219 116.78125 193.394531 117.027344 C 192.589844 117.269531 191.777344 117.476562 190.953125 117.640625 C 190.128906 117.800781 189.296875 117.925781 188.460938 118.007812 C 187.625 118.089844 186.785156 118.132812 185.945312 118.132812 C 185.105469 118.132812 184.269531 118.089844 183.429688 118.007812 C 182.59375 117.925781 181.765625 117.800781 180.941406 117.640625 C 180.117188 117.476562 179.300781 117.269531 178.496094 117.027344 C 177.695312 116.78125 176.902344 116.5 176.125 116.179688 C 175.351562 115.855469 174.589844 115.496094 173.851562 115.101562 C 173.109375 114.707031 172.390625 114.273438 171.691406 113.808594 C 170.992188 113.339844 170.316406 112.839844 169.667969 112.308594 C 169.019531 111.773438 168.394531 111.210938 167.800781 110.617188 C 167.207031 110.023438 166.644531 109.398438 166.109375 108.75 C 165.578125 108.101562 165.078125 107.425781 164.609375 106.726562 C 164.144531 106.027344 163.710938 105.308594 163.316406 104.566406 C 162.917969 103.828125 162.5625 103.066406 162.238281 102.292969 C 161.917969 101.515625 161.636719 100.722656 161.390625 99.921875 C 161.148438 99.117188 160.941406 98.300781 160.777344 97.476562 C 160.613281 96.652344 160.492188 95.824219 160.410156 94.984375 C 160.328125 94.148438 160.285156 93.3125 160.285156 92.472656 C 160.285156 91.628906 160.328125 90.792969 160.410156 89.957031 C 160.492188 89.121094 160.613281 88.289062 160.777344 87.464844 C 160.941406 86.640625 161.148438 85.828125 161.390625 85.023438 C 161.636719 84.21875 161.917969 83.425781 162.238281 82.652344 C 162.5625 81.875 162.917969 81.117188 163.316406 80.375 C 163.710938 79.632812 164.144531 78.914062 164.609375 78.214844 C 165.078125 77.515625 165.578125 76.839844 166.109375 76.191406 C 166.644531 75.542969 167.207031 74.921875 167.800781 74.328125 C 168.394531 73.730469 169.019531 73.167969 169.667969 72.636719 C 170.316406 72.101562 170.992188 71.601562 171.691406 71.136719 C 172.390625 70.667969 173.109375 70.238281 173.851562 69.839844 C 174.589844 69.445312 175.351562 69.085938 176.125 68.765625 C 176.902344 68.441406 177.695312 68.160156 178.496094 67.914062 C 179.300781 67.671875 180.117188 67.46875 180.941406 67.304688 C 181.765625 67.140625 182.59375 67.015625 183.429688 66.933594 C 184.269531 66.851562 185.105469 66.808594 185.945312 66.808594 C 186.785156 66.808594 187.625 66.851562 188.460938 66.933594 C 189.296875 67.015625 190.128906 67.140625 190.953125 67.304688 C 191.777344 67.46875 192.589844 67.671875 193.394531 67.914062 C 194.199219 68.160156 194.988281 68.441406 195.765625 68.765625 C 196.542969 69.085938 197.300781 69.445312 198.042969 69.839844 C 198.785156 70.238281 199.503906 70.667969 200.203125 71.136719 C 200.902344 71.601562 201.574219 72.101562 202.226562 72.636719 C 202.875 73.167969 203.496094 73.730469 204.089844 74.328125 C 204.6875 74.921875 205.25 75.542969 205.78125 76.191406 C 206.316406 76.839844 206.816406 77.515625 207.28125 78.214844 C 207.75 78.914062 208.179688 79.632812 208.578125 80.375 C 208.972656 81.117188 209.332031 81.875 209.652344 82.652344 C 209.976562 83.425781 210.257812 84.21875 210.503906 85.023438 C 210.746094 85.828125 210.949219 86.640625 211.113281 87.464844 C 211.277344 88.289062 211.402344 89.121094 211.484375 89.957031 C 211.566406 90.792969 211.605469 91.628906 211.605469 92.472656 Z M 211.605469 92.472656 " fill-opacity="1" fill-rule="nonzero"/></svg>