<svg xmlns="http://www.w3.org/2000/svg" xmlns:xlink="http://www.w3.org/1999/xlink" width="500" zoomAndPan="magnify" viewBox="0 0 375 374.999991" height="500" preserveAspectRatio="xMidYMid meet" version="1.0"><defs><clipPath id="a464751c1f"><path d="M 13.742188 10.722656 L 362.492188 10.722656 L 362.492188 365.472656 L 13.742188 365.472656 Z M 13.742188 10.722656 " clip-rule="nonzero"/></clipPath></defs><path fill="#000000" d="M 89.773438 307.660156 L 140.347656 278.40625 C 143.039062 276.851562 143.960938 273.40625 142.40625 270.714844 C 140.847656 268.019531 137.398438 267.09375 134.726562 268.65625 L 84.15625 297.90625 C 81.464844 299.460938 80.542969 302.90625 82.097656 305.597656 C 83.144531 307.40625 85.027344 308.414062 86.96875 308.414062 C 87.925781 308.414062 88.890625 308.171875 89.773438 307.660156 Z M 89.773438 307.660156 " fill-opacity="1" fill-rule="nonzero"/><path fill="#000000" d="M 269.734375 268.65625 L 219.160156 297.90625 C 216.46875 299.460938 215.546875 302.90625 217.105469 305.597656 C 218.148438 307.40625 220.03125 308.414062 221.976562 308.414062 C 222.933594 308.414062 223.898438 308.171875 224.78125 307.660156 L 275.355469 278.40625 C 278.046875 276.851562 278.96875 273.40625 277.410156 270.714844 C 275.859375 268.011719 272.414062 267.09375 269.734375 268.65625 Z M 269.734375 268.65625 " fill-opacity="1" fill-rule="nonzero"/><path fill="#000000" d="M 132.109375 224.441406 C 132.992188 224.953125 133.957031 225.195312 134.914062 225.195312 C 136.859375 225.195312 138.746094 224.179688 139.785156 222.378906 C 141.335938 219.683594 140.414062 216.242188 137.730469 214.6875 L 87.15625 185.433594 C 84.464844 183.886719 81.03125 184.808594 79.480469 187.496094 C 77.929688 190.191406 78.851562 193.632812 81.535156 195.1875 Z M 132.109375 224.441406 " fill-opacity="1" fill-rule="nonzero"/><path fill="#000000" d="M 281.785156 70.449219 C 280.234375 73.148438 281.15625 76.589844 283.839844 78.144531 L 334.414062 107.394531 C 335.296875 107.90625 336.261719 108.148438 337.21875 108.148438 C 339.164062 108.148438 341.050781 107.136719 342.089844 105.335938 C 343.640625 102.636719 342.722656 99.195312 340.035156 97.644531 L 289.460938 68.390625 C 286.78125 66.832031 283.328125 67.757812 281.785156 70.449219 Z M 281.785156 70.449219 " fill-opacity="1" fill-rule="nonzero"/><path fill="#000000" d="M 39.011719 213.933594 C 35.902344 213.933594 33.390625 216.449219 33.390625 219.5625 L 33.390625 278.074219 C 33.390625 281.1875 35.902344 283.707031 39.011719 283.707031 C 42.117188 283.707031 44.628906 281.1875 44.628906 278.074219 L 44.628906 219.5625 C 44.628906 216.449219 42.117188 213.933594 39.011719 213.933594 Z M 39.011719 213.933594 " fill-opacity="1" fill-rule="nonzero"/><g clip-path="url(#a464751c1f)"><path fill="#000000" d="M 289.277344 10.722656 C 286.167969 10.722656 283.65625 13.242188 283.65625 16.355469 L 283.65625 48.980469 L 219.027344 86.375 C 217.285156 87.382812 216.21875 89.242188 216.21875 91.25 L 216.210938 166.019531 L 154.398438 201.789062 L 89.78125 164.390625 C 88.042969 163.390625 85.898438 163.390625 84.160156 164.390625 L 16.722656 203.414062 C 14.980469 204.421875 13.910156 206.28125 13.910156 208.292969 L 13.90625 286.308594 C 13.90625 288.316406 14.972656 290.183594 16.714844 291.183594 L 81.34375 328.578125 L 81.34375 359.84375 C 81.34375 362.957031 83.855469 365.472656 86.964844 365.472656 C 90.074219 365.472656 92.585938 362.957031 92.585938 359.84375 L 92.585938 328.578125 L 154.410156 292.816406 L 219.019531 330.207031 C 219.886719 330.707031 220.859375 330.960938 221.832031 330.960938 C 221.855469 330.960938 221.882812 330.949219 221.902344 330.949219 C 221.925781 330.949219 221.953125 330.960938 221.976562 330.960938 C 222.949219 330.960938 223.921875 330.707031 224.789062 330.207031 L 292.226562 291.195312 C 293.96875 290.1875 295.035156 288.328125 295.035156 286.320312 L 295.035156 211.457031 L 359.523438 174.15625 C 361.265625 173.148438 362.335938 171.289062 362.335938 169.28125 L 362.335938 91.25 C 362.335938 89.242188 361.265625 87.378906 359.523438 86.375 L 294.894531 48.980469 L 294.894531 16.355469 C 294.894531 13.242188 292.382812 10.722656 289.277344 10.722656 Z M 160.152344 283.058594 L 160.160156 211.539062 L 221.898438 175.8125 L 283.644531 211.539062 L 283.644531 283.070312 L 221.898438 318.789062 Z M 25.152344 211.539062 L 86.96875 175.765625 L 148.777344 211.535156 L 148.773438 283.074219 L 86.964844 318.832031 L 25.144531 283.058594 Z M 351.089844 166.03125 L 289.347656 201.746094 L 227.449219 165.933594 L 227.457031 94.5 L 289.277344 58.726562 L 351.089844 94.5 Z M 351.089844 166.03125 " fill-opacity="1" fill-rule="nonzero"/></g></svg>