<?xml version="1.0" encoding="UTF-8" standalone="no"?><!DOCTYPE svg PUBLIC "-//W3C//DTD SVG 1.1//EN" "http://www.w3.org/Graphics/SVG/1.1/DTD/svg11.dtd"><svg width="100%" height="100%" viewBox="0 0 800 600" version="1.1" xmlns="http://www.w3.org/2000/svg" xmlns:xlink="http://www.w3.org/1999/xlink" xml:space="preserve" xmlns:serif="http://www.serif.com/" style="fill-rule:evenodd;clip-rule:evenodd;stroke-linejoin:round;stroke-miterlimit:2;"><path id="semi-closed-eye" d="M400.002,9.185c-139.695,-0 -255.945,101.292 -279.323,234.348l-0.524,0.41l0.374,0.483c-1.737,10.065 -2.962,20.309 -3.607,30.703c5.626,-4.758 11.281,-9.361 16.949,-13.827l0.075,0.072c174.224,-137.852 363.609,-133.297 532.072,-0l0.036,-0.036c5.693,4.472 11.385,9.057 17.024,13.827c-0.643,-10.419 -1.865,-20.689 -3.607,-30.776l0.337,-0.446c-0.161,-0.126 -0.324,-0.245 -0.484,-0.372c-23.366,-133.073 -139.616,-234.386 -279.323,-234.386l0.001,-0Zm0,22.227c120.418,0 221.636,81.209 252.042,191.902c-79.526,-55.581 -164.395,-84.293 -249.851,-84.816c-85.744,-0.528 -172.055,27.3 -254.199,84.745c30.437,-110.653 131.62,-191.83 252.006,-191.83l0.002,-0.001Zm2.192,150.943c-23.464,-0.165 -46.99,2.105 -70.507,6.839c-33.625,22.168 -55.755,60.278 -55.755,103.663c0,43.639 22.394,81.899 56.348,103.999c23.108,4.453 46.273,6.625 69.395,6.504c22.099,-0.117 44.184,-2.322 66.159,-6.578c33.866,-22.114 56.199,-60.346 56.199,-103.925c0,-43.337 -22.091,-81.411 -55.64,-103.59c-22.009,-4.456 -44.089,-6.758 -66.2,-6.912l0.001,-0Zm-116.449,19.292c-52.76,17.936 -105.226,48.496 -156.555,92.326c50.828,43.282 103.696,73.451 157.263,90.989c-20.458,-25.162 -32.747,-57.226 -32.747,-92.105c-0,-34.472 12.011,-66.178 32.039,-91.213l-0,0.003Zm228.589,0.109c19.967,25.018 31.926,56.68 31.926,91.101c-0,34.845 -12.257,66.88 -32.67,92.03c53.946,-17.675 106.816,-48.001 157.187,-90.877c-50.752,-43.327 -103.214,-74.122 -156.446,-92.255l0.003,0.001Zm-114.332,20.666c7.426,-0 14.576,1.138 21.298,3.271c-10.824,5.516 -18.252,16.758 -18.252,29.735c0,18.426 14.954,33.379 33.379,33.379c13.273,0 24.733,-7.771 30.106,-18.995c2.502,7.228 3.865,14.97 3.865,23.046c0,38.882 -31.516,70.399 -70.398,70.399c-38.882,-0 -70.396,-31.518 -70.396,-70.4c0,-38.881 31.517,-70.436 70.398,-70.436l0,0.001Zm282.929,90.507c-8.091,6.816 -16.259,13.304 -24.494,19.514c-0.026,0.175 -0.048,0.348 -0.075,0.523c-82.027,65.7 -168.938,99.157 -256.277,99.722c-87.382,0.566 -175.648,-31.743 -260.443,-99.648c-0.026,-0.174 -0.048,-0.348 -0.074,-0.521c-8.224,-6.206 -16.39,-12.723 -24.493,-19.552c10.33,147.156 133.17,263.527 282.927,263.527c149.77,-0 272.616,-116.39 282.929,-263.566l0,0.001Zm-533.782,53.785c81.7,59.477 167.605,88.753 253.081,88.2c85.187,-0.55 169.556,-30.658 248.624,-88.201c-31.82,108.485 -131.999,187.553 -250.854,187.553c-118.845,0 -219.022,-79.083 -250.852,-187.552l0.001,0Z" style="fill:#bebebe;fill-rule:nonzero;"/></svg>